<svg width="15" height="15" viewBox="0 0 20 20" fill="none" xmlns="http://www.w3.org/2000/svg">
<g clip-path="url(#clip0_668_1918)">
<path d="M8.3249 18.9583C8.15824 18.9583 8.0249 18.925 7.9249 18.8833C7.59157 18.7583 7.0249 18.35 7.0249 17.0583V11.6833H5.0749C3.95824 11.6833 3.55824 11.1583 3.41657 10.85C3.2749 10.5333 3.1499 9.89167 3.88324 9.05L10.1916 1.88334C11.0416 0.916672 11.7332 0.983339 12.0666 1.10834C12.3999 1.23334 12.9666 1.64167 12.9666 2.93334V8.30834H14.9166C16.0332 8.30834 16.4332 8.83334 16.5749 9.14167C16.7166 9.45834 16.8416 10.1 16.1082 10.9417L9.7999 18.1083C9.20824 18.7833 8.69157 18.9583 8.3249 18.9583ZM11.6082 2.28334C11.5832 2.31667 11.4082 2.40001 11.1332 2.71667L4.8249 9.88334C4.59157 10.15 4.55824 10.3167 4.55824 10.35C4.5749 10.3583 4.7249 10.4417 5.0749 10.4417H7.6499C7.99157 10.4417 8.2749 10.725 8.2749 11.0667V17.0667C8.2749 17.4833 8.3499 17.6667 8.38324 17.7167C8.40824 17.6833 8.58324 17.6 8.85824 17.2833L15.1666 10.1167C15.3999 9.85001 15.4332 9.68334 15.4332 9.65001C15.4166 9.64167 15.2666 9.55834 14.9166 9.55834H12.3416C11.9999 9.55834 11.7166 9.27501 11.7166 8.93334V2.93334C11.7249 2.51667 11.6416 2.34167 11.6082 2.28334Z" fill="#292D32"/>
</g>
<defs>
<clipPath id="clip0_668_1918">
<rect width="20" height="20" fill="white"/>
</clipPath>
</defs>
</svg>
