<svg width="747" height="747" viewBox="0 0 747 747" fill="none" xmlns="http://www.w3.org/2000/svg">
<mask id="mask0_228_760" style="mask-type:alpha" maskUnits="userSpaceOnUse" x="0" y="0" width="747" height="747">
<circle cx="373.5" cy="373.5" r="373.5" fill="#110F0F" fill-opacity="0.6"/>
</mask>
<g mask="url(#mask0_228_760)">
<path d="M37 -36V790" stroke="#110F0F" stroke-opacity="0.36" stroke-dasharray="2 2"/>
<path d="M102 -36V790" stroke="#110F0F" stroke-opacity="0.36" stroke-dasharray="2 2"/>
<path d="M167 -36V790" stroke="#110F0F" stroke-opacity="0.36" stroke-dasharray="2 2"/>
<path d="M232 -36V790" stroke="#110F0F" stroke-opacity="0.36" stroke-dasharray="2 2"/>
<path d="M297 -36V790" stroke="#110F0F" stroke-opacity="0.36" stroke-dasharray="2 2"/>
<path d="M362 -36V790" stroke="#110F0F" stroke-opacity="0.36" stroke-dasharray="2 2"/>
<path d="M427 -36V790" stroke="#110F0F" stroke-opacity="0.36" stroke-dasharray="2 2"/>
<path d="M492 -36V790" stroke="#110F0F" stroke-opacity="0.36" stroke-dasharray="2 2"/>
<path d="M557 -36V790" stroke="#110F0F" stroke-opacity="0.36" stroke-dasharray="2 2"/>
<path d="M622 -36V790" stroke="#110F0F" stroke-opacity="0.36" stroke-dasharray="2 2"/>
<path d="M687 -36V790" stroke="#110F0F" stroke-opacity="0.36" stroke-dasharray="2 2"/>
<path d="M-44 15.5H777.5" stroke="#110F0F" stroke-opacity="0.36" stroke-dasharray="2 2"/>
<path d="M-44 82H777.5" stroke="#110F0F" stroke-opacity="0.36" stroke-dasharray="2 2"/>
<path d="M-44 148.5H777.5" stroke="#110F0F" stroke-opacity="0.36" stroke-dasharray="2 2"/>
<path d="M-44 215H777.5" stroke="#110F0F" stroke-opacity="0.36" stroke-dasharray="2 2"/>
<path d="M-44 281.5H777.5" stroke="#110F0F" stroke-opacity="0.36" stroke-dasharray="2 2"/>
<path d="M-44 348H777.5" stroke="#110F0F" stroke-opacity="0.36" stroke-dasharray="2 2"/>
<path d="M-44 414.5H777.5" stroke="#110F0F" stroke-opacity="0.36" stroke-dasharray="2 2"/>
<path d="M-44 481H777.5" stroke="#110F0F" stroke-opacity="0.36" stroke-dasharray="2 2"/>
<path d="M-44 547.5H777.5" stroke="#110F0F" stroke-opacity="0.36" stroke-dasharray="2 2"/>
<path d="M-44 614H777.5" stroke="#110F0F" stroke-opacity="0.36" stroke-dasharray="2 2"/>
<path d="M-44 680.5H777.5" stroke="#110F0F" stroke-opacity="0.36" stroke-dasharray="2 2"/>
<path d="M-44 747H777.5" stroke="#110F0F" stroke-opacity="0.36" stroke-dasharray="2 2"/>
</g>
</svg>
