<svg width="79" height="74" viewBox="0 0 79 74" fill="none" xmlns="http://www.w3.org/2000/svg">
<rect x="1.5" y="1.5" width="76" height="71" rx="21.5" stroke="black" stroke-width="3"/>
<path opacity="0.4" d="M57.24 29.9C55.14 20.66 47.08 16.5 40 16.5C40 16.5 40 16.5 39.98 16.5C32.92 16.5 24.84 20.64 22.74 29.88C20.4 40.2 26.72 48.94 32.44 54.44C34.56 56.48 37.28 57.5 40 57.5C42.72 57.5 45.44 56.48 47.54 54.44C53.26 48.94 59.58 40.22 57.24 29.9Z" fill="#110F0F"/>
<path d="M40 39.92C43.4794 39.92 46.3 37.0994 46.3 33.62C46.3 30.1406 43.4794 27.32 40 27.32C36.5206 27.32 33.7 30.1406 33.7 33.62C33.7 37.0994 36.5206 39.92 40 39.92Z" fill="#110F0F"/>
</svg>
