<svg width="31" height="41" viewBox="0 0 31 41" fill="none" xmlns="http://www.w3.org/2000/svg">
<path d="M0 38.8497C0 37.6621 0.962749 36.6993 2.15036 36.6993H28.4745C29.6621 36.6993 30.6248 37.6621 30.6248 38.8497C30.6248 40.0373 29.6621 41.0001 28.4745 41.0001H2.15036C0.96275 41.0001 0 40.0373 0 38.8497Z" fill="#110F0F"/>
<path d="M0.125512 38.8497C0.125512 37.7314 1.03207 36.8249 2.15036 36.8249H28.1783C29.2966 36.8249 30.2032 37.7314 30.2032 38.8497C30.2032 39.968 29.2966 40.8745 28.1783 40.8745H2.15036C1.03207 40.8745 0.125512 39.968 0.125512 38.8497Z" fill="#7E15D0" stroke="#110F0F" stroke-width="0.251023"/>
<path d="M0 26.1977C0 25.0101 0.962749 24.0473 2.15036 24.0473H3.37215C4.55976 24.0473 5.52251 25.0101 5.52251 26.1977C5.52251 27.3853 4.55976 28.348 3.37215 28.348H2.15036C0.96275 28.348 0 27.3853 0 26.1977Z" fill="#110F0F"/>
<path d="M0 32.5238C0 31.3362 0.962749 30.3735 2.15036 30.3735H3.37215C4.55976 30.3735 5.52251 31.3362 5.52251 32.5238C5.52251 33.7114 4.55976 34.6742 3.37215 34.6742H2.15036C0.96275 34.6742 0 33.7114 0 32.5238Z" fill="#110F0F"/>
<path d="M0 19.8722C0 18.6846 0.962749 17.7218 2.15036 17.7218H3.37215C4.55976 17.7218 5.52251 18.6846 5.52251 19.8722C5.52251 21.0598 4.55976 22.0225 3.37215 22.0225H2.15036C0.96275 22.0225 0 21.0598 0 19.8722Z" fill="#110F0F"/>
<path d="M0 13.5467C0 12.359 0.962749 11.3963 2.15036 11.3963H3.37215C4.55976 11.3963 5.52251 12.359 5.52251 13.5467C5.52251 14.7343 4.55976 15.697 3.37215 15.697H2.15036C0.96275 15.697 0 14.7343 0 13.5467Z" fill="#110F0F"/>
<path d="M0 7.22049C0 6.03288 0.962749 5.07013 2.15036 5.07013H3.37215C4.55976 5.07013 5.52251 6.03288 5.52251 7.22049C5.52251 8.4081 4.55976 9.37085 3.37215 9.37085H2.15036C0.96275 9.37085 0 8.4081 0 7.22049Z" fill="#110F0F"/>
<path d="M9.28082 2.15036C9.28082 0.962748 10.2436 0 11.4312 0H12.653C13.8406 0 14.8033 0.962748 14.8033 2.15036C14.8033 3.33797 13.8406 4.30072 12.653 4.30072H11.4312C10.2436 4.30072 9.28082 3.33797 9.28082 2.15036Z" fill="#110F0F"/>
<path d="M18.8584 7.22049C18.8584 6.03288 19.8211 5.07013 21.0088 5.07013H22.2305C23.4182 5.07013 24.3809 6.03288 24.3809 7.22049C24.3809 8.4081 23.4182 9.37085 22.2306 9.37085H21.0088C19.8211 9.37085 18.8584 8.4081 18.8584 7.22049Z" fill="#110F0F"/>
<path d="M18.8584 13.7804C18.8584 12.5928 19.8211 11.6301 21.0088 11.6301H22.2305C23.4182 11.6301 24.3809 12.5928 24.3809 13.7804C24.3809 14.968 23.4182 15.9308 22.2306 15.9308H21.0088C19.8211 15.9308 18.8584 14.968 18.8584 13.7804Z" fill="#110F0F"/>
<path d="M9.28082 19.8053C9.28082 18.6177 10.2436 17.655 11.4312 17.655H12.653C13.8406 17.655 14.8033 18.6177 14.8033 19.8053C14.8033 20.9929 13.8406 21.9557 12.653 21.9557H11.4312C10.2436 21.9557 9.28082 20.9929 9.28082 19.8053Z" fill="#110F0F"/>
<path d="M18.8584 20.3407C18.8584 19.1531 19.8211 18.1903 21.0088 18.1903H22.2305C23.4182 18.1903 24.3809 19.1531 24.3809 20.3407C24.3809 21.5283 23.4182 22.491 22.2306 22.491H21.0088C19.8211 22.491 18.8584 21.5283 18.8584 20.3407Z" fill="#110F0F"/>
<path d="M24.381 28.3485C24.381 27.1609 25.3437 26.1981 26.5313 26.1981H27.7531C28.9407 26.1981 29.9035 27.1609 29.9035 28.3485C29.9035 29.5361 28.9407 30.4988 27.7531 30.4988H26.5313C25.3437 30.4988 24.381 29.5361 24.381 28.3485Z" fill="#110F0F"/>
</svg>
