<svg width="130" height="51" viewBox="0 0 130 51" fill="none" xmlns="http://www.w3.org/2000/svg">
<path d="M0 43.8497C0 42.6621 0.962749 41.6993 2.15036 41.6993H28.4745C29.6621 41.6993 30.6248 42.6621 30.6248 43.8497C30.6248 45.0373 29.6621 46.0001 28.4745 46.0001H2.15036C0.96275 46.0001 0 45.0373 0 43.8497Z" fill="#110F0F"/>
<path d="M0.125512 43.8497C0.125512 42.7314 1.03207 41.8249 2.15036 41.8249H28.1783C29.2966 41.8249 30.2032 42.7314 30.2032 43.8497C30.2032 44.968 29.2966 45.8745 28.1783 45.8745H2.15036C1.03207 45.8745 0.125512 44.968 0.125512 43.8497Z" fill="#7E15D0" stroke="#110F0F" stroke-width="0.251023"/>
<path d="M0 31.1977C0 30.0101 0.962749 29.0473 2.15036 29.0473H3.37215C4.55976 29.0473 5.52251 30.0101 5.52251 31.1977C5.52251 32.3853 4.55976 33.348 3.37215 33.348H2.15036C0.96275 33.348 0 32.3853 0 31.1977Z" fill="#110F0F"/>
<path d="M0 37.5238C0 36.3362 0.962749 35.3735 2.15036 35.3735H3.37215C4.55976 35.3735 5.52251 36.3362 5.52251 37.5238C5.52251 38.7114 4.55976 39.6742 3.37215 39.6742H2.15036C0.96275 39.6742 0 38.7114 0 37.5238Z" fill="#110F0F"/>
<path d="M0 24.8722C0 23.6846 0.962749 22.7218 2.15036 22.7218H3.37215C4.55976 22.7218 5.52251 23.6846 5.52251 24.8722C5.52251 26.0598 4.55976 27.0225 3.37215 27.0225H2.15036C0.96275 27.0225 0 26.0598 0 24.8722Z" fill="#110F0F"/>
<path d="M0 18.5467C0 17.359 0.962749 16.3963 2.15036 16.3963H3.37215C4.55976 16.3963 5.52251 17.359 5.52251 18.5467C5.52251 19.7343 4.55976 20.697 3.37215 20.697H2.15036C0.96275 20.697 0 19.7343 0 18.5467Z" fill="#110F0F"/>
<path d="M0 12.2205C0 11.0329 0.962749 10.0701 2.15036 10.0701H3.37215C4.55976 10.0701 5.52251 11.0329 5.52251 12.2205C5.52251 13.4081 4.55976 14.3708 3.37215 14.3708H2.15036C0.96275 14.3708 0 13.4081 0 12.2205Z" fill="#110F0F"/>
<path d="M9.28082 7.15036C9.28082 5.96275 10.2436 5 11.4312 5H12.653C13.8406 5 14.8033 5.96275 14.8033 7.15036C14.8033 8.33797 13.8406 9.30072 12.653 9.30072H11.4312C10.2436 9.30072 9.28082 8.33797 9.28082 7.15036Z" fill="#110F0F"/>
<path d="M18.8584 12.2205C18.8584 11.0329 19.8211 10.0701 21.0088 10.0701H22.2305C23.4182 10.0701 24.3809 11.0329 24.3809 12.2205C24.3809 13.4081 23.4182 14.3708 22.2306 14.3708H21.0088C19.8211 14.3708 18.8584 13.4081 18.8584 12.2205Z" fill="#110F0F"/>
<path d="M18.8584 18.7804C18.8584 17.5928 19.8211 16.6301 21.0088 16.6301H22.2305C23.4182 16.6301 24.3809 17.5928 24.3809 18.7804C24.3809 19.968 23.4182 20.9308 22.2306 20.9308H21.0088C19.8211 20.9308 18.8584 19.968 18.8584 18.7804Z" fill="#110F0F"/>
<path d="M9.28082 24.8053C9.28082 23.6177 10.2436 22.655 11.4312 22.655H12.653C13.8406 22.655 14.8033 23.6177 14.8033 24.8053C14.8033 25.9929 13.8406 26.9557 12.653 26.9557H11.4312C10.2436 26.9557 9.28082 25.9929 9.28082 24.8053Z" fill="#110F0F"/>
<path d="M18.8584 25.3407C18.8584 24.1531 19.8211 23.1903 21.0088 23.1903H22.2305C23.4182 23.1903 24.3809 24.1531 24.3809 25.3407C24.3809 26.5283 23.4182 27.491 22.2306 27.491H21.0088C19.8211 27.491 18.8584 26.5283 18.8584 25.3407Z" fill="#110F0F"/>
<path d="M24.381 33.3485C24.381 32.1609 25.3437 31.1981 26.5313 31.1981H27.7531C28.9407 31.1981 29.9035 32.1609 29.9035 33.3485C29.9035 34.5361 28.9407 35.4988 27.7531 35.4988H26.5313C25.3437 35.4988 24.381 34.5361 24.381 33.3485Z" fill="#110F0F"/>
<path d="M44.2568 15.184V23.056H47.2328C48.5982 23.056 49.6328 22.704 50.3368 22C51.0408 21.2747 51.3928 20.3147 51.3928 19.12C51.3928 16.496 49.9528 15.184 47.0728 15.184H44.2568ZM52.1608 34L47.1048 25.808H44.2568V34H40.9608V12.432H46.9768C49.4515 12.432 51.3608 13.04 52.7048 14.256C54.0488 15.4507 54.7208 17.0827 54.7208 19.152C54.6995 20.6667 54.3155 21.9573 53.5688 23.024C52.8222 24.0693 51.7875 24.8267 50.4648 25.296L56.0968 34H52.1608ZM69.1003 17.776H72.2363V34H69.1003V31.216C68.247 33.2 66.5617 34.192 64.0443 34.192C62.4443 34.192 61.175 33.7227 60.2363 32.784C59.2977 31.824 58.8283 30.512 58.8283 28.848V17.776H61.9963V28.08C61.9963 29.1893 62.263 30.0427 62.7963 30.64C63.351 31.216 64.1083 31.504 65.0683 31.504C66.2843 31.504 67.255 31.0773 67.9803 30.224C68.727 29.3707 69.1003 28.1653 69.1003 26.608V17.776ZM80.7093 20.208V29.136C80.7093 30.6933 81.456 31.472 82.9493 31.472C83.824 31.472 84.56 31.2373 85.1573 30.768V33.584C84.4533 33.968 83.5893 34.16 82.5653 34.16C79.216 34.16 77.5413 32.464 77.5413 29.072V20.208H75.0133V17.776H77.5413V13.808H80.7093V17.776H84.9653V20.208H80.7093ZM95.3981 34.288C93.0087 34.288 91.1314 33.5093 89.7661 31.952C88.4007 30.3947 87.7181 28.4213 87.7181 26.032C87.7181 23.6 88.4221 21.584 89.8301 19.984C91.2381 18.3627 93.0941 17.552 95.3981 17.552C97.8727 17.552 99.7821 18.3413 101.126 19.92C102.47 21.4773 103.142 23.472 103.142 25.904C103.142 28.336 102.449 30.3413 101.062 31.92C99.6967 33.4987 97.8087 34.288 95.3981 34.288ZM95.3661 20.208C93.9794 20.208 92.9021 20.7627 92.1341 21.872C91.3661 22.96 90.9821 24.3147 90.9821 25.936C90.9821 27.536 91.3767 28.8907 92.1661 30C92.9554 31.088 94.0327 31.632 95.3981 31.632C96.8487 31.632 97.9474 31.0987 98.6941 30.032C99.4621 28.9653 99.8461 27.6107 99.8461 25.968C99.8461 24.2827 99.4834 22.9067 98.7581 21.84C98.0327 20.752 96.9021 20.208 95.3661 20.208ZM106.805 34V11.376H109.973V34H106.805ZM124.6 24.72V24.144C124.558 22.928 124.227 21.968 123.608 21.264C122.99 20.5387 122.104 20.176 120.952 20.176C119.886 20.176 118.968 20.5707 118.2 21.36C117.432 22.128 116.952 23.248 116.76 24.72H124.6ZM126.616 30.32V33.136C125.422 33.8187 123.843 34.16 121.88 34.16C119.363 34.16 117.358 33.4027 115.864 31.888C114.371 30.3733 113.624 28.3893 113.624 25.936C113.624 23.3333 114.307 21.296 115.672 19.824C117.038 18.3307 118.776 17.584 120.888 17.584C122.958 17.584 124.6 18.2347 125.816 19.536C127.032 20.816 127.64 22.672 127.64 25.104C127.64 25.7653 127.576 26.4587 127.448 27.184H116.792C117.006 28.592 117.603 29.6693 118.584 30.416C119.566 31.1627 120.803 31.536 122.296 31.536C124.024 31.536 125.464 31.1307 126.616 30.32Z" fill="black"/>
</svg>
