<svg width="1512" height="347" viewBox="0 0 1512 347" fill="none" xmlns="http://www.w3.org/2000/svg">
<g clip-path="url(#clip0_228_790)">
<rect x="-19.8829" y="101.042" width="1538.54" height="136.382" transform="rotate(-3.66396 -19.8829 101.042)" fill="#110F0F"/>
<path d="M606.72 90.9505C607.093 96.7772 606.485 104.824 604.897 115.09C603.305 125.297 601.571 134.214 599.696 141.839C597.82 149.465 596.55 153.624 595.885 154.316C595.224 155.068 593.616 155.791 591.06 156.487C588.563 157.179 586.638 157.568 585.284 157.654C583.931 157.741 583.248 157.696 583.237 157.52C583.089 157.056 582.338 154.091 580.983 148.622C577.049 133.332 574.846 125.229 574.373 124.314C573.897 123.339 573.6 122.856 573.483 122.864L573.075 123.422C571.838 127.165 570.526 132.981 569.14 140.871C567.809 148.698 567.179 153.17 567.251 154.288C567.266 154.524 566.728 154.883 565.636 155.367C562.647 156.681 559.681 157.432 556.738 157.621C556.091 157.662 555.673 157.6 555.485 157.435C553.795 155.948 550.798 147.453 546.496 131.949C542.249 116.383 539.92 105.393 539.509 98.9775C539.502 98.8598 539.781 98.6055 540.347 98.2147C542.284 97.086 544.431 96.4757 546.789 96.3838C549.202 96.2293 550.413 96.2109 550.42 96.3286C551.322 103.953 552.692 111.962 554.529 120.354C556.422 128.684 558.086 134.369 559.522 137.409C559.666 137.813 559.797 138.012 559.914 138.004C560.091 137.993 560.254 137.776 560.405 137.352C564.036 118.386 566.346 108.31 567.333 107.124C569.399 106.164 572.345 105.562 576.171 105.317C578.297 105.299 579.454 105.373 579.642 105.538C579.83 105.703 580.577 108.137 581.883 112.841C583.185 117.485 584.609 122.653 586.155 128.346C587.698 133.979 588.625 137.377 588.936 138.539C589.302 139.639 589.68 139.555 590.072 138.289C590.895 135.459 591.839 130.346 592.901 122.95C593.964 115.554 594.289 108.619 593.874 102.145C593.833 101.497 593.234 100.915 592.078 100.398C590.977 99.8185 589.864 99.5056 588.738 99.4595C588.668 99.2867 588.616 98.9355 588.582 98.4058C588.544 97.8172 588.609 96.9857 588.777 95.9113C588.999 94.7742 589.193 94.1117 589.359 93.9238C594.624 92.1683 599.935 91.1191 605.29 90.7761C606.24 90.8335 606.716 90.8917 606.72 90.9505ZM634.506 121.793C634.397 120.086 633.43 119.291 631.606 119.408C629.193 119.562 627.153 120.934 625.487 123.522C623.821 126.111 623.099 129.142 623.321 132.614C623.374 133.438 623.518 133.843 623.753 133.828C625.868 133.633 628.234 132.27 630.849 129.739C633.461 127.149 634.68 124.5 634.506 121.793ZM643.985 149.375C642.07 150.856 638.2 151.784 632.373 152.157C626.546 152.53 621.962 151.08 618.621 147.808C615.279 144.535 613.423 140.015 613.054 134.247C612.681 128.42 614.213 123.269 617.649 118.794C621.141 114.257 626.271 111.771 633.039 111.338C635.805 111.161 638.383 111.734 640.773 113.059C643.221 114.379 644.564 116.894 644.802 120.601C645.035 124.25 643.649 127.974 640.641 131.771C637.693 135.565 633.513 138.58 628.101 140.818C628.146 141.524 628.89 142.068 630.333 142.448C631.831 142.766 633.286 142.88 634.699 142.789C639.172 142.503 642.652 141.482 645.14 139.727C645.195 139.664 645.281 139.629 645.399 139.622C645.517 139.614 645.611 140.17 645.683 141.288C645.902 144.701 645.336 147.397 643.985 149.375ZM667.424 87.8611C669.013 87.7593 670.261 88.3295 671.168 89.5716C672.134 90.8098 672.684 92.4884 672.82 94.6072C672.956 96.726 672.617 98.816 671.803 100.877C670.99 102.939 670.14 104.441 669.255 105.384C668.37 106.327 667.574 106.821 666.868 106.867C666.221 106.908 665.531 106.746 664.798 106.379C664.124 106.008 663.654 105.595 663.389 105.139C665.917 103.086 667.251 100.844 667.39 98.412C664.153 98.6193 662.42 96.9278 662.19 93.3377C662.21 91.7999 662.69 90.5281 663.63 89.5224C664.57 88.5166 665.835 87.9629 667.424 87.8611ZM682.657 134.931L681.197 114.902C680.975 111.43 680.974 109.568 681.194 109.318C681.8 108.629 682.883 107.998 684.442 107.426C685.997 106.794 687.451 106.435 688.805 106.348C690.217 106.258 690.933 106.36 690.952 106.654C690.877 108.255 690.906 110.085 691.038 112.145C691.166 114.146 691.289 115.143 691.406 115.135C691.524 115.127 691.638 115.061 691.748 114.936C691.855 114.752 692.016 114.505 692.233 114.196C692.504 113.824 693.026 113.199 693.797 112.323C694.627 111.442 695.523 110.675 696.486 110.023C698.912 108.213 701.566 107.216 704.45 107.031C704.97 107.766 705.281 108.928 705.382 110.517C705.597 113.872 705.338 116.282 704.604 117.747L704.297 118.476L703.138 118.373C698.9 118.644 695.686 120.593 693.495 124.22C692.644 125.693 692.241 126.783 692.286 127.489L692.784 135.258C693.236 142.32 693.379 145.946 693.214 146.134C691.668 147.828 688.482 148.83 683.656 149.139C683.185 149.169 682.944 149.096 682.932 148.919C683.197 146.598 683.106 141.935 682.657 134.931ZM730.635 115.637C730.525 113.93 729.559 113.135 727.734 113.252C725.321 113.406 723.281 114.778 721.615 117.367C719.949 119.956 719.227 122.986 719.449 126.459C719.502 127.283 719.646 127.687 719.882 127.672C721.997 127.477 724.362 126.115 726.977 123.583C729.589 120.993 730.808 118.344 730.635 115.637ZM740.113 143.219C738.199 144.701 734.328 145.628 728.502 146.001C722.675 146.375 718.091 144.925 714.749 141.652C711.407 138.379 709.552 133.859 709.182 128.091C708.809 122.265 710.341 117.114 713.778 112.639C717.269 108.101 722.399 105.616 729.168 105.182C731.934 105.005 734.512 105.579 736.901 106.903C739.35 108.224 740.693 110.738 740.93 114.446C741.164 118.095 739.777 121.818 736.77 125.615C733.821 129.409 729.641 132.425 724.23 134.662C724.275 135.369 725.019 135.912 726.461 136.292C727.959 136.61 729.414 136.724 730.827 136.633C735.3 136.347 738.78 135.326 741.268 133.571C741.323 133.509 741.41 133.474 741.527 133.466C741.645 133.459 741.74 134.014 741.811 135.132C742.03 138.546 741.464 141.241 740.113 143.219Z" fill="white"/>
<path d="M1053.42 102.936C1052.59 102.93 1050.06 103.063 1045.82 103.334C1041.58 103.606 1039.12 103.882 1038.43 104.162C1035.96 114.603 1034.67 122.102 1034.55 126.66C1034.55 126.719 1033.82 126.796 1032.35 126.89C1030.93 126.981 1029.46 126.986 1027.92 126.908C1024.65 126.644 1023 126.336 1022.98 125.983C1022.83 123.629 1024.48 116.638 1027.93 105.012C1027.12 104.413 1026.16 103.145 1025.03 101.208C1023.9 99.2125 1023.29 97.5378 1023.2 96.1841C1023.2 96.1252 1025.63 95.8511 1030.5 95.3618C1034.43 81.0451 1036.7 73.4836 1037.3 72.677C1037.52 72.4853 1038.56 72.1527 1040.42 71.6789C1042.28 71.1463 1043.47 70.8631 1044 70.8292L1043.75 69.6928C1043.58 68.8764 1043.38 68.0029 1043.14 67.0726C1042.96 66.0796 1042.86 65.4359 1042.84 65.1416C1042.83 64.9651 1043.31 64.5799 1044.27 63.9861C1047.07 62.3889 1049.99 61.4924 1053.06 61.2964C1053.87 64.7312 1054.92 69.1257 1056.2 74.4801C1057.55 79.7719 1059.99 87.8597 1063.52 98.7436C1067.05 109.627 1070.25 117.164 1073.12 121.354L1073.81 122.373C1073.83 122.668 1073.3 123.204 1072.23 123.982C1071.15 124.76 1069.73 125.531 1067.94 126.295C1066.16 127.059 1064.5 127.49 1062.97 127.588C1062.44 127.622 1060.94 124.38 1058.45 117.861C1056.02 111.28 1054.34 106.305 1053.42 102.936ZM1050.72 93.9789C1048.17 85.6319 1046.78 80.9637 1046.54 79.9745C1046.3 78.9853 1046.12 78.4944 1046 78.502C1045.88 78.5095 1045.74 78.6366 1045.58 78.8833C1045.12 79.9178 1044.27 82.3949 1043.04 86.3148C1041.88 90.2308 1041.13 92.9377 1040.82 94.4355C1047.35 94.0171 1050.65 93.8649 1050.72 93.9789ZM1077.07 108.513L1074.81 75.9481C1074.34 68.5912 1074.24 64.7562 1074.52 64.443C1075.18 63.6916 1076.28 62.9412 1077.83 62.1921C1079.44 61.4391 1080.97 61.0155 1082.45 60.9213C1083.92 60.8271 1084.66 60.8977 1084.68 61.1331C1084.59 61.7292 1084.63 65.0953 1084.79 71.2313C1085 77.3047 1085.18 81.0752 1085.34 82.5428L1086.75 82.4524C1093.28 82.034 1098.7 83.1938 1103.02 85.9316C1104.74 87.062 1106.3 88.8236 1107.7 91.2164C1109.09 93.5503 1109.89 96.3358 1110.1 99.5728C1110.45 105.164 1108.49 109.988 1104.2 114.045C1099.9 118.043 1094.49 120.783 1087.97 122.264C1088.06 123.618 1088.07 124.356 1088.02 124.477C1087.31 125.291 1085.99 125.967 1084.07 126.503C1082.22 127.036 1080.67 127.341 1079.43 127.421C1078.26 127.496 1077.66 127.445 1077.65 127.269C1077.96 125.594 1077.77 119.343 1077.07 108.513ZM1087.52 112.542C1089.05 112.444 1090.63 112.107 1092.25 111.531C1093.86 110.895 1095.14 110.163 1096.09 109.334C1097.1 108.501 1097.97 107.234 1098.69 105.533C1099.46 103.829 1099.77 101.652 1099.6 99.0039C1099.43 96.3555 1098.36 94.3853 1096.38 93.0933C1094.47 91.7976 1092.3 91.227 1089.89 91.3816L1085.85 91.9065L1086.25 98.2628C1086.76 106.208 1087.19 110.968 1087.52 112.542ZM1152.88 97.9853C1153.24 103.577 1151.84 108.541 1148.69 112.88C1145.6 117.156 1141.14 119.48 1135.31 119.853C1129.54 120.223 1124.9 118.718 1121.37 115.339C1117.85 111.96 1115.9 107.416 1115.53 101.707C1115.17 95.9387 1116.87 90.7177 1120.65 86.0435C1124.48 81.3067 1129.87 78.716 1136.82 78.2712C1139.65 78.208 1141.19 78.2866 1141.44 78.507C1141.69 78.7273 1141.84 79.2789 1141.9 80.1617C1141.96 81.0446 1141.93 82.0213 1141.82 83.092C1142.71 83.0355 1143.86 83.4936 1145.28 84.4663C1146.76 85.3764 1147.97 86.3329 1148.92 87.3357C1149.87 88.3386 1150.73 89.7904 1151.5 91.6912C1152.27 93.5331 1152.73 95.6311 1152.88 97.9853ZM1139.6 92.6309C1138.19 91.8348 1136.83 91.4782 1135.54 91.5611L1134.83 91.6063C1134.7 91.3784 1134.61 90.8819 1134.56 90.1168C1134.51 89.3517 1134.55 88.6103 1134.68 87.8928C1132.27 88.0473 1130.07 89.2812 1128.1 91.5945C1126.18 93.9041 1125.34 97.0011 1125.59 100.886C1125.88 105.476 1127.56 108.56 1130.61 110.137C1131.78 110.772 1133.33 111.027 1135.27 110.903C1137.27 110.775 1139.07 109.744 1140.66 107.81C1142.31 105.872 1143.02 103.108 1142.79 99.5183C1142.56 95.9281 1141.49 93.6323 1139.6 92.6309ZM1182.66 111.148L1182.45 109.3L1182.35 109.129C1181.08 111.397 1179.39 113.248 1177.3 114.683C1175.26 116.113 1173.21 116.894 1171.15 117.026C1164.97 117.422 1161.14 112.851 1159.64 103.315C1159.42 101.792 1159.11 97.8524 1158.7 91.496C1158.3 85.1396 1158.32 81.3559 1158.78 80.1449C1160.23 78.8109 1162.66 78.0347 1166.07 77.8161C1167.43 77.7294 1168.26 77.8238 1168.57 78.0992C1168.58 78.1581 1168.6 78.9545 1168.64 80.4885C1168.63 84.9803 1168.7 88.4328 1168.86 90.8459C1169.01 93.2589 1169.16 95.0521 1169.29 96.2255C1169.42 97.3399 1169.5 98.0738 1169.52 98.4269C1169.6 98.7174 1169.72 99.2709 1169.89 100.087C1170.12 100.9 1170.4 101.591 1170.73 102.161C1171.73 103.811 1173.13 104.578 1174.96 104.461C1176.84 104.34 1178.43 103.323 1179.73 101.408C1181.08 99.4301 1181.7 98.0606 1181.59 97.2993L1181.4 94.2976C1180.71 83.5271 1180.52 77.7186 1180.82 76.872C1181.08 76.3234 1181.95 75.7059 1183.45 75.0194C1185 74.329 1186.54 73.9349 1188.07 73.8369C1189.6 73.7389 1190.49 73.8001 1190.74 74.0204L1190.83 78.181C1191.01 86.62 1191.25 93.1348 1191.55 97.7255C1191.84 102.316 1192.15 105.222 1192.46 106.443C1193.06 109.359 1194.01 111.663 1195.3 113.353C1195.33 113.941 1194.19 114.96 1191.86 116.41C1189.53 117.859 1187.51 118.638 1185.8 118.748C1185.33 118.778 1184.75 117.929 1184.04 116.201C1183.34 114.473 1182.88 112.789 1182.66 111.148ZM1209.01 54.7668C1208.98 56.128 1209.07 59.8453 1209.28 65.9187C1213.7 65.6361 1215.91 65.583 1215.92 65.7596C1216.05 67.7607 1215.87 69.5746 1215.38 71.2014C1214.89 72.7693 1214.38 73.5702 1213.85 73.6042L1209.7 73.8699C1210.14 82.588 1210.54 89.6838 1210.89 95.1574C1211.23 100.572 1211.55 104.186 1211.85 105.999C1212.4 109.037 1213.76 111.461 1215.95 113.271C1215.99 113.919 1214.9 114.934 1212.69 116.317C1210.53 117.696 1208.45 118.45 1206.45 118.578C1206.27 118.589 1205.9 118.318 1205.33 117.763C1204.82 117.205 1204.23 116.267 1203.56 114.951C1202.94 113.632 1202.5 112.33 1202.24 111.047C1202.04 109.759 1201.69 105.143 1201.18 97.1974C1200.67 89.2519 1200.28 81.7422 1200 74.6683L1195.06 75.0731C1194.75 74.7977 1194.52 73.5418 1194.38 71.3052C1194.23 69.0099 1194.41 67.6098 1194.91 67.1051C1196.2 66.9633 1197.76 66.8046 1199.58 66.6289C1199.36 63.2153 1199.13 61.0139 1198.89 60.0246C1198.65 59.0354 1198.52 58.4525 1198.51 58.2759C1198.47 57.6874 1199.43 56.9465 1201.38 56.0532C1203.39 55.1562 1205.16 54.6587 1206.69 54.5607C1208.22 54.4627 1209 54.5314 1209.01 54.7668Z" fill="white"/>
<path d="M63.4386 158.002L73.0614 157.385C77.4167 157.106 80.6942 155.685 82.8939 153.121C85.0936 150.557 86.0785 147.48 85.8486 143.89C85.2946 135.239 80.1326 131.225 70.3626 131.851L61.7992 132.399L63.4386 158.002ZM97.4335 184.989L90.9006 185.407L74.4318 162.173L72.7544 162.28L63.7495 162.857L65.2985 187.047L59.825 187.397L56.0147 127.894L69.4337 127.035C76.3786 126.59 81.6596 127.848 85.2768 130.807C88.949 133.704 90.9698 138.037 91.3391 143.805C91.4777 147.814 90.5799 151.329 88.6458 154.349C86.7117 157.368 83.8363 159.532 80.0197 160.84L97.4335 184.989ZM131.403 137.871L136.789 137.526L139.655 182.285L134.27 182.63L133.755 174.596C131.77 180.515 127.217 183.702 120.096 184.158C115.74 184.437 112.185 183.365 109.429 180.941C106.729 178.454 105.241 175.063 104.966 170.767L102.976 139.691L108.362 139.346L110.255 168.921C110.474 172.334 111.524 174.897 113.407 176.608C115.348 178.316 117.79 179.076 120.733 178.887C124.676 178.635 127.764 177.019 129.996 174.039C132.287 171.056 133.288 167.298 132.998 162.766L131.403 137.871ZM158.826 140.724L160.607 168.533C160.935 173.654 163.483 176.061 168.25 175.756C170.604 175.605 172.562 174.8 174.123 173.341L174.474 178.815C172.838 180.042 170.903 180.727 168.666 180.871C160.191 181.413 155.674 177.329 155.117 168.619L153.353 141.075L146.025 141.544L145.731 136.953L153.059 136.484L152.341 125.272L157.814 124.921L158.532 136.133L171.333 135.314L171.627 139.904L158.826 140.724ZM203.142 179.018C196.844 179.421 191.702 177.564 187.715 173.446C183.729 169.328 181.524 163.973 181.102 157.381C180.684 150.848 182.244 145.223 185.783 140.505C189.322 135.787 194.123 133.234 200.185 132.846C206.836 132.42 212.127 134.297 216.059 138.477C220.045 142.595 222.254 148.009 222.683 154.719C223.109 161.369 221.578 166.993 218.09 171.589C214.658 176.123 209.675 178.599 203.142 179.018ZM200.513 137.966C195.863 138.264 192.328 140.263 189.905 143.964C187.483 147.665 186.432 152.017 186.752 157.019C187.065 161.904 188.688 166.026 191.622 169.384C194.61 172.679 198.341 174.184 202.814 173.897C207.699 173.584 211.356 171.636 213.786 168.053C216.271 164.407 217.354 160.083 217.033 155.08C216.702 149.901 215.161 145.686 212.412 142.434C209.659 139.124 205.692 137.634 200.513 137.966ZM235.098 176.173L231.101 113.757L236.486 113.413L240.483 175.829L235.098 176.173ZM281.945 148.176L281.815 146.145C281.554 142.084 280.199 138.921 277.75 136.655C275.359 134.385 272.25 133.372 268.425 133.617C264.658 133.858 261.594 135.384 259.233 138.195C256.872 141.005 255.643 144.896 255.548 149.866L281.945 148.176ZM285.784 165.216L286.134 170.689C282.716 172.681 278.653 173.828 273.944 174.129C267.294 174.555 261.747 172.842 257.304 168.99C252.917 165.075 250.506 159.733 250.073 152.965C249.613 145.784 251.076 140.017 254.461 135.664C257.846 131.31 262.452 128.947 268.279 128.574C273.753 128.223 278.223 129.739 281.69 133.122C285.157 136.505 287.099 141.463 287.518 147.996C287.646 149.997 287.63 151.594 287.47 152.786L255.865 154.81C256.593 159.727 258.543 163.414 261.714 165.87C264.882 168.268 268.937 169.308 273.881 168.992C278.943 168.668 282.91 167.409 285.784 165.216Z" fill="white"/>
<path d="M1403.53 84.9089C1404.77 104.195 1390 120.864 1370.52 122.111C1351.04 123.359 1334.27 108.709 1333.04 89.4231C1331.8 70.1375 1346.56 53.4682 1366.04 52.2207C1385.53 50.9732 1402.3 65.6233 1403.53 84.9089Z" stroke="white" stroke-width="3.68599"/>
<path d="M1369.81 111.076C1391.3 109.7 1407.63 91.305 1406.27 69.9595C1404.9 48.614 1386.35 32.4526 1364.87 33.8284C1343.38 35.2041 1327.05 53.5993 1328.41 74.9448C1329.78 96.2903 1348.33 112.452 1369.81 111.076Z" fill="#C218C6" stroke="white" stroke-width="3.68599"/>
<rect x="815.288" y="87.0862" width="59.4908" height="66.3478" rx="12.901" transform="rotate(-3.66396 815.288 87.0862)" fill="#110F0F" stroke="white" stroke-width="3.68599"/>
<rect x="799.541" y="73.321" width="66.8628" height="73.7198" rx="16.587" transform="rotate(-3.66396 799.541 73.321)" fill="#110F0F" stroke="white" stroke-width="3.68599"/>
<ellipse cx="444.353" cy="130.698" rx="37.1628" ry="36.8599" transform="rotate(-3.66396 444.353 130.698)" fill="white"/>
<rect x="-7.91992" y="0.319897" width="1569.12" height="140.236" transform="rotate(7.6024 -7.91992 0.319897)" fill="#110F0F"/>
<path d="M198.602 87.8089L210.606 89.3193C215.054 89.913 217.27 90.2699 217.254 90.3901C218.305 82.5158 219.191 76.7914 219.913 73.2169C220.635 69.6424 221.004 67.7951 221.02 67.6749C221.036 67.5547 221.497 67.3103 222.403 66.9417C223.369 66.5812 224.661 66.2948 226.28 66.0827C227.907 65.8104 229.262 65.7464 230.343 65.8909C231.486 66.0433 232.041 66.2397 232.008 66.4802C230.168 75.228 228.578 84.621 227.238 94.6593C225.906 104.637 225.216 112.101 225.167 117.05C225.118 121.999 225.979 125.632 227.75 127.949C227.734 128.069 227.394 128.329 226.728 128.73C226.123 129.139 224.694 129.529 222.442 129.901C220.25 130.282 218.222 130.348 216.359 130.099L215.301 129.774C214.312 128.48 213.813 126.027 213.805 122.417C213.866 118.754 214.632 111.178 216.105 99.6891C215.091 99.4926 211.819 99.0253 206.289 98.2872C200.819 97.5571 197.801 97.2461 197.236 97.3542C196.952 99.0293 196.424 102.752 195.654 108.523C194.892 114.233 194.494 119.044 194.462 122.955C194.374 123.616 193.34 124.029 191.36 124.193C189.372 124.417 187.537 124.417 185.854 124.192C184.231 123.975 183.263 123.663 182.951 123.254C182.69 122.913 183.274 117.393 184.702 106.694L186.122 96.0543C185.437 95.2287 184.72 93.7259 183.971 91.5457C183.222 89.3656 182.935 87.6144 183.112 86.292C183.136 86.1116 184.621 86.218 187.566 86.6112C188.196 82.3514 188.88 77.4565 189.618 71.9264L189.871 70.033C188.693 66.9392 188.292 63.9797 188.67 61.1545C188.702 60.9141 188.752 60.7678 188.82 60.7157C189.189 60.7038 189.523 60.7178 189.824 60.7579C190.124 60.7981 190.785 60.8863 191.807 61.0227C192.889 61.1671 194.364 61.5781 196.231 62.2556C198.107 62.873 199.583 63.4983 200.661 64.1316C201.739 64.7649 202.258 65.2318 202.218 65.5324C201.404 68.4216 200.279 75.246 198.843 86.0056L198.602 87.8089ZM256.862 128.072L257.024 126.166L256.958 125.974C255.219 128.005 253.149 129.534 250.748 130.559C248.408 131.593 246.186 131.969 244.082 131.688C237.77 130.846 234.817 125.466 235.224 115.548C235.312 113.969 235.789 109.933 236.656 103.442C237.522 96.9497 238.306 93.1388 239.008 92.0088C240.739 90.9551 243.348 90.6609 246.834 91.1263C248.217 91.3108 249.038 91.5734 249.299 91.914C249.291 91.9741 249.152 92.7816 248.884 94.3364C247.973 98.8646 247.354 102.361 247.025 104.825C246.696 107.29 246.481 109.127 246.381 110.338C246.288 111.488 246.218 112.243 246.17 112.604C246.19 112.912 246.204 113.495 246.212 114.353C246.28 115.218 246.424 115.972 246.644 116.613C247.313 118.477 248.58 119.533 250.443 119.781C252.366 120.038 254.174 119.331 255.865 117.66C257.625 115.937 258.527 114.681 258.571 113.892L258.98 110.826C260.448 99.8261 261.419 93.9294 261.892 93.136C262.264 92.6351 263.272 92.1884 264.915 91.7959C266.619 91.4115 268.252 91.3235 269.814 91.5321C271.377 91.7407 272.263 91.9813 272.471 92.2538L271.725 96.4674C270.217 105.015 269.15 111.633 268.525 116.322C267.899 121.01 267.622 124.002 267.694 125.296C267.714 128.358 268.204 130.87 269.166 132.834C269.085 133.435 267.725 134.232 265.084 135.226C262.443 136.219 260.251 136.6 258.508 136.367C258.027 136.303 257.606 135.329 257.246 133.445C256.885 131.562 256.757 129.771 256.862 128.072ZM276.675 122.824L279.232 101.599C279.746 97.7521 280.173 95.6984 280.513 95.4379C281.323 94.873 282.515 94.4203 284.09 94.0799C285.673 93.6794 287.156 93.5714 288.538 93.7559C289.921 93.9404 290.596 94.1529 290.564 94.3934C289.971 97.0061 289.582 99.0037 289.397 100.386C289.213 101.769 289.18 102.468 289.301 102.484C289.421 102.5 289.617 102.404 289.89 102.196C290.17 101.927 290.647 101.563 291.321 101.102C292.062 100.589 293.338 99.964 295.15 99.2269C297.029 98.4377 298.691 98.1393 300.133 98.3319C304.04 98.8534 306.753 100.99 308.271 104.741C312.339 100.389 316.447 98.4904 320.595 99.044C324.321 99.5414 326.784 101.491 327.981 104.894C329.191 108.665 329.71 112.344 329.537 115.93C329.208 121.148 328.674 126.522 327.936 132.052L326.167 142.553C326.111 142.973 325.067 143.232 323.035 143.328C320.995 143.484 319.374 143.481 318.172 143.321L315.347 142.485C316.803 136.623 317.775 131.858 318.264 128.191C318.754 124.525 319.043 121.902 319.131 120.323C319.288 118.692 319.29 117.071 319.138 115.46C318.994 113.789 318.575 112.571 317.882 111.805C317.257 110.987 316.373 110.502 315.231 110.35C314.089 110.198 313.023 110.392 312.033 110.933C311.051 111.413 310.31 111.926 309.809 112.471C309.368 113.024 309.136 113.391 309.112 113.571C309.035 115.519 308.532 119.979 307.601 126.952L306.29 134.026C306.225 134.507 305.208 134.8 303.236 134.904C301.264 135.007 299.677 134.979 298.475 134.819L295.65 133.983C296.841 129.186 297.717 124.684 298.279 120.476C298.848 116.209 299.005 113.201 298.749 111.454C298.561 109.654 297.505 108.626 295.581 108.37C293.658 108.113 291.907 108.858 290.327 110.605C288.748 112.352 287.891 113.737 287.754 114.758L287.501 116.652L286.316 126.221C285.53 132.112 284.996 135.192 284.716 135.46C283.02 136.702 279.768 137.002 274.96 136.36C274.479 136.296 274.25 136.174 274.275 135.994C275.04 133.465 275.84 129.075 276.675 122.824ZM369.738 126.16C368.736 133.673 368.24 138.074 368.252 139.36C368.292 142.73 368.996 145.241 370.367 146.892C370.279 147.553 368.944 148.385 366.363 149.386C363.842 150.396 361.62 150.772 359.697 150.515C359.156 150.443 358.693 149.555 358.308 147.852C357.916 146.209 357.712 144.989 357.696 144.191C357.74 143.402 357.732 143.003 357.672 142.995L357.377 143.139C353.855 145.239 349.959 146.004 345.692 145.434C341.424 144.864 338.254 143.401 336.183 141.045C334.179 138.636 333.402 135.749 333.852 132.382C334.301 129.016 335.399 126.287 337.147 124.196C338.962 122.052 340.942 120.512 343.086 119.574C345.23 118.637 347.553 117.968 350.053 117.567C353.881 116.855 356.846 116.639 358.95 116.919L359.142 116.853C359.535 113.908 356.005 111.938 348.552 110.943C345.606 110.55 343.396 110.377 341.921 110.425L341.831 110.413C341.992 109.211 342.553 107.756 343.515 106.049C344.537 104.35 345.325 103.262 345.878 102.786C346.491 102.317 348.691 102.335 352.478 102.841C359.33 103.755 364.203 105.752 367.096 108.83C369.997 111.848 371.082 116.091 370.352 121.561L369.738 126.16ZM358.96 130.594L359.417 127.168C359.594 125.846 359.652 125.181 359.592 125.173C355.565 124.635 351.938 125.222 348.712 126.932C346.672 128.006 345.519 129.535 345.255 131.518C345.086 132.781 345.397 133.893 346.186 134.855C346.975 135.816 348.272 136.418 350.075 136.658C351.938 136.907 353.784 136.603 355.611 135.746C357.499 134.896 358.615 133.179 358.96 130.594ZM389.868 128.663L389.513 132.011L388.598 138.864C387.74 145.295 387.174 148.615 386.901 148.824C386.016 149.501 384.583 149.921 382.603 150.085C380.624 150.249 379.003 150.247 377.74 150.079C376.538 149.918 375.949 149.748 375.973 149.567C376.755 146.919 377.559 142.499 378.386 136.307L380.823 115.984C381.32 112.258 381.739 110.264 382.08 110.004C382.829 109.431 384.048 109.012 385.735 108.748C387.43 108.423 388.969 108.353 390.351 108.538C391.794 108.731 392.495 108.977 392.455 109.278C392.082 110.696 391.799 112.127 391.607 113.569C391.414 115.012 391.408 115.745 391.589 115.769L391.883 115.625C392.24 115.245 392.759 114.794 393.44 114.273C394.13 113.692 395.504 113.019 397.564 112.254C399.692 111.437 401.628 111.144 403.371 111.377C405.174 111.618 406.633 112.149 407.747 112.971C408.929 113.74 409.85 114.628 410.511 115.634C411.172 116.64 411.661 118.02 411.978 119.776C412.354 121.539 412.596 123.162 412.704 124.645C412.812 126.127 412.796 128.083 412.655 130.511C412.394 133.842 411.923 138.061 411.241 143.17L409.562 153.684C409.506 154.104 408.462 154.363 406.431 154.459C404.391 154.615 402.77 154.612 401.568 154.452L398.652 153.604C399.976 148.274 400.974 143.085 401.648 138.036C402.33 132.926 402.509 129.065 402.185 126.453C401.868 123.78 400.718 122.311 398.735 122.046C396.751 121.781 395.056 122.106 393.649 123.019C392.303 123.941 391.377 124.918 390.872 125.952L390.036 127.401L389.868 128.663Z" fill="white"/>
<path d="M688.574 136.78C687.629 136.531 686.525 136.323 685.262 136.154C684.06 135.994 682.541 135.913 680.706 135.913C678.931 135.921 677.045 136.067 675.05 136.351C673.122 136.583 671.485 137.16 670.138 138.082C668.792 139.003 668.014 140.245 667.805 141.808C667.605 143.311 668.326 144.784 669.969 146.227C671.68 147.617 673.759 148.996 676.208 150.363C678.664 151.67 681.1 153.127 683.517 154.734C685.993 156.349 687.968 158.51 689.443 161.215C690.985 163.868 691.528 166.908 691.07 170.334C690.26 176.405 686.655 181.185 680.255 184.675C673.922 188.112 666.338 189.241 657.502 188.062C653.054 187.468 649.78 186.786 647.68 186.017C647.212 185.404 647.37 182.152 648.157 176.261C648.951 170.31 649.549 166.75 649.949 165.579C650.202 165.063 651.342 164.542 653.37 164.017C655.398 163.492 657.313 163.35 659.117 163.591C658.17 170.684 658.348 175.082 659.65 176.785C660.171 177.467 661.273 177.92 662.956 178.144C666.803 178.658 670.283 178.021 673.397 176.234C676.571 174.455 678.355 172.093 678.748 169.148C679.013 167.164 678.314 165.297 676.651 163.545C674.988 161.794 672.876 160.197 670.316 158.754C667.823 157.259 665.335 155.733 662.851 154.178C660.374 152.563 658.349 150.549 656.774 148.136C655.2 145.724 654.609 143.045 655.002 140.099C655.588 135.711 658.736 132.063 664.447 129.154C670.226 126.194 678.105 125.379 688.083 126.711C690.427 127.024 691.729 127.351 691.99 127.692C692.026 127.88 691.996 128.335 691.899 129.056C691.811 129.717 691.424 131.012 690.739 132.939C690.053 134.866 689.332 136.147 688.574 136.78ZM729.72 174.208C728.717 181.721 728.222 186.121 728.233 187.408C728.273 190.778 728.978 193.289 730.348 194.94C730.26 195.601 728.925 196.432 726.345 197.434C723.824 198.443 721.602 198.82 719.678 198.563C719.137 198.491 718.674 197.603 718.29 195.9C717.897 194.257 717.693 193.037 717.677 192.239C717.722 191.45 717.714 191.051 717.653 191.043L717.359 191.187C713.836 193.287 709.941 194.051 705.673 193.482C701.405 192.912 698.236 191.449 696.164 189.092C694.161 186.684 693.384 183.796 693.833 180.43C694.282 177.064 695.381 174.335 697.128 172.244C698.944 170.1 700.924 168.559 703.068 167.622C705.212 166.684 707.534 166.016 710.035 165.615C713.862 164.902 716.827 164.686 718.931 164.967L719.124 164.901C719.517 161.956 715.987 159.986 708.533 158.991C705.588 158.598 703.378 158.425 701.903 158.473L701.813 158.461C701.973 157.259 702.534 155.804 703.496 154.097C704.519 152.398 705.306 151.31 705.859 150.833C706.472 150.365 708.672 150.383 712.459 150.888C719.312 151.803 724.184 153.799 727.077 156.877C729.978 159.895 731.064 164.139 730.334 169.609L729.72 174.208ZM718.941 178.642L719.399 175.216C719.575 173.894 719.633 173.228 719.573 173.22C715.546 172.683 711.919 173.269 708.693 174.98C706.653 176.054 705.501 177.583 705.236 179.566C705.068 180.828 705.378 181.941 706.167 182.902C706.957 183.864 708.253 184.466 710.056 184.706C711.92 184.955 713.765 184.651 715.593 183.793C717.48 182.944 718.597 181.227 718.941 178.642ZM750.927 162.08L746.564 198.205C746.252 200.55 745.995 202.014 745.794 202.599C743.286 203.978 740.138 204.414 736.351 203.909L733.886 203.121C735.679 196.569 737.774 184.307 740.173 166.334C740.775 161.826 741.186 158.516 741.407 156.404L737.415 156.055C737.155 155.714 737.181 154.372 737.494 152.027C737.807 149.683 738.27 148.277 738.883 147.808C739.973 147.892 741.153 147.988 742.424 148.097L743.699 137.163C743.708 136.185 746.144 134.889 751.009 133.275C755.875 131.66 759.75 131.046 762.635 131.431C762.996 131.479 763.354 132.23 763.711 133.685C764.135 135.088 764.295 136.18 764.191 136.961C764.095 137.683 764.005 138.129 763.92 138.302C763.74 138.278 762.915 138.504 761.444 138.981C759.981 139.397 758.43 140.016 756.791 140.837C755.16 141.599 754.266 142.336 754.11 143.049C753.661 144.58 753.196 146.69 752.714 149.379L753.075 149.427C757.944 150.076 760.366 150.492 760.342 150.672C759.965 153.497 759.081 155.765 757.69 157.476C757.173 158.141 756.765 158.454 756.464 158.414C754.557 158.037 752.912 157.756 751.529 157.571L750.927 162.08ZM786.157 173.022C786.39 171.279 785.574 170.283 783.711 170.034C781.246 169.705 778.914 170.679 776.714 172.955C774.513 175.231 773.176 178.142 772.703 181.688C772.591 182.53 772.655 182.967 772.895 182.999C775.067 183.227 777.726 182.328 780.872 180.301C784.026 178.213 785.788 175.787 786.157 173.022ZM790.174 202.741C787.946 203.851 783.857 204.009 777.906 203.215C771.955 202.42 767.623 200.037 764.911 196.066C762.198 192.094 761.235 187.163 762.022 181.272C762.816 175.321 765.395 170.435 769.76 166.612C774.192 162.738 779.865 161.262 786.778 162.184C789.603 162.561 792.087 163.658 794.231 165.473C796.435 167.297 797.284 170.102 796.778 173.889C796.281 177.616 794.135 181.092 790.339 184.317C786.604 187.551 781.783 189.752 775.876 190.922C775.779 191.643 776.421 192.34 777.799 193.014C779.246 193.635 780.69 194.042 782.133 194.235C786.701 194.844 790.416 194.514 793.277 193.244C793.346 193.192 793.44 193.174 793.56 193.19C793.68 193.206 793.664 193.785 793.512 194.927C793.046 198.414 791.934 201.018 790.174 202.741ZM818.081 146.356C817.776 147.723 817.121 151.49 816.114 157.657C820.622 158.259 822.864 158.65 822.84 158.83C822.567 160.874 822.022 162.667 821.204 164.21C820.395 165.692 819.719 166.398 819.178 166.325L814.941 165.76C813.633 174.64 812.606 181.875 811.86 187.465C811.122 192.995 810.719 196.704 810.65 198.591C810.594 201.765 811.485 204.484 813.324 206.749C813.236 207.41 811.935 208.215 809.423 209.165C806.97 210.122 804.722 210.465 802.678 210.192C802.498 210.168 802.177 209.819 801.716 209.146C801.316 208.48 800.907 207.416 800.491 205.954C800.134 204.499 799.954 203.098 799.95 201.752C800.006 200.413 800.576 195.687 801.659 187.572C802.742 179.457 803.855 171.805 804.999 164.616L799.937 164.033C799.677 163.692 799.699 162.379 800.004 160.095C800.317 157.751 800.776 156.375 801.381 155.966C802.711 156.082 804.312 156.235 806.184 156.423C806.649 152.937 806.86 150.671 806.816 149.625C806.772 148.579 806.762 147.966 806.786 147.786C806.866 147.184 807.98 146.63 810.128 146.121C812.337 145.62 814.222 145.474 815.785 145.683C817.348 145.892 818.113 146.116 818.081 146.356ZM855.43 185.847L852.319 209.843C851.694 214.531 850.505 218.625 848.753 222.123C847.062 225.629 845.182 228.254 843.114 229.997C841.106 231.748 838.875 233.102 836.423 234.059C832.415 235.666 828.488 236.212 824.641 235.699C824.461 235.675 824.16 235.176 823.74 234.202C823.319 233.228 822.972 231.928 822.7 230.3C822.42 228.734 822.368 227.289 822.544 225.966C824.829 226.271 827.173 226.125 829.577 225.529C831.974 224.992 833.691 224.273 834.729 223.371C835.759 222.53 836.825 221.418 837.928 220.036C840.184 217.339 841.754 212.685 842.636 206.073L842.895 203.446C842.943 203.085 842.907 202.897 842.787 202.881C842.667 202.865 842.534 202.939 842.39 203.103C842.246 203.267 842.063 203.488 841.843 203.764C841.63 203.981 841.115 204.401 840.298 205.026C839.548 205.599 838.747 206.104 837.893 206.541C835.597 207.703 833.367 208.139 831.203 207.85C829.099 207.57 827.452 207.074 826.262 206.365C825.132 205.664 824.202 204.836 823.473 203.882C822.804 202.936 822.299 201.676 821.959 200.101C821.626 198.466 821.398 196.967 821.274 195.605C821.15 194.242 821.18 192.411 821.365 190.11C821.55 186.893 821.871 183.57 822.328 180.144C822.962 175.396 823.72 171.551 824.602 168.609L825.041 167.383C825.097 166.962 826.055 166.662 827.914 166.482C829.834 166.31 831.395 166.304 832.597 166.464L835.422 167.3C833.967 173.163 832.966 178.138 832.421 182.225C831.875 186.313 831.842 189.765 832.323 192.582C832.803 195.4 834.035 196.941 836.019 197.205C838.003 197.47 839.642 197.108 840.936 196.118C842.299 195.076 843.207 194.005 843.66 192.903L844.339 191.25C844.724 187.447 845.206 183.381 845.784 179.053C846.369 174.665 846.832 172.341 847.173 172.081C848.059 171.404 849.491 170.983 851.471 170.819C853.511 170.663 855.132 170.665 856.334 170.826C857.536 170.986 858.125 171.157 858.101 171.337C857.243 174.098 856.353 178.935 855.43 185.847Z" fill="white"/>
<path d="M1133.03 258.873C1133.06 259.061 1133.02 259.636 1132.89 260.598C1132.76 261.56 1132.23 262.988 1131.31 264.883C1130.43 266.847 1129.69 268.033 1129.09 268.442C1128.87 268.718 1127.88 268.8 1126.12 268.688C1120.65 267.958 1115.79 266.514 1111.55 264.358C1107.38 262.209 1104.02 259.65 1101.48 256.68C1098.99 253.779 1096.98 250.482 1095.45 246.791C1092.7 239.938 1091.86 232.485 1092.93 224.43C1093.93 216.916 1097.01 209.924 1102.16 203.453C1104.89 199.902 1108.06 196.837 1111.64 194.257C1115.29 191.685 1119.73 189.8 1124.97 188.602C1130.28 187.353 1135.93 187.129 1141.95 187.931C1148.02 188.742 1153.34 190.339 1157.92 192.724C1162.49 195.109 1166.07 197.851 1168.66 200.949C1171.3 204.055 1173.38 207.514 1174.89 211.325C1177.51 218.282 1178.32 225.487 1177.33 232.941C1176.38 240.034 1173.66 246.461 1169.15 252.223C1166.93 255.108 1164.13 257.304 1160.75 258.81C1157.36 260.377 1153.71 260.899 1149.8 260.378C1146.5 259.936 1143.7 258.431 1141.41 255.862C1139.4 253.514 1138.55 250.25 1138.87 246.07C1138.88 245.95 1138.86 245.886 1138.8 245.878C1138.74 245.87 1138.64 245.918 1138.5 246.022C1134.98 248.121 1131.09 248.886 1126.82 248.316C1122.55 247.747 1119.38 246.284 1117.31 243.927C1115.3 241.578 1114.52 238.721 1114.97 235.355C1115.42 231.989 1116.51 229.26 1118.26 227.168C1120.08 225.025 1122.06 223.484 1124.2 222.547C1126.41 221.617 1128.73 220.918 1131.18 220.45C1134.95 219.729 1137.94 219.517 1140.17 219.814L1140.27 219.736C1140.66 216.79 1137.13 214.82 1129.68 213.825C1126.73 213.432 1124.52 213.26 1123.05 213.308L1122.96 213.296C1123.12 212.093 1123.71 210.643 1124.73 208.944C1125.76 207.185 1126.62 206.045 1127.3 205.524C1127.32 205.344 1128.07 205.29 1129.52 205.362C1130.98 205.434 1132.34 205.555 1133.61 205.723C1140.52 206.646 1145.42 208.676 1148.3 211.814C1151.19 214.892 1152.26 219.256 1151.51 224.907L1151.11 227.239C1150.44 231.799 1149.9 235.582 1149.5 238.588C1149.1 241.593 1148.88 243.705 1148.84 244.923C1148.78 248.586 1150.25 250.618 1153.26 251.019C1155.3 251.292 1157.17 250.807 1158.86 249.565C1160.62 248.331 1162.04 246.624 1163.13 244.444C1165.15 240.249 1166.43 236.198 1166.95 232.29C1168.36 221.771 1166.55 213.486 1161.55 207.434C1156.61 201.33 1149.7 197.684 1140.8 196.497C1135.09 195.735 1129.6 196.317 1124.33 198.244C1119.05 200.171 1114.47 203.536 1110.59 208.341C1106.7 213.145 1104.3 219.004 1103.38 225.916C1102.13 235.293 1104.2 243.156 1109.59 249.504C1111.5 251.717 1114.05 253.649 1117.26 255.3C1120.47 256.951 1123.63 257.986 1126.76 258.403C1129.88 258.82 1131.97 258.977 1133.03 258.873ZM1126.38 234.401C1126.21 235.663 1126.52 236.775 1127.31 237.737C1128.1 238.699 1129.22 239.276 1130.66 239.469C1132.16 239.669 1133.45 239.687 1134.51 239.523C1135.63 239.367 1136.78 238.786 1137.95 237.781C1139.13 236.775 1139.83 235.37 1140.08 233.567L1140.53 230.141C1140.71 228.818 1140.77 228.153 1140.71 228.145C1138.3 227.824 1135.97 227.91 1133.7 228.403C1129.21 229.456 1126.78 231.455 1126.38 234.401ZM1217.21 228.629C1224.4 228.915 1229.82 227.956 1233.47 225.752C1237.2 223.496 1239.24 221.076 1239.58 218.491C1239.94 215.847 1238.9 213.751 1236.48 212.203C1234.06 210.596 1230.87 209.528 1226.9 208.998C1224.8 208.717 1222.64 208.613 1220.43 208.685C1219.72 211.221 1218.65 217.869 1217.21 228.629ZM1214.05 259.868C1213.3 260.441 1211.91 260.775 1209.88 260.871C1207.84 261.027 1206.16 261.017 1204.84 260.841C1203.52 260.664 1202.4 260.331 1201.49 259.842L1208.97 207.89C1208.32 206.824 1207.75 205.127 1207.26 202.798C1206.84 200.478 1206.66 199.077 1206.72 198.596C1206.8 198.055 1206.9 197.733 1207.04 197.629C1207.18 197.464 1209.1 197.537 1212.79 197.846C1216.55 198.103 1220.32 198.484 1224.11 198.99C1227.89 199.495 1231.23 200.155 1234.12 200.968C1237.01 201.782 1239.98 202.943 1243.02 204.45C1246.07 205.897 1248.37 207.887 1249.93 210.42C1251.49 212.953 1252.03 216.023 1251.54 219.629C1251.07 223.176 1249.37 226.313 1246.43 229.042C1243.5 231.77 1239.73 233.898 1235.12 235.424C1234.99 236.386 1236.31 240.966 1239.07 249.166C1241.84 257.305 1244.18 262.635 1246.11 265.156C1246.16 265.224 1246.18 265.318 1246.16 265.439C1246.14 265.619 1245.62 265.855 1244.6 266.148C1241.79 267.057 1238.85 267.307 1235.78 266.898L1233.55 266.417C1232.41 264.918 1230.68 260.221 1228.37 252.326C1226.12 244.439 1224.92 239.63 1224.79 237.899C1224.01 238.224 1221.07 238.474 1215.97 238.649C1214.48 250.747 1213.84 257.82 1214.05 259.868ZM1274.47 263.893L1274.63 261.988L1274.56 261.796C1272.82 263.827 1270.75 265.356 1268.35 266.381C1266.01 267.415 1263.79 267.791 1261.69 267.51C1255.37 266.668 1252.42 261.288 1252.83 251.369C1252.92 249.791 1253.39 245.755 1254.26 239.263C1255.13 232.772 1255.91 228.961 1256.61 227.831C1258.34 226.777 1260.95 226.483 1264.44 226.948C1265.82 227.133 1266.64 227.395 1266.9 227.736C1266.9 227.796 1266.76 228.603 1266.49 230.158C1265.58 234.687 1264.96 238.183 1264.63 240.647C1264.3 243.112 1264.09 244.949 1263.99 246.159C1263.89 247.309 1263.82 248.065 1263.77 248.426C1263.79 248.734 1263.81 249.317 1263.82 250.175C1263.88 251.04 1264.03 251.794 1264.25 252.435C1264.92 254.298 1266.18 255.355 1268.05 255.603C1269.97 255.86 1271.78 255.153 1273.47 253.482C1275.23 251.759 1276.13 250.503 1276.18 249.714L1276.58 246.648C1278.05 235.648 1279.02 229.751 1279.5 228.958C1279.87 228.457 1280.88 228.01 1282.52 227.618C1284.22 227.233 1285.86 227.145 1287.42 227.354C1288.98 227.563 1289.87 227.803 1290.08 228.076L1289.33 232.289C1287.82 240.837 1286.75 247.455 1286.13 252.143C1285.5 256.832 1285.23 259.823 1285.3 261.118C1285.32 264.179 1285.81 266.692 1286.77 268.656C1286.69 269.257 1285.33 270.054 1282.69 271.048C1280.05 272.041 1277.86 272.422 1276.11 272.189C1275.63 272.125 1275.21 271.151 1274.85 269.267C1274.49 267.384 1274.36 265.593 1274.47 263.893ZM1312.37 212.33C1312.06 213.697 1311.41 217.463 1310.4 223.631C1314.91 224.232 1317.15 224.623 1317.13 224.804C1316.86 226.847 1316.31 228.641 1315.49 230.183C1314.68 231.666 1314.01 232.371 1313.47 232.299L1309.23 231.733C1307.92 240.614 1306.89 247.849 1306.15 253.439C1305.41 258.969 1305.01 262.678 1304.94 264.565C1304.88 267.739 1305.77 270.458 1307.61 272.722C1307.52 273.384 1306.22 274.189 1303.71 275.138C1301.26 276.096 1299.01 276.438 1296.97 276.165C1296.79 276.141 1296.47 275.793 1296.01 275.119C1295.6 274.454 1295.2 273.39 1294.78 271.927C1294.42 270.473 1294.24 269.072 1294.24 267.725C1294.3 266.387 1294.86 261.66 1295.95 253.546C1297.03 245.431 1298.14 237.779 1299.29 230.59L1294.23 230.006C1293.97 229.665 1293.99 228.353 1294.29 226.069C1294.61 223.725 1295.06 222.348 1295.67 221.94C1297 222.056 1298.6 222.208 1300.47 222.397C1300.94 218.911 1301.15 216.645 1301.1 215.599C1301.06 214.553 1301.05 213.94 1301.07 213.759C1301.15 213.158 1302.27 212.603 1304.42 212.095C1306.63 211.594 1308.51 211.448 1310.07 211.657C1311.64 211.865 1312.4 212.09 1312.37 212.33ZM1352.92 258.764C1352.16 264.474 1349.75 269.201 1345.71 272.943C1341.73 276.633 1336.76 278.081 1330.81 277.287C1324.92 276.501 1320.54 274.05 1317.66 269.934C1314.78 265.818 1313.73 260.845 1314.51 255.014C1315.3 249.123 1318.07 244.201 1322.82 240.246C1327.63 236.239 1333.59 234.709 1340.68 235.656C1343.55 236.161 1345.09 236.55 1345.3 236.823C1345.51 237.095 1345.55 237.682 1345.43 238.584C1345.31 239.486 1345.09 240.465 1344.76 241.523C1345.66 241.644 1346.73 242.337 1347.97 243.603C1349.28 244.818 1350.31 246.026 1351.07 247.229C1351.82 248.431 1352.4 250.068 1352.8 252.14C1353.2 254.152 1353.24 256.36 1352.92 258.764ZM1340.6 250.696C1339.34 249.609 1338.05 248.978 1336.72 248.802L1336 248.705C1335.91 248.449 1335.92 247.93 1336.03 247.148C1336.13 246.367 1336.32 245.628 1336.6 244.93C1334.13 244.601 1331.67 245.405 1329.21 247.34C1326.81 249.283 1325.34 252.238 1324.81 256.206C1324.19 260.894 1325.26 264.341 1328.02 266.545C1329.07 267.419 1330.58 267.988 1332.57 268.253C1334.61 268.525 1336.63 267.847 1338.62 266.216C1340.67 264.593 1341.94 261.948 1342.43 258.282C1342.92 254.615 1342.31 252.086 1340.6 250.696ZM1359.37 265.682L1364.09 233.091C1364.73 228.342 1365.09 225.118 1365.2 223.419C1365.3 221.72 1365.36 220.81 1365.38 220.69C1365.46 220.089 1366.54 219.53 1368.63 219.014C1370.78 218.505 1372.64 218.355 1374.2 218.563C1375.76 218.772 1376.53 218.997 1376.49 219.237C1375.9 221.421 1374.7 229.215 1372.91 242.62L1369.79 264.686C1369.23 268.833 1368.95 271.396 1368.94 272.374C1368.89 275.059 1369.44 277.579 1370.6 279.936C1370.52 280.537 1369.15 281.334 1366.51 282.328C1363.87 283.321 1361.68 283.702 1359.94 283.469C1359.46 283.405 1359.04 282.431 1358.68 280.547C1358.31 278.664 1358.16 277.053 1358.22 275.714C1358.28 274.376 1358.66 271.032 1359.37 265.682ZM1402.4 255.273C1402.63 253.529 1401.81 252.534 1399.95 252.285C1397.49 251.956 1395.15 252.929 1392.95 255.205C1390.75 257.481 1389.42 260.392 1388.94 263.939C1388.83 264.78 1388.89 265.217 1389.13 265.249C1391.31 265.478 1393.97 264.579 1397.11 262.551C1400.27 260.464 1402.03 258.038 1402.4 255.273ZM1406.41 284.992C1404.19 286.102 1400.1 286.259 1394.14 285.465C1388.19 284.671 1383.86 282.288 1381.15 278.316C1378.44 274.344 1377.47 269.413 1378.26 263.523C1379.05 257.572 1381.63 252.685 1386 248.863C1390.43 244.988 1396.1 243.512 1403.02 244.435C1405.84 244.812 1408.33 245.908 1410.47 247.724C1412.67 249.548 1413.52 252.353 1413.02 256.14C1412.52 259.866 1410.37 263.343 1406.58 266.568C1402.84 269.801 1398.02 272.003 1392.11 273.172C1392.02 273.893 1392.66 274.591 1394.04 275.264C1395.48 275.886 1396.93 276.293 1398.37 276.485C1402.94 277.095 1406.66 276.765 1409.52 275.495C1409.58 275.443 1409.68 275.425 1409.8 275.441C1409.92 275.457 1409.9 276.036 1409.75 277.178C1409.29 280.664 1408.17 283.269 1406.41 284.992Z" fill="white"/>
<path d="M557.472 161.82C554.841 181.531 536.73 195.377 517.019 192.746C497.308 190.115 483.461 172.003 486.092 152.292C488.723 132.581 506.835 118.735 526.546 121.366C546.257 123.997 560.103 142.109 557.472 161.82Z" stroke="#B9C628" stroke-width="3.79015"/>
<path d="M561.483 131.766C558.852 151.477 540.741 165.323 521.03 162.692C501.319 160.061 487.473 141.95 490.103 122.239C492.734 102.528 510.846 88.6814 530.557 91.3122C550.268 93.9431 564.114 112.055 561.483 131.766Z" stroke="#B9C628" stroke-width="3.79015"/>
<path d="M518.522 181.477C540.308 184.385 560.327 169.081 563.234 147.296C566.142 125.51 550.838 105.491 529.053 102.584C507.267 99.6759 487.248 114.98 484.341 136.765C481.433 158.551 496.737 178.57 518.522 181.477Z" fill="#181FC6" stroke="white" stroke-width="3.79015"/>
<rect x="40.1631" y="41.15" width="64.4326" height="72.0129" rx="15.1606" transform="rotate(7.6024 40.1631 41.15)" fill="#B9C628"/>
<path d="M1021.57 208.467C1018.94 228.178 1000.83 242.024 981.116 239.393C961.405 236.762 947.558 218.651 950.189 198.94C952.82 179.229 970.932 165.383 990.643 168.013C1010.35 170.644 1024.2 188.756 1021.57 208.467Z" stroke="#9747FF" stroke-width="3.79015"/>
</g>
<defs>
<clipPath id="clip0_228_790">
<rect width="1573.88" height="346.915" fill="white" transform="translate(-26.4728)"/>
</clipPath>
</defs>
</svg>
