<svg width="33" height="33" viewBox="0 0 33 33" fill="none" xmlns="http://www.w3.org/2000/svg">
<circle cx="16.266" cy="16.266" r="16.266" fill="#D85912" fill-opacity="0.15"/>
<path d="M24.3993 19.5326L19.066 9.93265C18.3493 8.64098 17.3576 7.93265 16.266 7.93265C15.1743 7.93265 14.1826 8.64098 13.466 9.93265L8.13264 19.5326C7.45764 20.7576 7.38264 21.9326 7.92431 22.8576C8.46597 23.7826 9.53264 24.291 10.9326 24.291H21.5993C22.9993 24.291 24.066 23.7826 24.6076 22.8576C25.1493 21.9326 25.0743 20.7493 24.3993 19.5326ZM15.641 13.766C15.641 13.4243 15.9243 13.141 16.266 13.141C16.6076 13.141 16.891 13.4243 16.891 13.766V17.9326C16.891 18.2743 16.6076 18.5576 16.266 18.5576C15.9243 18.5576 15.641 18.2743 15.641 17.9326V13.766ZM16.8576 21.0243C16.816 21.0576 16.7743 21.091 16.7326 21.1243C16.6826 21.1576 16.6326 21.1826 16.5826 21.1993C16.5326 21.2243 16.4826 21.241 16.4243 21.2493C16.3743 21.2576 16.316 21.266 16.266 21.266C16.216 21.266 16.1576 21.2576 16.0993 21.2493C16.0493 21.241 15.9993 21.2243 15.9493 21.1993C15.8993 21.1826 15.8493 21.1576 15.7993 21.1243C15.7576 21.091 15.716 21.0576 15.6743 21.0243C15.5243 20.866 15.4326 20.6493 15.4326 20.4326C15.4326 20.216 15.5243 19.9993 15.6743 19.841C15.716 19.8076 15.7576 19.7743 15.7993 19.741C15.8493 19.7076 15.8993 19.6826 15.9493 19.666C15.9993 19.641 16.0493 19.6243 16.0993 19.616C16.2076 19.591 16.3243 19.591 16.4243 19.616C16.4826 19.6243 16.5326 19.641 16.5826 19.666C16.6326 19.6826 16.6826 19.7076 16.7326 19.741C16.7743 19.7743 16.816 19.8076 16.8576 19.841C17.0076 19.9993 17.0993 20.216 17.0993 20.4326C17.0993 20.6493 17.0076 20.866 16.8576 21.0243Z" fill="#D85912"/>
</svg>
