<svg width="432" height="420" viewBox="0 0 432 420" fill="none" xmlns="http://www.w3.org/2000/svg">
<rect x="0.5" y="0.5" width="373" height="419" rx="11.5" fill="white" stroke="#110F0F"/>
<rect x="20.5" y="96.5" width="333" height="166.659" rx="11.5" fill="white" stroke="#110F0F"/>
<rect x="20.5" y="314.5" width="333" height="83" rx="11.5" fill="white" stroke="#110F0F"/>
<g filter="url(#filter0_d_554_975)">
<rect x="296" y="331" width="116" height="44" rx="22" fill="#110F0F" shape-rendering="crispEdges"/>
<path d="M329.67 359.67L331.89 358.56V355.78M325.22 350.78L323 351.89L325.22 350.78ZM323 351.89L320.78 350.78L323 351.89ZM323 351.89V354.67V351.89ZM331.89 347.44L329.67 348.55L331.89 347.44ZM331.89 347.44L329.67 346.33L331.89 347.44ZM331.89 347.44V350.22V347.44ZM325.22 344.11L323 343L320.78 344.11H325.22ZM314.11 347.44L316.33 346.33L314.11 347.44ZM314.11 347.44L316.33 348.55L314.11 347.44ZM314.11 347.44V350.22V347.44ZM323 363L320.78 361.89L323 363ZM323 363L325.22 361.89L323 363ZM323 363V360.22V363ZM316.33 359.67L314.11 358.56V355.78L316.33 359.67Z" stroke="white" stroke-width="1.5" stroke-linecap="round" stroke-linejoin="round"/>
<path d="M348.33 353.235H351.57L351.405 352.725C351.025 351.545 350.715 350.57 350.475 349.8C350.235 349.02 350.09 348.535 350.04 348.345L349.965 348.06C349.855 348.53 349.365 350.085 348.495 352.725L348.33 353.235ZM352.785 357L351.99 354.525H347.91L347.1 357H345.465L348.96 346.89H350.985L354.435 357H352.785ZM357.407 349.395V350.73C357.777 349.79 358.442 349.32 359.402 349.32C359.542 349.32 359.697 349.335 359.867 349.365V350.805C359.657 350.715 359.422 350.67 359.162 350.67C358.652 350.67 358.232 350.895 357.902 351.345C357.572 351.795 357.407 352.33 357.407 352.95V357H355.937V349.395H357.407ZM372.872 346.89L369.377 357H367.547L364.142 346.89H365.792L367.082 350.91C367.362 351.77 367.617 352.595 367.847 353.385C368.077 354.165 368.237 354.73 368.327 355.08L368.477 355.62C368.797 354.42 369.277 352.85 369.917 350.91L371.222 346.89H372.872ZM374.41 357V349.395H375.895V357H374.41ZM374.485 347.73C374.315 347.55 374.23 347.33 374.23 347.07C374.23 346.81 374.315 346.59 374.485 346.41C374.665 346.23 374.885 346.14 375.145 346.14C375.405 346.14 375.625 346.23 375.805 346.41C375.985 346.59 376.075 346.81 376.075 347.07C376.075 347.32 375.985 347.535 375.805 347.715C375.625 347.895 375.405 347.985 375.145 347.985C374.885 347.985 374.665 347.9 374.485 347.73ZM382.752 352.65V352.38C382.732 351.81 382.577 351.36 382.287 351.03C381.997 350.69 381.582 350.52 381.042 350.52C380.542 350.52 380.112 350.705 379.752 351.075C379.392 351.435 379.167 351.96 379.077 352.65H382.752ZM383.697 355.275V356.595C383.137 356.915 382.397 357.075 381.477 357.075C380.297 357.075 379.357 356.72 378.657 356.01C377.957 355.3 377.607 354.37 377.607 353.22C377.607 352 377.927 351.045 378.567 350.355C379.207 349.655 380.022 349.305 381.012 349.305C381.982 349.305 382.752 349.61 383.322 350.22C383.892 350.82 384.177 351.69 384.177 352.83C384.177 353.14 384.147 353.465 384.087 353.805H379.092C379.192 354.465 379.472 354.97 379.932 355.32C380.392 355.67 380.972 355.845 381.672 355.845C382.482 355.845 383.157 355.655 383.697 355.275ZM387.543 357L385.158 349.395H386.718L387.423 351.915C387.653 352.715 387.848 353.42 388.008 354.03C388.168 354.64 388.268 355.05 388.308 355.26L388.368 355.575C388.498 354.945 388.828 353.72 389.358 351.9L390.093 349.395H391.518L392.268 351.9C392.508 352.73 392.713 353.455 392.883 354.075C393.053 354.685 393.163 355.09 393.213 355.29L393.273 355.59C393.393 355 393.733 353.77 394.293 351.9L395.043 349.395H396.528L394.113 357H392.433L391.728 354.51C391.518 353.75 391.333 353.08 391.173 352.5C391.023 351.91 390.923 351.51 390.873 351.3L390.813 351C390.673 351.65 390.368 352.82 389.898 354.51L389.208 357H387.543Z" fill="white"/>
</g>
<path d="M27.38 55.38V59.256H27.368L27.38 59.34C26.684 59.844 25.812 60.096 24.764 60.096C23.5 60.096 22.48 59.724 21.704 58.98C20.936 58.236 20.552 57.224 20.552 55.944C20.552 54.704 20.94 53.7 21.716 52.932C22.5 52.156 23.492 51.768 24.692 51.768C25.628 51.768 26.412 51.948 27.044 52.308V53.58C26.356 53.148 25.588 52.932 24.74 52.932C23.876 52.932 23.176 53.208 22.64 53.76C22.112 54.312 21.848 55.04 21.848 55.944C21.848 56.872 22.108 57.604 22.628 58.14C23.156 58.676 23.88 58.944 24.8 58.944C25.28 58.944 25.736 58.856 26.168 58.68V56.448H24.524V55.38H27.38ZM30.172 53.916V54.984C30.468 54.232 31 53.856 31.768 53.856C31.88 53.856 32.004 53.868 32.14 53.892V55.044C31.972 54.972 31.784 54.936 31.576 54.936C31.168 54.936 30.832 55.116 30.568 55.476C30.304 55.836 30.172 56.264 30.172 56.76V60H28.996V53.916H30.172ZM36.8424 56.52V56.304C36.8264 55.848 36.7024 55.488 36.4704 55.224C36.2384 54.952 35.9064 54.816 35.4744 54.816C35.0744 54.816 34.7304 54.964 34.4424 55.26C34.1544 55.548 33.9744 55.968 33.9024 56.52H36.8424ZM37.5984 58.62V59.676C37.1504 59.932 36.5584 60.06 35.8224 60.06C34.8784 60.06 34.1264 59.776 33.5664 59.208C33.0064 58.64 32.7264 57.896 32.7264 56.976C32.7264 56 32.9824 55.236 33.4944 54.684C34.0064 54.124 34.6584 53.844 35.4504 53.844C36.2264 53.844 36.8424 54.088 37.2984 54.576C37.7544 55.056 37.9824 55.752 37.9824 56.664C37.9824 56.912 37.9584 57.172 37.9104 57.444H33.9144C33.9944 57.972 34.2184 58.376 34.5864 58.656C34.9544 58.936 35.4184 59.076 35.9784 59.076C36.6264 59.076 37.1664 58.924 37.5984 58.62ZM43.1471 56.52V56.304C43.1311 55.848 43.0071 55.488 42.7751 55.224C42.5431 54.952 42.2111 54.816 41.7791 54.816C41.3791 54.816 41.0351 54.964 40.7471 55.26C40.4591 55.548 40.2791 55.968 40.2071 56.52H43.1471ZM43.9031 58.62V59.676C43.4551 59.932 42.8631 60.06 42.1271 60.06C41.1831 60.06 40.4311 59.776 39.8711 59.208C39.3111 58.64 39.0311 57.896 39.0311 56.976C39.0311 56 39.2871 55.236 39.7991 54.684C40.3111 54.124 40.9631 53.844 41.7551 53.844C42.5311 53.844 43.1471 54.088 43.6031 54.576C44.0591 55.056 44.2871 55.752 44.2871 56.664C44.2871 56.912 44.2631 57.172 44.2151 57.444H40.2191C40.2991 57.972 40.5231 58.376 40.8911 58.656C41.2591 58.936 41.7231 59.076 42.2831 59.076C42.9311 59.076 43.4711 58.924 43.9031 58.62ZM46.8478 53.916V54.96C47.2078 54.208 47.8398 53.832 48.7438 53.832C49.3438 53.832 49.8198 54.016 50.1718 54.384C50.5238 54.752 50.6998 55.252 50.6998 55.884V60H49.5238V56.16C49.5238 55.736 49.4158 55.412 49.1998 55.188C48.9918 54.964 48.7118 54.852 48.3598 54.852C47.9438 54.852 47.5878 55.016 47.2918 55.344C46.9958 55.664 46.8478 56.116 46.8478 56.7V60H45.6718V53.916H46.8478ZM53.4571 51.516V54.96C53.8011 54.208 54.4291 53.832 55.3411 53.832C55.9331 53.832 56.4091 54.016 56.7691 54.384C57.1291 54.752 57.3091 55.264 57.3091 55.92V60H56.1331V56.16C56.1331 55.744 56.0251 55.424 55.8091 55.2C55.6011 54.968 55.3251 54.852 54.9811 54.852C54.5811 54.852 54.2251 55.004 53.9131 55.308C53.6091 55.612 53.4571 56.076 53.4571 56.7V60H52.2811V51.516H53.4571ZM61.4345 60.108C60.5385 60.108 59.8345 59.816 59.3225 59.232C58.8105 58.648 58.5545 57.908 58.5545 57.012C58.5545 56.1 58.8185 55.344 59.3465 54.744C59.8745 54.136 60.5705 53.832 61.4345 53.832C62.3625 53.832 63.0785 54.128 63.5825 54.72C64.0865 55.304 64.3385 56.052 64.3385 56.964C64.3385 57.876 64.0785 58.628 63.5585 59.22C63.0465 59.812 62.3385 60.108 61.4345 60.108ZM61.4225 54.828C60.9025 54.828 60.4985 55.036 60.2105 55.452C59.9225 55.86 59.7785 56.368 59.7785 56.976C59.7785 57.576 59.9265 58.084 60.2225 58.5C60.5185 58.908 60.9225 59.112 61.4345 59.112C61.9785 59.112 62.3905 58.912 62.6705 58.512C62.9585 58.112 63.1025 57.604 63.1025 56.988C63.1025 56.356 62.9665 55.84 62.6945 55.44C62.4225 55.032 61.9985 54.828 61.4225 54.828ZM69.4439 53.916H70.6199V60H69.4439V58.956C69.1239 59.7 68.4919 60.072 67.5479 60.072C66.9479 60.072 66.4719 59.896 66.1199 59.544C65.7679 59.184 65.5919 58.692 65.5919 58.068V53.916H66.7799V57.78C66.7799 58.196 66.8799 58.516 67.0799 58.74C67.2879 58.956 67.5719 59.064 67.9319 59.064C68.3879 59.064 68.7519 58.904 69.0239 58.584C69.3039 58.264 69.4439 57.812 69.4439 57.228V53.916ZM75.7413 54.12V55.188C75.3493 54.956 74.8453 54.84 74.2293 54.84C73.9493 54.84 73.7253 54.904 73.5573 55.032C73.3973 55.16 73.3173 55.328 73.3173 55.536C73.3173 55.592 73.3213 55.648 73.3293 55.704C73.3453 55.752 73.3693 55.804 73.4013 55.86C73.4333 55.908 73.4613 55.952 73.4853 55.992C73.5173 56.024 73.5653 56.06 73.6293 56.1C73.6933 56.14 73.7413 56.176 73.7733 56.208C73.8133 56.232 73.8733 56.264 73.9533 56.304C74.0413 56.344 74.1053 56.376 74.1453 56.4C74.1853 56.416 74.2533 56.448 74.3493 56.496C74.4533 56.536 74.5253 56.564 74.5653 56.58C75.0373 56.788 75.4053 57.024 75.6693 57.288C75.9413 57.544 76.0773 57.888 76.0773 58.32C76.0773 58.864 75.8853 59.292 75.5013 59.604C75.1173 59.908 74.5973 60.06 73.9413 60.06C73.2213 60.06 72.6213 59.94 72.1413 59.7V58.584C72.7013 58.928 73.2813 59.1 73.8813 59.1C74.1933 59.1 74.4333 59.036 74.6013 58.908C74.7773 58.78 74.8653 58.612 74.8653 58.404C74.8653 58.228 74.7973 58.072 74.6613 57.936C74.5253 57.792 74.3853 57.688 74.2413 57.624C74.1053 57.552 73.8693 57.444 73.5333 57.3C72.5813 56.908 72.1053 56.332 72.1053 55.572C72.1053 55.036 72.3053 54.616 72.7053 54.312C73.1053 54.008 73.6053 53.856 74.2053 53.856C74.8613 53.856 75.3733 53.944 75.7413 54.12ZM81.0807 56.52V56.304C81.0647 55.848 80.9407 55.488 80.7087 55.224C80.4767 54.952 80.1447 54.816 79.7127 54.816C79.3127 54.816 78.9687 54.964 78.6807 55.26C78.3927 55.548 78.2127 55.968 78.1407 56.52H81.0807ZM81.8367 58.62V59.676C81.3887 59.932 80.7967 60.06 80.0607 60.06C79.1167 60.06 78.3647 59.776 77.8047 59.208C77.2447 58.64 76.9647 57.896 76.9647 56.976C76.9647 56 77.2207 55.236 77.7327 54.684C78.2447 54.124 78.8967 53.844 79.6887 53.844C80.4647 53.844 81.0807 54.088 81.5367 54.576C81.9927 55.056 82.2207 55.752 82.2207 56.664C82.2207 56.912 82.1967 57.172 82.1487 57.444H78.1527C78.2327 57.972 78.4567 58.376 78.8247 58.656C79.1927 58.936 79.6567 59.076 80.2167 59.076C80.8647 59.076 81.4047 58.924 81.8367 58.62ZM86.3665 57.3V56.292H89.2945V57.3H86.3665ZM94.9909 58.908H98.3029V60H93.7549V51.912H94.9909V58.908ZM103.253 56.52V56.304C103.237 55.848 103.113 55.488 102.881 55.224C102.649 54.952 102.317 54.816 101.885 54.816C101.485 54.816 101.141 54.964 100.853 55.26C100.565 55.548 100.385 55.968 100.313 56.52H103.253ZM104.009 58.62V59.676C103.561 59.932 102.969 60.06 102.233 60.06C101.289 60.06 100.537 59.776 99.9765 59.208C99.4165 58.64 99.1365 57.896 99.1365 56.976C99.1365 56 99.3925 55.236 99.9045 54.684C100.417 54.124 101.069 53.844 101.861 53.844C102.637 53.844 103.253 54.088 103.709 54.576C104.165 55.056 104.393 55.752 104.393 56.664C104.393 56.912 104.369 57.172 104.321 57.444H100.325C100.405 57.972 100.629 58.376 100.997 58.656C101.365 58.936 101.829 59.076 102.389 59.076C103.037 59.076 103.577 58.924 104.009 58.62ZM105.777 60V51.6H106.953V60H105.777ZM108.357 56.82L110.745 60H109.341L107.001 56.82L109.293 53.916H110.673L108.357 56.82ZM111.777 60V51.6H112.953V60H111.777ZM114.357 56.82L116.745 60H115.341L113.001 56.82L115.293 53.916H116.673L114.357 56.82ZM117.825 60V53.916H119.013V60H117.825ZM117.885 52.584C117.749 52.44 117.681 52.264 117.681 52.056C117.681 51.848 117.749 51.672 117.885 51.528C118.029 51.384 118.205 51.312 118.413 51.312C118.621 51.312 118.797 51.384 118.941 51.528C119.085 51.672 119.157 51.848 119.157 52.056C119.157 52.256 119.085 52.428 118.941 52.572C118.797 52.716 118.621 52.788 118.413 52.788C118.205 52.788 118.029 52.72 117.885 52.584Z" fill="#110F0F"/>
<path d="M35.4443 333.988H38.0363L37.9043 333.58C37.6003 332.636 37.3523 331.856 37.1603 331.24C36.9683 330.616 36.8523 330.228 36.8123 330.076L36.7523 329.848C36.6643 330.224 36.2723 331.468 35.5763 333.58L35.4443 333.988ZM39.0083 337L38.3723 335.02H35.1083L34.4603 337H33.1523L35.9483 328.912H37.5683L40.3283 337H39.0083ZM41.5301 337V328.6H42.7061V337H41.5301ZM44.1101 333.82L46.4981 337H45.0941L42.7541 333.82L45.0461 330.916H46.4261L44.1101 333.82ZM51.3101 333.52V333.304C51.2941 332.848 51.1701 332.488 50.9381 332.224C50.7061 331.952 50.3741 331.816 49.9421 331.816C49.5421 331.816 49.1981 331.964 48.9101 332.26C48.6221 332.548 48.4421 332.968 48.3701 333.52H51.3101ZM52.0661 335.62V336.676C51.6181 336.932 51.0261 337.06 50.2901 337.06C49.3461 337.06 48.5941 336.776 48.0341 336.208C47.4741 335.64 47.1941 334.896 47.1941 333.976C47.1941 333 47.4501 332.236 47.9621 331.684C48.4741 331.124 49.1261 330.844 49.9181 330.844C50.6941 330.844 51.3101 331.088 51.7661 331.576C52.2221 332.056 52.4501 332.752 52.4501 333.664C52.4501 333.912 52.4261 334.172 52.3781 334.444H48.3821C48.4621 334.972 48.6861 335.376 49.0541 335.656C49.4221 335.936 49.8861 336.076 50.4461 336.076C51.0941 336.076 51.6341 335.924 52.0661 335.62ZM57.3028 331.12V332.188C56.9108 331.956 56.4068 331.84 55.7908 331.84C55.5108 331.84 55.2868 331.904 55.1188 332.032C54.9588 332.16 54.8788 332.328 54.8788 332.536C54.8788 332.592 54.8828 332.648 54.8908 332.704C54.9068 332.752 54.9308 332.804 54.9628 332.86C54.9948 332.908 55.0228 332.952 55.0468 332.992C55.0788 333.024 55.1268 333.06 55.1908 333.1C55.2548 333.14 55.3028 333.176 55.3348 333.208C55.3748 333.232 55.4348 333.264 55.5148 333.304C55.6028 333.344 55.6668 333.376 55.7068 333.4C55.7468 333.416 55.8148 333.448 55.9108 333.496C56.0148 333.536 56.0868 333.564 56.1268 333.58C56.5988 333.788 56.9668 334.024 57.2308 334.288C57.5028 334.544 57.6388 334.888 57.6388 335.32C57.6388 335.864 57.4468 336.292 57.0628 336.604C56.6788 336.908 56.1588 337.06 55.5028 337.06C54.7828 337.06 54.1828 336.94 53.7028 336.7V335.584C54.2628 335.928 54.8428 336.1 55.4428 336.1C55.7548 336.1 55.9948 336.036 56.1628 335.908C56.3388 335.78 56.4268 335.612 56.4268 335.404C56.4268 335.228 56.3588 335.072 56.2228 334.936C56.0868 334.792 55.9468 334.688 55.8028 334.624C55.6668 334.552 55.4308 334.444 55.0948 334.3C54.1428 333.908 53.6668 333.332 53.6668 332.572C53.6668 332.036 53.8668 331.616 54.2668 331.312C54.6668 331.008 55.1668 330.856 55.7668 330.856C56.4228 330.856 56.9348 330.944 57.3028 331.12ZM62.0662 334.288H61.1542C60.7062 334.288 60.3662 334.376 60.1342 334.552C59.9102 334.728 59.7982 334.952 59.7982 335.224C59.7982 335.504 59.8862 335.724 60.0622 335.884C60.2382 336.044 60.4942 336.124 60.8302 336.124C61.2142 336.124 61.5142 336.02 61.7302 335.812C61.9542 335.596 62.0662 335.316 62.0662 334.972V334.288ZM59.0062 332.368V331.228C59.4782 330.956 60.1022 330.82 60.8782 330.82C62.4702 330.82 63.2662 331.592 63.2662 333.136V337H62.1022V336.28C61.7902 336.792 61.2422 337.048 60.4582 337.048C59.8822 337.048 59.4182 336.884 59.0662 336.556C58.7222 336.22 58.5502 335.796 58.5502 335.284C58.5502 334.7 58.7702 334.248 59.2102 333.928C59.6502 333.6 60.2662 333.436 61.0582 333.436H62.0662V333.088C62.0662 332.672 61.9662 332.36 61.7662 332.152C61.5662 331.936 61.2342 331.828 60.7702 331.828C60.1222 331.828 59.5342 332.008 59.0062 332.368ZM66.0265 330.916V331.96C66.3865 331.208 67.0185 330.832 67.9225 330.832C68.5225 330.832 68.9985 331.016 69.3505 331.384C69.7025 331.752 69.8785 332.252 69.8785 332.884V337H68.7025V333.16C68.7025 332.736 68.5945 332.412 68.3785 332.188C68.1705 331.964 67.8905 331.852 67.5385 331.852C67.1225 331.852 66.7665 332.016 66.4705 332.344C66.1745 332.664 66.0265 333.116 66.0265 333.7V337H64.8505V330.916H66.0265ZM74.221 334.3V333.292H77.149V334.3H74.221ZM81.7054 337V328.912H82.9294V337H81.7054ZM84.7255 337V328.6H85.9015V337H84.7255ZM87.3055 333.82L89.6935 337H88.2895L85.9495 333.82L88.2415 330.916H89.6215L87.3055 333.82ZM94.5055 333.52V333.304C94.4895 332.848 94.3655 332.488 94.1335 332.224C93.9015 331.952 93.5695 331.816 93.1375 331.816C92.7375 331.816 92.3935 331.964 92.1055 332.26C91.8175 332.548 91.6375 332.968 91.5655 333.52H94.5055ZM95.2615 335.62V336.676C94.8135 336.932 94.2215 337.06 93.4855 337.06C92.5415 337.06 91.7895 336.776 91.2295 336.208C90.6695 335.64 90.3895 334.896 90.3895 333.976C90.3895 333 90.6455 332.236 91.1575 331.684C91.6695 331.124 92.3215 330.844 93.1135 330.844C93.8895 330.844 94.5055 331.088 94.9615 331.576C95.4175 332.056 95.6455 332.752 95.6455 333.664C95.6455 333.912 95.6215 334.172 95.5735 334.444H91.5775C91.6575 334.972 91.8815 335.376 92.2495 335.656C92.6175 335.936 93.0815 336.076 93.6415 336.076C94.2895 336.076 94.8295 335.924 95.2615 335.62ZM95.6741 339.172V338.176C95.9301 338.304 96.1861 338.368 96.4421 338.368C96.8821 338.368 97.1021 338.084 97.1021 337.516V330.916H98.2781V337.54C98.2781 338.108 98.1261 338.552 97.8221 338.872C97.5261 339.192 97.1021 339.352 96.5501 339.352C96.2941 339.352 96.0021 339.292 95.6741 339.172ZM97.1621 329.584C97.0181 329.44 96.9461 329.264 96.9461 329.056C96.9461 328.848 97.0141 328.672 97.1501 328.528C97.2941 328.384 97.4701 328.312 97.6781 328.312C97.8861 328.312 98.0621 328.384 98.2061 328.528C98.3501 328.672 98.4221 328.848 98.4221 329.056C98.4221 329.256 98.3501 329.428 98.2061 329.572C98.0621 329.716 97.8861 329.788 97.6781 329.788C97.4781 329.788 97.3061 329.72 97.1621 329.584ZM103.14 334.288H102.228C101.78 334.288 101.44 334.376 101.208 334.552C100.984 334.728 100.872 334.952 100.872 335.224C100.872 335.504 100.96 335.724 101.136 335.884C101.312 336.044 101.568 336.124 101.904 336.124C102.288 336.124 102.588 336.02 102.804 335.812C103.028 335.596 103.14 335.316 103.14 334.972V334.288ZM100.08 332.368V331.228C100.552 330.956 101.176 330.82 101.952 330.82C103.544 330.82 104.34 331.592 104.34 333.136V337H103.176V336.28C102.864 336.792 102.316 337.048 101.532 337.048C100.956 337.048 100.492 336.884 100.14 336.556C99.7964 336.22 99.6244 335.796 99.6244 335.284C99.6244 334.7 99.8444 334.248 100.284 333.928C100.724 333.6 101.34 333.436 102.132 333.436H103.14V333.088C103.14 332.672 103.04 332.36 102.84 332.152C102.64 331.936 102.308 331.828 101.844 331.828C101.196 331.828 100.608 332.008 100.08 332.368Z" fill="#110F0F"/>
<path d="M22.97 19.915C24.15 19.805 25.015 19.53 25.565 19.09C26.125 18.64 26.405 18.2 26.405 17.77C26.405 17.33 26.19 17.01 25.76 16.81C25.33 16.6 24.785 16.495 24.125 16.495C23.775 16.495 23.42 16.525 23.06 16.585C23 17.015 22.97 18.125 22.97 19.915ZM23.135 25.09C23.025 25.2 22.805 25.285 22.475 25.345C22.145 25.415 21.87 25.45 21.65 25.45C21.43 25.45 21.24 25.42 21.08 25.36L21.17 16.705C21.04 16.545 20.91 16.28 20.78 15.91C20.66 15.54 20.6 15.315 20.6 15.235C20.6 15.145 20.61 15.09 20.63 15.07C20.65 15.04 20.965 15.01 21.575 14.98C22.195 14.94 22.82 14.92 23.45 14.92C24.08 14.92 24.64 14.955 25.13 15.025C25.62 15.095 26.13 15.22 26.66 15.4C27.19 15.57 27.61 15.845 27.92 16.225C28.23 16.605 28.385 17.095 28.385 17.695C28.385 18.285 28.175 18.835 27.755 19.345C27.335 19.855 26.765 20.285 26.045 20.635C26.045 20.795 26.36 21.515 26.99 22.795C27.62 24.065 28.12 24.885 28.49 25.255C28.5 25.265 28.505 25.28 28.505 25.3C28.505 25.33 28.425 25.38 28.265 25.45C27.825 25.66 27.35 25.765 26.84 25.765L26.465 25.735C26.245 25.515 25.86 24.785 25.31 23.545C24.77 22.305 24.47 21.545 24.41 21.265C24.29 21.335 23.815 21.44 22.985 21.58C23.005 23.59 23.055 24.76 23.135 25.09ZM33.0187 20.23C33.0187 19.94 32.8637 19.795 32.5537 19.795C32.1437 19.795 31.7837 20.005 31.4737 20.425C31.1637 20.845 31.0087 21.35 31.0087 21.94C31.0087 22.08 31.0287 22.15 31.0687 22.15C31.4287 22.14 31.8437 21.935 32.3137 21.535C32.7837 21.125 33.0187 20.69 33.0187 20.23ZM34.3237 25C33.9837 25.23 33.3187 25.345 32.3287 25.345C31.3387 25.345 30.5787 25.05 30.0487 24.46C29.5187 23.87 29.2537 23.085 29.2537 22.105C29.2537 21.115 29.5687 20.26 30.1987 19.54C30.8387 18.81 31.7337 18.445 32.8837 18.445C33.3537 18.445 33.7837 18.57 34.1737 18.82C34.5737 19.07 34.7737 19.51 34.7737 20.14C34.7737 20.76 34.4987 21.375 33.9487 21.985C33.4087 22.595 32.6687 23.06 31.7287 23.38C31.7287 23.5 31.8487 23.6 32.0887 23.68C32.3387 23.75 32.5837 23.785 32.8237 23.785C33.5837 23.785 34.1837 23.65 34.6237 23.38C34.6337 23.37 34.6487 23.365 34.6687 23.365C34.6887 23.365 34.6987 23.46 34.6987 23.65C34.6987 24.23 34.5737 24.68 34.3237 25ZM40.1115 23.275C40.1115 23.815 39.8565 24.3 39.3465 24.73C38.8465 25.15 38.3015 25.45 37.7115 25.63C37.1315 25.82 36.6215 25.915 36.1815 25.915C36.1315 25.915 36.0615 25.855 35.9715 25.735C35.7215 25.405 35.5965 25.02 35.5965 24.58V24.475C36.3765 24.475 36.9715 24.34 37.3815 24.07C37.7915 23.8 37.9965 23.52 37.9965 23.23C37.9965 23.04 37.8715 22.84 37.6215 22.63C37.3715 22.42 37.0965 22.235 36.7965 22.075C36.4965 21.915 36.2215 21.705 35.9715 21.445C35.7215 21.175 35.5965 20.895 35.5965 20.605C35.5965 19.995 35.9765 19.435 36.7365 18.925C37.4965 18.415 38.3065 18.16 39.1665 18.16C39.2665 18.16 39.3965 18.3 39.5565 18.58C39.7165 18.85 39.8015 19.13 39.8115 19.42C39.6115 19.42 39.3115 19.48 38.9115 19.6C38.1215 19.85 37.7265 20.16 37.7265 20.53C37.7265 20.79 38.1165 21.145 38.8965 21.595C39.1965 21.765 39.4715 22 39.7215 22.3C39.9715 22.6 40.1015 22.925 40.1115 23.275ZM44.7867 24.43L44.7717 24.115L44.7567 24.085C44.5167 24.455 44.2117 24.75 43.8417 24.97C43.4817 25.19 43.1267 25.3 42.7767 25.3C41.7267 25.3 41.1267 24.485 40.9767 22.855C40.9567 22.595 40.9467 21.925 40.9467 20.845C40.9467 19.765 40.9917 19.125 41.0817 18.925C41.3417 18.715 41.7617 18.61 42.3417 18.61C42.5717 18.61 42.7117 18.635 42.7617 18.685C42.7617 18.695 42.7567 18.83 42.7467 19.09C42.6967 19.85 42.6717 20.435 42.6717 20.845C42.6717 21.255 42.6767 21.56 42.6867 21.76C42.6967 21.95 42.7017 22.075 42.7017 22.135C42.7117 22.185 42.7267 22.28 42.7467 22.42C42.7767 22.56 42.8167 22.68 42.8667 22.78C43.0167 23.07 43.2467 23.215 43.5567 23.215C43.8767 23.215 44.1567 23.06 44.3967 22.75C44.6467 22.43 44.7667 22.205 44.7567 22.075V21.565C44.7567 19.735 44.7867 18.75 44.8467 18.61C44.8967 18.52 45.0517 18.425 45.3117 18.325C45.5817 18.225 45.8467 18.175 46.1067 18.175C46.3667 18.175 46.5167 18.195 46.5567 18.235L46.5267 18.94C46.4667 20.37 46.4367 21.475 46.4367 22.255C46.4367 23.035 46.4567 23.53 46.4967 23.74C46.5667 24.24 46.7017 24.64 46.9017 24.94C46.9017 25.04 46.6967 25.2 46.2867 25.42C45.8767 25.64 45.5267 25.75 45.2367 25.75C45.1567 25.75 45.0667 25.6 44.9667 25.3C44.8667 25 44.8067 24.71 44.7867 24.43ZM47.9521 22.87L48.0121 17.44C48.0121 16.65 48.0021 16.115 47.9821 15.835C47.9621 15.555 47.9521 15.405 47.9521 15.385C47.9521 15.285 48.1171 15.17 48.4471 15.04C48.7871 14.91 49.0871 14.845 49.3471 14.845C49.6071 14.845 49.7371 14.865 49.7371 14.905C49.6871 15.275 49.6621 16.575 49.6621 18.805L49.6321 22.48C49.6321 23.17 49.6421 23.595 49.6621 23.755C49.7121 24.195 49.8571 24.595 50.0971 24.955C50.0971 25.055 49.8921 25.215 49.4821 25.435C49.0721 25.655 48.7221 25.765 48.4321 25.765C48.3521 25.765 48.2621 25.615 48.1621 25.315C48.0621 25.015 48.0021 24.755 47.9821 24.535C47.9621 24.315 47.9521 23.76 47.9521 22.87ZM53.197 15.175C53.177 15.405 53.152 16.035 53.122 17.065C53.872 17.065 54.247 17.08 54.247 17.11C54.247 17.45 54.197 17.755 54.097 18.025C53.997 18.285 53.902 18.415 53.812 18.415H53.107C53.087 19.895 53.077 21.1 53.077 22.03C53.077 22.95 53.092 23.565 53.122 23.875C53.182 24.395 53.387 24.82 53.737 25.15C53.737 25.26 53.542 25.42 53.152 25.63C52.772 25.84 52.412 25.945 52.072 25.945C52.042 25.945 51.982 25.895 51.892 25.795C51.812 25.695 51.722 25.53 51.622 25.3C51.532 25.07 51.472 24.845 51.442 24.625C51.422 24.405 51.412 23.62 51.412 22.27C51.412 20.92 51.427 19.645 51.457 18.445L50.617 18.46C50.567 18.41 50.542 18.195 50.542 17.815C50.542 17.425 50.587 17.19 50.677 17.11C50.897 17.1 51.162 17.09 51.472 17.08C51.472 16.5 51.457 16.125 51.427 15.955C51.397 15.785 51.382 15.685 51.382 15.655C51.382 15.555 51.552 15.44 51.892 15.31C52.242 15.18 52.547 15.115 52.807 15.115C53.067 15.115 53.197 15.135 53.197 15.175ZM58.964 23.275C58.964 23.815 58.709 24.3 58.199 24.73C57.699 25.15 57.154 25.45 56.564 25.63C55.984 25.82 55.474 25.915 55.034 25.915C54.984 25.915 54.914 25.855 54.824 25.735C54.574 25.405 54.449 25.02 54.449 24.58V24.475C55.229 24.475 55.824 24.34 56.234 24.07C56.644 23.8 56.849 23.52 56.849 23.23C56.849 23.04 56.724 22.84 56.474 22.63C56.224 22.42 55.949 22.235 55.649 22.075C55.349 21.915 55.074 21.705 54.824 21.445C54.574 21.175 54.449 20.895 54.449 20.605C54.449 19.995 54.829 19.435 55.589 18.925C56.349 18.415 57.159 18.16 58.019 18.16C58.119 18.16 58.249 18.3 58.409 18.58C58.569 18.85 58.654 19.13 58.664 19.42C58.464 19.42 58.164 19.48 57.764 19.6C56.974 19.85 56.579 20.16 56.579 20.53C56.579 20.79 56.969 21.145 57.749 21.595C58.049 21.765 58.324 22 58.574 22.3C58.824 22.6 58.954 22.925 58.964 23.275Z" fill="#110F0F"/>
<path d="M26.195 289.435C26.035 289.415 25.85 289.405 25.64 289.405C25.44 289.405 25.19 289.425 24.89 289.465C24.6 289.505 24.295 289.57 23.975 289.66C23.665 289.74 23.41 289.87 23.21 290.05C23.01 290.23 22.91 290.45 22.91 290.71C22.91 290.96 23.06 291.185 23.36 291.385C23.67 291.575 24.04 291.755 24.47 291.925C24.9 292.085 25.33 292.27 25.76 292.48C26.2 292.69 26.57 293 26.87 293.41C27.18 293.81 27.335 294.295 27.335 294.865C27.335 295.875 26.85 296.735 25.88 297.445C24.92 298.145 23.705 298.495 22.235 298.495C21.495 298.495 20.945 298.455 20.585 298.375C20.495 298.285 20.45 297.75 20.45 296.77C20.45 295.78 20.47 295.185 20.51 294.985C20.54 294.895 20.715 294.785 21.035 294.655C21.355 294.525 21.665 294.46 21.965 294.46C21.965 295.64 22.09 296.355 22.34 296.605C22.44 296.705 22.63 296.755 22.91 296.755C23.55 296.755 24.105 296.575 24.575 296.215C25.055 295.855 25.295 295.43 25.295 294.94C25.295 294.61 25.14 294.32 24.83 294.07C24.52 293.82 24.14 293.605 23.69 293.425C23.25 293.235 22.81 293.04 22.37 292.84C21.93 292.63 21.555 292.345 21.245 291.985C20.935 291.625 20.78 291.2 20.78 290.71C20.78 289.98 21.215 289.315 22.085 288.715C22.965 288.105 24.235 287.8 25.895 287.8C26.285 287.8 26.505 287.825 26.555 287.875C26.565 287.905 26.57 287.98 26.57 288.1C26.57 288.21 26.535 288.43 26.465 288.76C26.395 289.09 26.305 289.315 26.195 289.435ZM32.2183 297.43L32.2033 297.115L32.1883 297.085C31.9483 297.455 31.6433 297.75 31.2733 297.97C30.9133 298.19 30.5583 298.3 30.2083 298.3C29.1583 298.3 28.5583 297.485 28.4083 295.855C28.3883 295.595 28.3783 294.925 28.3783 293.845C28.3783 292.765 28.4233 292.125 28.5133 291.925C28.7733 291.715 29.1933 291.61 29.7733 291.61C30.0033 291.61 30.1433 291.635 30.1933 291.685C30.1933 291.695 30.1883 291.83 30.1783 292.09C30.1283 292.85 30.1033 293.435 30.1033 293.845C30.1033 294.255 30.1083 294.56 30.1183 294.76C30.1283 294.95 30.1333 295.075 30.1333 295.135C30.1433 295.185 30.1583 295.28 30.1783 295.42C30.2083 295.56 30.2483 295.68 30.2983 295.78C30.4483 296.07 30.6783 296.215 30.9883 296.215C31.3083 296.215 31.5883 296.06 31.8283 295.75C32.0783 295.43 32.1983 295.205 32.1883 295.075V294.565C32.1883 292.735 32.2183 291.75 32.2783 291.61C32.3283 291.52 32.4833 291.425 32.7433 291.325C33.0133 291.225 33.2783 291.175 33.5383 291.175C33.7983 291.175 33.9483 291.195 33.9883 291.235L33.9583 291.94C33.8983 293.37 33.8683 294.475 33.8683 295.255C33.8683 296.035 33.8883 296.53 33.9283 296.74C33.9983 297.24 34.1333 297.64 34.3333 297.94C34.3333 298.04 34.1283 298.2 33.7183 298.42C33.3083 298.64 32.9583 298.75 32.6683 298.75C32.5883 298.75 32.4983 298.6 32.3983 298.3C32.2983 298 32.2383 297.71 32.2183 297.43ZM40.8738 294.28L40.9038 297.835C40.9038 298.615 40.7988 299.305 40.5888 299.905C40.3788 300.515 40.1238 300.985 39.8238 301.315C39.5238 301.655 39.1788 301.93 38.7888 302.14C38.1588 302.49 37.5238 302.665 36.8838 302.665C36.8538 302.665 36.7938 302.59 36.7038 302.44C36.6138 302.29 36.5288 302.085 36.4488 301.825C36.3688 301.565 36.3288 301.325 36.3288 301.105H36.6138C36.8138 301.105 37.0038 301.085 37.1838 301.045C37.3738 301.015 37.6038 300.92 37.8738 300.76C38.1438 300.6 38.3738 300.39 38.5638 300.13C38.7538 299.87 38.9188 299.485 39.0588 298.975C39.1988 298.465 39.2688 297.87 39.2688 297.19C39.2688 297.15 39.2638 297.13 39.2538 297.13L39.2088 297.175C38.7888 297.825 38.1338 298.15 37.2438 298.15C36.5738 298.15 36.0388 297.885 35.6388 297.355C35.2388 296.825 35.0388 296.23 35.0388 295.57C35.0388 294.37 35.4238 293.38 36.1938 292.6C36.9638 291.82 38.0688 291.43 39.5088 291.43C39.8588 291.43 40.0338 291.455 40.0338 291.505C40.0638 291.675 40.0788 291.86 40.0788 292.06L40.0638 292.285H40.2288C40.5488 292.285 40.7638 292.315 40.8738 292.375V294.28ZM39.2388 293.02L38.9238 292.975C38.2838 292.975 37.7738 293.185 37.3938 293.605C37.0238 294.015 36.8388 294.53 36.8388 295.15C36.8388 295.46 36.9288 295.73 37.1088 295.96C37.2988 296.19 37.5688 296.305 37.9188 296.305C38.2788 296.305 38.5788 296.165 38.8188 295.885C39.0588 295.605 39.1788 295.38 39.1788 295.21C39.1788 294.07 39.1988 293.34 39.2388 293.02ZM47.7439 294.28L47.7739 297.835C47.7739 298.615 47.6689 299.305 47.4589 299.905C47.2489 300.515 46.9939 300.985 46.6939 301.315C46.3939 301.655 46.0489 301.93 45.6589 302.14C45.0289 302.49 44.3939 302.665 43.7539 302.665C43.7239 302.665 43.6639 302.59 43.5739 302.44C43.4839 302.29 43.3989 302.085 43.3189 301.825C43.2389 301.565 43.1989 301.325 43.1989 301.105H43.4839C43.6839 301.105 43.8739 301.085 44.0539 301.045C44.2439 301.015 44.4739 300.92 44.7439 300.76C45.0139 300.6 45.2439 300.39 45.4339 300.13C45.6239 299.87 45.7889 299.485 45.9289 298.975C46.0689 298.465 46.1389 297.87 46.1389 297.19C46.1389 297.15 46.1339 297.13 46.1239 297.13L46.0789 297.175C45.6589 297.825 45.0039 298.15 44.1139 298.15C43.4439 298.15 42.9089 297.885 42.5089 297.355C42.1089 296.825 41.9089 296.23 41.9089 295.57C41.9089 294.37 42.2939 293.38 43.0639 292.6C43.8339 291.82 44.9389 291.43 46.3789 291.43C46.7289 291.43 46.9039 291.455 46.9039 291.505C46.9339 291.675 46.9489 291.86 46.9489 292.06L46.9339 292.285H47.0989C47.4189 292.285 47.6339 292.315 47.7439 292.375V294.28ZM46.1089 293.02L45.7939 292.975C45.1539 292.975 44.6439 293.185 44.2639 293.605C43.8939 294.015 43.7089 294.53 43.7089 295.15C43.7089 295.46 43.7989 295.73 43.9789 295.96C44.1689 296.19 44.4389 296.305 44.7889 296.305C45.1489 296.305 45.4489 296.165 45.6889 295.885C45.9289 295.605 46.0489 295.38 46.0489 295.21C46.0489 294.07 46.0689 293.34 46.1089 293.02ZM52.589 293.23C52.589 292.94 52.434 292.795 52.124 292.795C51.714 292.795 51.354 293.005 51.044 293.425C50.734 293.845 50.579 294.35 50.579 294.94C50.579 295.08 50.599 295.15 50.639 295.15C50.999 295.14 51.414 294.935 51.884 294.535C52.354 294.125 52.589 293.69 52.589 293.23ZM53.894 298C53.554 298.23 52.889 298.345 51.899 298.345C50.909 298.345 50.149 298.05 49.619 297.46C49.089 296.87 48.824 296.085 48.824 295.105C48.824 294.115 49.139 293.26 49.769 292.54C50.409 291.81 51.304 291.445 52.454 291.445C52.924 291.445 53.354 291.57 53.744 291.82C54.144 292.07 54.344 292.51 54.344 293.14C54.344 293.76 54.069 294.375 53.519 294.985C52.979 295.595 52.239 296.06 51.299 296.38C51.299 296.5 51.419 296.6 51.659 296.68C51.909 296.75 52.154 296.785 52.394 296.785C53.154 296.785 53.754 296.65 54.194 296.38C54.204 296.37 54.219 296.365 54.239 296.365C54.259 296.365 54.269 296.46 54.269 296.65C54.269 297.23 54.144 297.68 53.894 298ZM59.6818 296.275C59.6818 296.815 59.4268 297.3 58.9168 297.73C58.4168 298.15 57.8718 298.45 57.2818 298.63C56.7018 298.82 56.1918 298.915 55.7518 298.915C55.7018 298.915 55.6318 298.855 55.5418 298.735C55.2918 298.405 55.1668 298.02 55.1668 297.58V297.475C55.9468 297.475 56.5418 297.34 56.9518 297.07C57.3618 296.8 57.5668 296.52 57.5668 296.23C57.5668 296.04 57.4418 295.84 57.1918 295.63C56.9418 295.42 56.6668 295.235 56.3668 295.075C56.0668 294.915 55.7918 294.705 55.5418 294.445C55.2918 294.175 55.1668 293.895 55.1668 293.605C55.1668 292.995 55.5468 292.435 56.3068 291.925C57.0668 291.415 57.8768 291.16 58.7368 291.16C58.8368 291.16 58.9668 291.3 59.1268 291.58C59.2868 291.85 59.3718 292.13 59.3818 292.42C59.1818 292.42 58.8818 292.48 58.4818 292.6C57.6918 292.85 57.2968 293.16 57.2968 293.53C57.2968 293.79 57.6868 294.145 58.4668 294.595C58.7668 294.765 59.0418 295 59.2918 295.3C59.5418 295.6 59.6718 295.925 59.6818 296.275ZM62.572 288.175C62.552 288.405 62.527 289.035 62.497 290.065C63.247 290.065 63.622 290.08 63.622 290.11C63.622 290.45 63.572 290.755 63.472 291.025C63.372 291.285 63.277 291.415 63.187 291.415H62.482C62.462 292.895 62.452 294.1 62.452 295.03C62.452 295.95 62.467 296.565 62.497 296.875C62.557 297.395 62.762 297.82 63.112 298.15C63.112 298.26 62.917 298.42 62.527 298.63C62.147 298.84 61.787 298.945 61.447 298.945C61.417 298.945 61.357 298.895 61.267 298.795C61.187 298.695 61.097 298.53 60.997 298.3C60.907 298.07 60.847 297.845 60.817 297.625C60.797 297.405 60.787 296.62 60.787 295.27C60.787 293.92 60.802 292.645 60.832 291.445L59.992 291.46C59.942 291.41 59.917 291.195 59.917 290.815C59.917 290.425 59.962 290.19 60.052 290.11C60.272 290.1 60.537 290.09 60.847 290.08C60.847 289.5 60.832 289.125 60.802 288.955C60.772 288.785 60.757 288.685 60.757 288.655C60.757 288.555 60.927 288.44 61.267 288.31C61.617 288.18 61.922 288.115 62.182 288.115C62.442 288.115 62.572 288.135 62.572 288.175ZM67.6183 293.23C67.6183 292.94 67.4633 292.795 67.1533 292.795C66.7433 292.795 66.3833 293.005 66.0733 293.425C65.7633 293.845 65.6083 294.35 65.6083 294.94C65.6083 295.08 65.6283 295.15 65.6683 295.15C66.0283 295.14 66.4433 294.935 66.9133 294.535C67.3833 294.125 67.6183 293.69 67.6183 293.23ZM68.9233 298C68.5833 298.23 67.9183 298.345 66.9283 298.345C65.9383 298.345 65.1783 298.05 64.6483 297.46C64.1183 296.87 63.8533 296.085 63.8533 295.105C63.8533 294.115 64.1683 293.26 64.7983 292.54C65.4383 291.81 66.3333 291.445 67.4833 291.445C67.9533 291.445 68.3833 291.57 68.7733 291.82C69.1733 292.07 69.3733 292.51 69.3733 293.14C69.3733 293.76 69.0983 294.375 68.5483 294.985C68.0083 295.595 67.2683 296.06 66.3283 296.38C66.3283 296.5 66.4483 296.6 66.6883 296.68C66.9383 296.75 67.1833 296.785 67.4233 296.785C68.1833 296.785 68.7833 296.65 69.2233 296.38C69.2333 296.37 69.2483 296.365 69.2683 296.365C69.2883 296.365 69.2983 296.46 69.2983 296.65C69.2983 297.23 69.1733 297.68 68.9233 298ZM74.2461 291.565L74.2161 289.345C74.2161 288.725 74.2311 288.4 74.2611 288.37C74.3811 288.25 74.5761 288.135 74.8461 288.025C75.1261 287.905 75.3911 287.845 75.6411 287.845C75.8911 287.845 76.0161 287.865 76.0161 287.905C75.9361 289.565 75.8961 291.33 75.8961 293.2C75.8961 295.07 75.9261 296.185 75.9861 296.545C76.0561 297.085 76.2211 297.485 76.4811 297.745C76.4811 297.845 76.2711 298 75.8511 298.21C75.4411 298.43 75.0911 298.54 74.8011 298.54C74.7711 298.54 74.7261 298.5 74.6661 298.42C74.4761 298.17 74.3611 297.83 74.3211 297.4C74.3211 297.37 74.3111 297.355 74.2911 297.355L74.2461 297.385C73.8261 297.985 73.2011 298.285 72.3711 298.285C71.7011 298.285 71.1711 298.02 70.7811 297.49C70.3911 296.96 70.1961 296.365 70.1961 295.705C70.1961 294.575 70.5461 293.615 71.2461 292.825C71.9461 292.025 72.9461 291.605 74.2461 291.565ZM74.2761 293.14C74.2761 293.12 74.2211 293.11 74.1111 293.11H74.0511C73.4111 293.11 72.9061 293.315 72.5361 293.725C72.1761 294.135 71.9961 294.655 71.9961 295.285C71.9961 295.655 72.0811 295.96 72.2511 296.2C72.4311 296.43 72.6961 296.545 73.0461 296.545C73.4061 296.545 73.6911 296.39 73.9011 296.08C74.1211 295.77 74.2311 295.525 74.2311 295.345C74.2311 294.235 74.2461 293.5 74.2761 293.14ZM80.7946 295.975L80.7646 292.57C80.7646 291.98 80.7846 291.665 80.8246 291.625C80.9346 291.515 81.1246 291.42 81.3946 291.34C81.6646 291.25 81.9146 291.205 82.1446 291.205C82.3846 291.205 82.5046 291.23 82.5046 291.28C82.4746 291.55 82.4596 291.86 82.4596 292.21C82.4596 292.55 82.4696 292.72 82.4896 292.72C82.5096 292.72 82.5296 292.71 82.5496 292.69C82.5696 292.66 82.5996 292.62 82.6396 292.57C82.6896 292.51 82.7846 292.41 82.9246 292.27C83.0746 292.13 83.2346 292.01 83.4046 291.91C83.8346 291.63 84.2946 291.49 84.7846 291.49C84.8646 291.62 84.9046 291.82 84.9046 292.09C84.9046 292.66 84.8346 293.065 84.6946 293.305L84.6346 293.425L84.4396 293.395C83.7196 293.395 83.1546 293.69 82.7446 294.28C82.5846 294.52 82.5046 294.7 82.5046 294.82V296.14C82.5046 297.34 82.4896 297.955 82.4596 297.985C82.1796 298.255 81.6296 298.39 80.8096 298.39C80.7296 298.39 80.6896 298.375 80.6896 298.345C80.7596 297.955 80.7946 297.165 80.7946 295.975ZM91.7172 294.88C91.7172 295.83 91.4272 296.655 90.8472 297.355C90.2772 298.045 89.4972 298.39 88.5072 298.39C87.5272 298.39 86.7572 298.085 86.1972 297.475C85.6372 296.865 85.3572 296.075 85.3572 295.105C85.3572 294.125 85.7022 293.26 86.3922 292.51C87.0922 291.75 88.0322 291.37 89.2122 291.37C89.6922 291.39 89.9522 291.42 89.9922 291.46C90.0322 291.5 90.0522 291.595 90.0522 291.745C90.0522 291.895 90.0372 292.06 90.0072 292.24C90.1572 292.24 90.3472 292.33 90.5772 292.51C90.8172 292.68 91.0122 292.855 91.1622 293.035C91.3122 293.215 91.4422 293.47 91.5522 293.8C91.6622 294.12 91.7172 294.48 91.7172 294.88ZM89.5272 293.83C89.2972 293.68 89.0722 293.605 88.8522 293.605H88.7322C88.7122 293.565 88.7022 293.48 88.7022 293.35C88.7022 293.22 88.7172 293.095 88.7472 292.975C88.3372 292.975 87.9522 293.16 87.5922 293.53C87.2422 293.9 87.0672 294.415 87.0672 295.075C87.0672 295.855 87.3172 296.395 87.8172 296.695C88.0072 296.815 88.2672 296.875 88.5972 296.875C88.9372 296.875 89.2522 296.72 89.5422 296.41C89.8422 296.1 89.9922 295.64 89.9922 295.03C89.9922 294.42 89.8372 294.02 89.5272 293.83ZM96.6129 297.43L96.5979 297.115L96.5829 297.085C96.3429 297.455 96.0379 297.75 95.6679 297.97C95.3079 298.19 94.9529 298.3 94.6029 298.3C93.5529 298.3 92.9529 297.485 92.8029 295.855C92.7829 295.595 92.7729 294.925 92.7729 293.845C92.7729 292.765 92.8179 292.125 92.9079 291.925C93.1679 291.715 93.5879 291.61 94.1679 291.61C94.3979 291.61 94.5379 291.635 94.5879 291.685C94.5879 291.695 94.5829 291.83 94.5729 292.09C94.5229 292.85 94.4979 293.435 94.4979 293.845C94.4979 294.255 94.5029 294.56 94.5129 294.76C94.5229 294.95 94.5279 295.075 94.5279 295.135C94.5379 295.185 94.5529 295.28 94.5729 295.42C94.6029 295.56 94.6429 295.68 94.6929 295.78C94.8429 296.07 95.0729 296.215 95.3829 296.215C95.7029 296.215 95.9829 296.06 96.2229 295.75C96.4729 295.43 96.5929 295.205 96.5829 295.075V294.565C96.5829 292.735 96.6129 291.75 96.6729 291.61C96.7229 291.52 96.8779 291.425 97.1379 291.325C97.4079 291.225 97.6729 291.175 97.9329 291.175C98.1929 291.175 98.3429 291.195 98.3829 291.235L98.3529 291.94C98.2929 293.37 98.2629 294.475 98.2629 295.255C98.2629 296.035 98.2829 296.53 98.3229 296.74C98.3929 297.24 98.5279 297.64 98.7279 297.94C98.7279 298.04 98.5229 298.2 98.1129 298.42C97.7029 298.64 97.3529 298.75 97.0629 298.75C96.9829 298.75 96.8929 298.6 96.7929 298.3C96.6929 298 96.6329 297.71 96.6129 297.43ZM101.683 288.175C101.663 288.405 101.638 289.035 101.608 290.065C102.358 290.065 102.733 290.08 102.733 290.11C102.733 290.45 102.683 290.755 102.583 291.025C102.483 291.285 102.388 291.415 102.298 291.415H101.593C101.573 292.895 101.563 294.1 101.563 295.03C101.563 295.95 101.578 296.565 101.608 296.875C101.668 297.395 101.873 297.82 102.223 298.15C102.223 298.26 102.028 298.42 101.638 298.63C101.258 298.84 100.898 298.945 100.558 298.945C100.528 298.945 100.468 298.895 100.378 298.795C100.298 298.695 100.208 298.53 100.108 298.3C100.018 298.07 99.9583 297.845 99.9283 297.625C99.9083 297.405 99.8983 296.62 99.8983 295.27C99.8983 293.92 99.9133 292.645 99.9433 291.445L99.1033 291.46C99.0533 291.41 99.0283 291.195 99.0283 290.815C99.0283 290.425 99.0733 290.19 99.1633 290.11C99.3833 290.1 99.6483 290.09 99.9583 290.08C99.9583 289.5 99.9433 289.125 99.9133 288.955C99.8833 288.785 99.8683 288.685 99.8683 288.655C99.8683 288.555 100.038 288.44 100.378 288.31C100.728 288.18 101.033 288.115 101.293 288.115C101.553 288.115 101.683 288.135 101.683 288.175ZM106.73 293.23C106.73 292.94 106.575 292.795 106.265 292.795C105.855 292.795 105.495 293.005 105.185 293.425C104.875 293.845 104.72 294.35 104.72 294.94C104.72 295.08 104.74 295.15 104.78 295.15C105.14 295.14 105.555 294.935 106.025 294.535C106.495 294.125 106.73 293.69 106.73 293.23ZM108.035 298C107.695 298.23 107.03 298.345 106.04 298.345C105.05 298.345 104.29 298.05 103.76 297.46C103.23 296.87 102.965 296.085 102.965 295.105C102.965 294.115 103.28 293.26 103.91 292.54C104.55 291.81 105.445 291.445 106.595 291.445C107.065 291.445 107.495 291.57 107.885 291.82C108.285 292.07 108.485 292.51 108.485 293.14C108.485 293.76 108.21 294.375 107.66 294.985C107.12 295.595 106.38 296.06 105.44 296.38C105.44 296.5 105.56 296.6 105.8 296.68C106.05 296.75 106.295 296.785 106.535 296.785C107.295 296.785 107.895 296.65 108.335 296.38C108.345 296.37 108.36 296.365 108.38 296.365C108.4 296.365 108.41 296.46 108.41 296.65C108.41 297.23 108.285 297.68 108.035 298Z" fill="#110F0F"/>
<path d="M54.112 141.112H55.168C55.752 141.112 56.196 140.968 56.5 140.68C56.812 140.392 56.968 140.012 56.968 139.54C56.968 139.044 56.812 138.652 56.5 138.364C56.188 138.076 55.736 137.932 55.144 137.932H54.112V141.112ZM52.876 136.912H55.192C56.12 136.912 56.856 137.16 57.4 137.656C57.944 138.144 58.216 138.772 58.216 139.54C58.216 140.308 57.94 140.932 57.388 141.412C56.844 141.892 56.136 142.132 55.264 142.132H54.112V145H52.876V136.912ZM61.9697 145.108C61.0737 145.108 60.3697 144.816 59.8577 144.232C59.3457 143.648 59.0897 142.908 59.0897 142.012C59.0897 141.1 59.3537 140.344 59.8817 139.744C60.4097 139.136 61.1057 138.832 61.9697 138.832C62.8977 138.832 63.6137 139.128 64.1177 139.72C64.6217 140.304 64.8737 141.052 64.8737 141.964C64.8737 142.876 64.6137 143.628 64.0937 144.22C63.5817 144.812 62.8737 145.108 61.9697 145.108ZM61.9577 139.828C61.4377 139.828 61.0337 140.036 60.7457 140.452C60.4577 140.86 60.3137 141.368 60.3137 141.976C60.3137 142.576 60.4617 143.084 60.7577 143.5C61.0537 143.908 61.4577 144.112 61.9697 144.112C62.5137 144.112 62.9257 143.912 63.2057 143.512C63.4937 143.112 63.6377 142.604 63.6377 141.988C63.6377 141.356 63.5017 140.84 63.2297 140.44C62.9577 140.032 62.5337 139.828 61.9577 139.828ZM67.7231 139.828V143.176C67.7231 143.76 68.0031 144.052 68.5631 144.052C68.8911 144.052 69.1671 143.964 69.3911 143.788V144.844C69.1271 144.988 68.8031 145.06 68.4191 145.06C67.1631 145.06 66.5351 144.424 66.5351 143.152V139.828H65.5871V138.916H66.5351V137.428H67.7231V138.916H69.3191V139.828H67.7231ZM71.8634 136.516V139.96C72.2074 139.208 72.8354 138.832 73.7474 138.832C74.3394 138.832 74.8154 139.016 75.1754 139.384C75.5354 139.752 75.7154 140.264 75.7154 140.92V145H74.5394V141.16C74.5394 140.744 74.4314 140.424 74.2154 140.2C74.0074 139.968 73.7314 139.852 73.3874 139.852C72.9874 139.852 72.6314 140.004 72.3194 140.308C72.0154 140.612 71.8634 141.076 71.8634 141.7V145H70.6874V136.516H71.8634ZM79.8408 145.108C78.9448 145.108 78.2408 144.816 77.7288 144.232C77.2168 143.648 76.9608 142.908 76.9608 142.012C76.9608 141.1 77.2248 140.344 77.7528 139.744C78.2808 139.136 78.9768 138.832 79.8408 138.832C80.7688 138.832 81.4848 139.128 81.9888 139.72C82.4928 140.304 82.7448 141.052 82.7448 141.964C82.7448 142.876 82.4848 143.628 81.9648 144.22C81.4528 144.812 80.7448 145.108 79.8408 145.108ZM79.8288 139.828C79.3088 139.828 78.9048 140.036 78.6168 140.452C78.3288 140.86 78.1848 141.368 78.1848 141.976C78.1848 142.576 78.3328 143.084 78.6288 143.5C78.9248 143.908 79.3288 144.112 79.8408 144.112C80.3848 144.112 80.7968 143.912 81.0768 143.512C81.3648 143.112 81.5088 142.604 81.5088 141.988C81.5088 141.356 81.3728 140.84 81.1008 140.44C80.8288 140.032 80.4048 139.828 79.8288 139.828ZM84.1182 145V136.516H85.3062V145H84.1182ZM90.7916 141.52V141.304C90.7756 140.848 90.6516 140.488 90.4196 140.224C90.1876 139.952 89.8556 139.816 89.4236 139.816C89.0236 139.816 88.6796 139.964 88.3916 140.26C88.1036 140.548 87.9236 140.968 87.8516 141.52H90.7916ZM91.5476 143.62V144.676C91.0996 144.932 90.5076 145.06 89.7716 145.06C88.8276 145.06 88.0756 144.776 87.5156 144.208C86.9556 143.64 86.6756 142.896 86.6756 141.976C86.6756 141 86.9316 140.236 87.4436 139.684C87.9556 139.124 88.6076 138.844 89.3996 138.844C90.1756 138.844 90.7916 139.088 91.2476 139.576C91.7036 140.056 91.9316 140.752 91.9316 141.664C91.9316 141.912 91.9076 142.172 91.8596 142.444H87.8636C87.9436 142.972 88.1676 143.376 88.5356 143.656C88.9036 143.936 89.3676 144.076 89.9276 144.076C90.5756 144.076 91.1156 143.924 91.5476 143.62ZM96.7843 139.12V140.188C96.3923 139.956 95.8883 139.84 95.2723 139.84C94.9923 139.84 94.7683 139.904 94.6003 140.032C94.4403 140.16 94.3603 140.328 94.3603 140.536C94.3603 140.592 94.3643 140.648 94.3723 140.704C94.3883 140.752 94.4123 140.804 94.4443 140.86C94.4763 140.908 94.5043 140.952 94.5283 140.992C94.5603 141.024 94.6083 141.06 94.6723 141.1C94.7363 141.14 94.7843 141.176 94.8163 141.208C94.8563 141.232 94.9163 141.264 94.9963 141.304C95.0843 141.344 95.1483 141.376 95.1883 141.4C95.2283 141.416 95.2963 141.448 95.3923 141.496C95.4963 141.536 95.5683 141.564 95.6083 141.58C96.0803 141.788 96.4483 142.024 96.7123 142.288C96.9843 142.544 97.1203 142.888 97.1203 143.32C97.1203 143.864 96.9283 144.292 96.5443 144.604C96.1603 144.908 95.6403 145.06 94.9843 145.06C94.2643 145.06 93.6643 144.94 93.1843 144.7V143.584C93.7443 143.928 94.3243 144.1 94.9243 144.1C95.2363 144.1 95.4763 144.036 95.6443 143.908C95.8203 143.78 95.9083 143.612 95.9083 143.404C95.9083 143.228 95.8403 143.072 95.7043 142.936C95.5683 142.792 95.4283 142.688 95.2843 142.624C95.1483 142.552 94.9123 142.444 94.5763 142.3C93.6243 141.908 93.1483 141.332 93.1483 140.572C93.1483 140.036 93.3483 139.616 93.7483 139.312C94.1483 139.008 94.6483 138.856 95.2483 138.856C95.9043 138.856 96.4163 138.944 96.7843 139.12ZM103.757 144.052C104.221 144.052 104.613 143.876 104.933 143.524C105.253 143.172 105.413 142.636 105.413 141.916C105.413 141.22 105.245 140.704 104.909 140.368C104.581 140.032 104.209 139.864 103.793 139.864C103.321 139.864 102.933 140.052 102.629 140.428C102.325 140.796 102.173 141.324 102.173 142.012C102.173 142.62 102.321 143.112 102.617 143.488C102.921 143.864 103.301 144.052 103.757 144.052ZM105.413 136.516H106.601V145H105.413V144.076C104.989 144.748 104.369 145.084 103.553 145.084C102.753 145.084 102.121 144.784 101.657 144.184C101.193 143.576 100.961 142.844 100.961 141.988C100.961 141.036 101.205 140.272 101.693 139.696C102.181 139.12 102.809 138.832 103.577 138.832C104.369 138.832 104.981 139.168 105.413 139.84V136.516ZM112.038 141.52V141.304C112.022 140.848 111.898 140.488 111.666 140.224C111.434 139.952 111.102 139.816 110.67 139.816C110.27 139.816 109.926 139.964 109.638 140.26C109.35 140.548 109.17 140.968 109.098 141.52H112.038ZM112.794 143.62V144.676C112.346 144.932 111.754 145.06 111.018 145.06C110.074 145.06 109.322 144.776 108.762 144.208C108.202 143.64 107.922 142.896 107.922 141.976C107.922 141 108.178 140.236 108.69 139.684C109.202 139.124 109.854 138.844 110.646 138.844C111.422 138.844 112.038 139.088 112.494 139.576C112.95 140.056 113.178 140.752 113.178 141.664C113.178 141.912 113.154 142.172 113.106 142.444H109.11C109.19 142.972 109.414 143.376 109.782 143.656C110.15 143.936 110.614 144.076 111.174 144.076C111.822 144.076 112.362 143.924 112.794 143.62ZM116.086 139.828V143.176C116.086 143.76 116.366 144.052 116.926 144.052C117.254 144.052 117.53 143.964 117.754 143.788V144.844C117.49 144.988 117.166 145.06 116.782 145.06C115.526 145.06 114.898 144.424 114.898 143.152V139.828H113.95V138.916H114.898V137.428H116.086V138.916H117.682V139.828H116.086ZM122.831 141.52V141.304C122.815 140.848 122.691 140.488 122.459 140.224C122.227 139.952 121.895 139.816 121.463 139.816C121.063 139.816 120.719 139.964 120.431 140.26C120.143 140.548 119.963 140.968 119.891 141.52H122.831ZM123.587 143.62V144.676C123.139 144.932 122.547 145.06 121.811 145.06C120.867 145.06 120.115 144.776 119.555 144.208C118.995 143.64 118.715 142.896 118.715 141.976C118.715 141 118.971 140.236 119.483 139.684C119.995 139.124 120.647 138.844 121.439 138.844C122.215 138.844 122.831 139.088 123.287 139.576C123.743 140.056 123.971 140.752 123.971 141.664C123.971 141.912 123.947 142.172 123.899 142.444H119.903C119.983 142.972 120.207 143.376 120.575 143.656C120.943 143.936 121.407 144.076 121.967 144.076C122.615 144.076 123.155 143.924 123.587 143.62ZM126.231 141.988C126.247 142.604 126.435 143.112 126.795 143.512C127.155 143.904 127.659 144.1 128.307 144.1C128.787 144.1 129.235 143.968 129.651 143.704V144.76C129.259 145 128.759 145.12 128.151 145.12C127.199 145.12 126.439 144.82 125.871 144.22C125.303 143.62 125.019 142.872 125.019 141.976C125.019 141.104 125.303 140.36 125.871 139.744C126.447 139.12 127.223 138.808 128.199 138.808C128.727 138.808 129.211 138.92 129.651 139.144V140.224C129.259 139.976 128.815 139.852 128.319 139.852C127.687 139.852 127.179 140.052 126.795 140.452C126.419 140.852 126.231 141.364 126.231 141.988ZM132.528 139.828V143.176C132.528 143.76 132.808 144.052 133.368 144.052C133.696 144.052 133.972 143.964 134.196 143.788V144.844C133.932 144.988 133.608 145.06 133.224 145.06C131.968 145.06 131.34 144.424 131.34 143.152V139.828H130.392V138.916H131.34V137.428H132.528V138.916H134.124V139.828H132.528ZM139.272 141.52V141.304C139.256 140.848 139.132 140.488 138.9 140.224C138.668 139.952 138.336 139.816 137.904 139.816C137.504 139.816 137.16 139.964 136.872 140.26C136.584 140.548 136.404 140.968 136.332 141.52H139.272ZM140.028 143.62V144.676C139.58 144.932 138.988 145.06 138.252 145.06C137.308 145.06 136.556 144.776 135.996 144.208C135.436 143.64 135.156 142.896 135.156 141.976C135.156 141 135.412 140.236 135.924 139.684C136.436 139.124 137.088 138.844 137.88 138.844C138.656 138.844 139.272 139.088 139.728 139.576C140.184 140.056 140.412 140.752 140.412 141.664C140.412 141.912 140.388 142.172 140.34 142.444H136.344C136.424 142.972 136.648 143.376 137.016 143.656C137.384 143.936 137.848 144.076 138.408 144.076C139.056 144.076 139.596 143.924 140.028 143.62ZM144.257 144.052C144.721 144.052 145.113 143.876 145.433 143.524C145.753 143.172 145.913 142.636 145.913 141.916C145.913 141.22 145.745 140.704 145.409 140.368C145.081 140.032 144.709 139.864 144.293 139.864C143.821 139.864 143.433 140.052 143.129 140.428C142.825 140.796 142.673 141.324 142.673 142.012C142.673 142.62 142.821 143.112 143.117 143.488C143.421 143.864 143.801 144.052 144.257 144.052ZM145.913 136.516H147.101V145H145.913V144.076C145.489 144.748 144.869 145.084 144.053 145.084C143.253 145.084 142.621 144.784 142.157 144.184C141.693 143.576 141.461 142.844 141.461 141.988C141.461 141.036 141.705 140.272 142.193 139.696C142.681 139.12 143.309 138.832 144.077 138.832C144.869 138.832 145.481 139.168 145.913 139.84V136.516Z" fill="#110F0F"/>
<path d="M42.88 143.46L39.68 137.7C39.25 136.925 38.655 136.5 38 136.5C37.345 136.5 36.75 136.925 36.32 137.7L33.12 143.46C32.715 144.195 32.67 144.9 32.995 145.455C33.32 146.01 33.96 146.315 34.8 146.315H41.2C42.04 146.315 42.68 146.01 43.005 145.455C43.33 144.9 43.285 144.19 42.88 143.46ZM37.625 140C37.625 139.795 37.795 139.625 38 139.625C38.205 139.625 38.375 139.795 38.375 140V142.5C38.375 142.705 38.205 142.875 38 142.875C37.795 142.875 37.625 142.705 37.625 142.5V140ZM38.355 144.355C38.33 144.375 38.305 144.395 38.28 144.415C38.25 144.435 38.22 144.45 38.19 144.46C38.16 144.475 38.13 144.485 38.095 144.49C38.065 144.495 38.03 144.5 38 144.5C37.97 144.5 37.935 144.495 37.9 144.49C37.87 144.485 37.84 144.475 37.81 144.46C37.78 144.45 37.75 144.435 37.72 144.415C37.695 144.395 37.67 144.375 37.645 144.355C37.555 144.26 37.5 144.13 37.5 144C37.5 143.87 37.555 143.74 37.645 143.645C37.67 143.625 37.695 143.605 37.72 143.585C37.75 143.565 37.78 143.55 37.81 143.54C37.84 143.525 37.87 143.515 37.9 143.51C37.965 143.495 38.035 143.495 38.095 143.51C38.13 143.515 38.16 143.525 38.19 143.54C38.22 143.55 38.25 143.565 38.28 143.585C38.305 143.605 38.33 143.625 38.355 143.645C38.445 143.74 38.5 143.87 38.5 144C38.5 144.13 38.445 144.26 38.355 144.355Z" fill="#110F0F" fill-opacity="0.6"/>
<rect x="52.0303" y="187" width="289.97" height="34" rx="12" fill="white"/>
<rect x="52.5303" y="187.5" width="288.97" height="33" rx="11.5" stroke="#110F0F" stroke-opacity="0.6"/>
<path d="M64.552 203.42C64.552 202.164 64.888 201.156 65.56 200.396C66.232 199.636 67.132 199.256 68.26 199.256C69.412 199.256 70.32 199.636 70.984 200.396C71.648 201.148 71.98 202.156 71.98 203.42C71.98 204.684 71.644 205.696 70.972 206.456C70.308 207.216 69.408 207.596 68.272 207.596C67.144 207.596 66.24 207.216 65.56 206.456C64.888 205.696 64.552 204.684 64.552 203.42ZM66.484 201.224C66.06 201.76 65.848 202.492 65.848 203.42C65.848 204.348 66.068 205.084 66.508 205.628C66.948 206.172 67.536 206.444 68.272 206.444C69.032 206.444 69.624 206.176 70.048 205.64C70.472 205.104 70.684 204.364 70.684 203.42C70.684 202.484 70.468 201.748 70.036 201.212C69.612 200.676 69.02 200.408 68.26 200.408C67.508 200.408 66.916 200.68 66.484 201.224ZM76.8273 201.62V202.688C76.4353 202.456 75.9313 202.34 75.3153 202.34C75.0353 202.34 74.8113 202.404 74.6433 202.532C74.4833 202.66 74.4033 202.828 74.4033 203.036C74.4033 203.092 74.4073 203.148 74.4153 203.204C74.4313 203.252 74.4553 203.304 74.4873 203.36C74.5193 203.408 74.5473 203.452 74.5713 203.492C74.6033 203.524 74.6513 203.56 74.7153 203.6C74.7793 203.64 74.8273 203.676 74.8593 203.708C74.8993 203.732 74.9593 203.764 75.0393 203.804C75.1273 203.844 75.1913 203.876 75.2313 203.9C75.2713 203.916 75.3393 203.948 75.4353 203.996C75.5393 204.036 75.6113 204.064 75.6513 204.08C76.1233 204.288 76.4913 204.524 76.7553 204.788C77.0273 205.044 77.1633 205.388 77.1633 205.82C77.1633 206.364 76.9713 206.792 76.5873 207.104C76.2033 207.408 75.6833 207.56 75.0273 207.56C74.3073 207.56 73.7073 207.44 73.2273 207.2V206.084C73.7873 206.428 74.3673 206.6 74.9673 206.6C75.2793 206.6 75.5193 206.536 75.6873 206.408C75.8633 206.28 75.9513 206.112 75.9513 205.904C75.9513 205.728 75.8833 205.572 75.7473 205.436C75.6113 205.292 75.4713 205.188 75.3273 205.124C75.1913 205.052 74.9553 204.944 74.6193 204.8C73.6673 204.408 73.1913 203.832 73.1913 203.072C73.1913 202.536 73.3913 202.116 73.7913 201.812C74.1913 201.508 74.6913 201.356 75.2913 201.356C75.9473 201.356 76.4593 201.444 76.8273 201.62ZM79.5626 199.016V202.46C79.9066 201.708 80.5346 201.332 81.4466 201.332C82.0386 201.332 82.5146 201.516 82.8746 201.884C83.2346 202.252 83.4146 202.764 83.4146 203.42V207.5H82.2386V203.66C82.2386 203.244 82.1306 202.924 81.9146 202.7C81.7066 202.468 81.4306 202.352 81.0866 202.352C80.6866 202.352 80.3306 202.504 80.0186 202.808C79.7146 203.112 79.5626 203.576 79.5626 204.2V207.5H78.3866V199.016H79.5626ZM87.54 207.608C86.644 207.608 85.94 207.316 85.428 206.732C84.916 206.148 84.66 205.408 84.66 204.512C84.66 203.6 84.924 202.844 85.452 202.244C85.98 201.636 86.676 201.332 87.54 201.332C88.468 201.332 89.184 201.628 89.688 202.22C90.192 202.804 90.444 203.552 90.444 204.464C90.444 205.376 90.184 206.128 89.664 206.72C89.152 207.312 88.444 207.608 87.54 207.608ZM87.528 202.328C87.008 202.328 86.604 202.536 86.316 202.952C86.028 203.36 85.884 203.868 85.884 204.476C85.884 205.076 86.032 205.584 86.328 206C86.624 206.408 87.028 206.612 87.54 206.612C88.084 206.612 88.496 206.412 88.776 206.012C89.064 205.612 89.208 205.104 89.208 204.488C89.208 203.856 89.072 203.34 88.8 202.94C88.528 202.532 88.104 202.328 87.528 202.328ZM94.2294 206.552C94.6934 206.552 95.0854 206.376 95.4054 206.024C95.7254 205.672 95.8854 205.136 95.8854 204.416C95.8854 203.72 95.7174 203.204 95.3814 202.868C95.0534 202.532 94.6814 202.364 94.2654 202.364C93.7934 202.364 93.4054 202.552 93.1014 202.928C92.7974 203.296 92.6454 203.824 92.6454 204.512C92.6454 205.12 92.7934 205.612 93.0894 205.988C93.3934 206.364 93.7734 206.552 94.2294 206.552ZM95.8854 199.016H97.0734V207.5H95.8854V206.576C95.4614 207.248 94.8414 207.584 94.0254 207.584C93.2254 207.584 92.5934 207.284 92.1294 206.684C91.6654 206.076 91.4334 205.344 91.4334 204.488C91.4334 203.536 91.6774 202.772 92.1654 202.196C92.6534 201.62 93.2814 201.332 94.0494 201.332C94.8414 201.332 95.4534 201.668 95.8854 202.34V199.016ZM98.7783 207.5V201.416H99.9663V207.5H98.7783ZM98.8383 200.084C98.7023 199.94 98.6343 199.764 98.6343 199.556C98.6343 199.348 98.7023 199.172 98.8383 199.028C98.9823 198.884 99.1583 198.812 99.3663 198.812C99.5743 198.812 99.7503 198.884 99.8943 199.028C100.038 199.172 100.11 199.348 100.11 199.556C100.11 199.756 100.038 199.928 99.8943 200.072C99.7503 200.216 99.5743 200.288 99.3663 200.288C99.1583 200.288 98.9823 200.22 98.8383 200.084ZM104.433 204.8V203.792H107.361V204.8H104.433ZM113.057 206.48H114.641C115.657 206.48 116.165 206.06 116.165 205.22C116.165 204.812 116.025 204.496 115.745 204.272C115.473 204.04 115.065 203.924 114.521 203.924H113.057V206.48ZM113.057 200.432V202.916H114.173C114.773 202.916 115.217 202.796 115.505 202.556C115.801 202.308 115.949 201.988 115.949 201.596C115.949 201.252 115.817 200.972 115.553 200.756C115.297 200.54 114.905 200.432 114.377 200.432H113.057ZM111.821 199.412H114.473C115.321 199.412 115.989 199.612 116.477 200.012C116.965 200.404 117.209 200.924 117.209 201.572C117.209 202.02 117.081 202.412 116.825 202.748C116.577 203.084 116.257 203.3 115.865 203.396C116.305 203.476 116.673 203.68 116.969 204.008C117.273 204.336 117.425 204.776 117.425 205.328C117.425 205.968 117.205 206.492 116.765 206.9C116.333 207.3 115.721 207.5 114.929 207.5H111.821V199.412ZM121.95 204.788H121.038C120.59 204.788 120.25 204.876 120.018 205.052C119.794 205.228 119.682 205.452 119.682 205.724C119.682 206.004 119.77 206.224 119.946 206.384C120.122 206.544 120.378 206.624 120.714 206.624C121.098 206.624 121.398 206.52 121.614 206.312C121.838 206.096 121.95 205.816 121.95 205.472V204.788ZM118.89 202.868V201.728C119.362 201.456 119.986 201.32 120.762 201.32C122.354 201.32 123.15 202.092 123.15 203.636V207.5H121.986V206.78C121.674 207.292 121.126 207.548 120.342 207.548C119.766 207.548 119.302 207.384 118.95 207.056C118.606 206.72 118.434 206.296 118.434 205.784C118.434 205.2 118.654 204.748 119.094 204.428C119.534 204.1 120.15 203.936 120.942 203.936H121.95V203.588C121.95 203.172 121.85 202.86 121.65 202.652C121.45 202.436 121.118 202.328 120.654 202.328C120.006 202.328 119.418 202.508 118.89 202.868ZM125.91 201.416V202.484C126.206 201.732 126.738 201.356 127.506 201.356C127.618 201.356 127.742 201.368 127.878 201.392V202.544C127.71 202.472 127.522 202.436 127.314 202.436C126.906 202.436 126.57 202.616 126.306 202.976C126.042 203.336 125.91 203.764 125.91 204.26V207.5H124.734V201.416H125.91ZM128.849 207.5V201.416H130.037V207.5H128.849ZM128.909 200.084C128.773 199.94 128.705 199.764 128.705 199.556C128.705 199.348 128.773 199.172 128.909 199.028C129.053 198.884 129.229 198.812 129.437 198.812C129.645 198.812 129.821 198.884 129.965 199.028C130.109 199.172 130.181 199.348 130.181 199.556C130.181 199.756 130.109 199.928 129.965 200.072C129.821 200.216 129.645 200.288 129.437 200.288C129.229 200.288 129.053 200.22 128.909 200.084ZM134.142 206.324C134.558 206.324 134.918 206.164 135.222 205.844C135.534 205.516 135.69 205.06 135.69 204.476C135.69 203.756 135.542 203.224 135.246 202.88C134.958 202.536 134.606 202.364 134.19 202.364C133.718 202.364 133.346 202.552 133.074 202.928C132.802 203.296 132.666 203.784 132.666 204.392C132.666 205.024 132.81 205.504 133.098 205.832C133.394 206.16 133.742 206.324 134.142 206.324ZM135.69 201.416H136.866V206.984C136.866 207.92 136.598 208.624 136.062 209.096C135.534 209.576 134.854 209.816 134.022 209.816C133.238 209.816 132.578 209.684 132.042 209.42V208.232C132.554 208.568 133.174 208.736 133.902 208.736C135.094 208.736 135.69 208.148 135.69 206.972V206.348C135.298 207.004 134.71 207.332 133.926 207.332C133.238 207.332 132.65 207.08 132.162 206.576C131.674 206.064 131.43 205.344 131.43 204.416C131.43 203.52 131.658 202.784 132.114 202.208C132.57 201.624 133.174 201.332 133.926 201.332C134.734 201.332 135.322 201.676 135.69 202.364V201.416ZM141.649 204.788H140.737C140.289 204.788 139.949 204.876 139.717 205.052C139.493 205.228 139.381 205.452 139.381 205.724C139.381 206.004 139.469 206.224 139.645 206.384C139.821 206.544 140.077 206.624 140.413 206.624C140.797 206.624 141.097 206.52 141.313 206.312C141.537 206.096 141.649 205.816 141.649 205.472V204.788ZM138.589 202.868V201.728C139.061 201.456 139.685 201.32 140.461 201.32C142.053 201.32 142.849 202.092 142.849 203.636V207.5H141.685V206.78C141.373 207.292 140.825 207.548 140.041 207.548C139.465 207.548 139.001 207.384 138.649 207.056C138.305 206.72 138.133 206.296 138.133 205.784C138.133 205.2 138.353 204.748 138.793 204.428C139.233 204.1 139.849 203.936 140.641 203.936H141.649V203.588C141.649 203.172 141.549 202.86 141.349 202.652C141.149 202.436 140.817 202.328 140.353 202.328C139.705 202.328 139.117 202.508 138.589 202.868Z" fill="#110F0F"/>
<path d="M57.736 167.912V168.944H55.612V176H54.376V168.944H52.264V167.912H57.736ZM60.004 169.916V170.984C60.3 170.232 60.832 169.856 61.6 169.856C61.712 169.856 61.836 169.868 61.972 169.892V171.044C61.804 170.972 61.616 170.936 61.408 170.936C61 170.936 60.664 171.116 60.4 171.476C60.136 171.836 60.004 172.264 60.004 172.76V176H58.828V169.916H60.004ZM66.0984 173.288H65.1864C64.7384 173.288 64.3984 173.376 64.1664 173.552C63.9424 173.728 63.8304 173.952 63.8304 174.224C63.8304 174.504 63.9184 174.724 64.0944 174.884C64.2704 175.044 64.5264 175.124 64.8624 175.124C65.2464 175.124 65.5464 175.02 65.7624 174.812C65.9864 174.596 66.0984 174.316 66.0984 173.972V173.288ZM63.0384 171.368V170.228C63.5104 169.956 64.1344 169.82 64.9104 169.82C66.5024 169.82 67.2984 170.592 67.2984 172.136V176H66.1344V175.28C65.8224 175.792 65.2744 176.048 64.4904 176.048C63.9144 176.048 63.4504 175.884 63.0984 175.556C62.7544 175.22 62.5824 174.796 62.5824 174.284C62.5824 173.7 62.8024 173.248 63.2424 172.928C63.6824 172.6 64.2984 172.436 65.0904 172.436H66.0984V172.088C66.0984 171.672 65.9984 171.36 65.7984 171.152C65.5984 170.936 65.2664 170.828 64.8024 170.828C64.1544 170.828 63.5664 171.008 63.0384 171.368ZM72.5187 169.916V169.448C72.5187 169.16 72.5547 168.896 72.6267 168.656C72.2187 168.496 71.8467 168.416 71.5107 168.416C70.8787 168.416 70.5627 168.764 70.5627 169.46V169.916H72.5187ZM76.8267 169.916V176H75.6507V170.828H73.6947V176H72.5187V170.828H70.5627V176H69.3867V170.828H68.4147V169.916H69.3867V169.448C69.3867 168.808 69.5587 168.308 69.9027 167.948C70.2547 167.588 70.7547 167.408 71.4027 167.408C72.0027 167.408 72.5907 167.548 73.1667 167.828C73.5107 167.548 73.9547 167.408 74.4987 167.408C75.1307 167.408 75.7427 167.556 76.3347 167.852V168.872C75.6867 168.568 75.1107 168.416 74.6067 168.416C73.9987 168.416 73.6947 168.764 73.6947 169.46V169.916H76.8267ZM79.8251 172.988C79.8411 173.604 80.0291 174.112 80.3891 174.512C80.7491 174.904 81.2531 175.1 81.9011 175.1C82.3811 175.1 82.8291 174.968 83.2451 174.704V175.76C82.8531 176 82.3531 176.12 81.7451 176.12C80.7931 176.12 80.0331 175.82 79.4651 175.22C78.8971 174.62 78.6131 173.872 78.6131 172.976C78.6131 172.104 78.8971 171.36 79.4651 170.744C80.0411 170.12 80.8171 169.808 81.7931 169.808C82.3211 169.808 82.8051 169.92 83.2451 170.144V171.224C82.8531 170.976 82.4091 170.852 81.9131 170.852C81.2811 170.852 80.7731 171.052 80.3891 171.452C80.0131 171.852 79.8251 172.364 79.8251 172.988Z" fill="#110F0F"/>
<path d="M42.88 174.46L39.68 168.7C39.25 167.925 38.655 167.5 38 167.5C37.345 167.5 36.75 167.925 36.32 168.7L33.12 174.46C32.715 175.195 32.67 175.9 32.995 176.455C33.32 177.01 33.96 177.315 34.8 177.315H41.2C42.04 177.315 42.68 177.01 43.005 176.455C43.33 175.9 43.285 175.19 42.88 174.46ZM37.625 171C37.625 170.795 37.795 170.625 38 170.625C38.205 170.625 38.375 170.795 38.375 171V173.5C38.375 173.705 38.205 173.875 38 173.875C37.795 173.875 37.625 173.705 37.625 173.5V171ZM38.355 175.355C38.33 175.375 38.305 175.395 38.28 175.415C38.25 175.435 38.22 175.45 38.19 175.46C38.16 175.475 38.13 175.485 38.095 175.49C38.065 175.495 38.03 175.5 38 175.5C37.97 175.5 37.935 175.495 37.9 175.49C37.87 175.485 37.84 175.475 37.81 175.46C37.78 175.45 37.75 175.435 37.72 175.415C37.695 175.395 37.67 175.375 37.645 175.355C37.555 175.26 37.5 175.13 37.5 175C37.5 174.87 37.555 174.74 37.645 174.645C37.67 174.625 37.695 174.605 37.72 174.585C37.75 174.565 37.78 174.55 37.81 174.54C37.84 174.525 37.87 174.515 37.9 174.51C37.965 174.495 38.035 174.495 38.095 174.51C38.13 174.515 38.16 174.525 38.19 174.54C38.22 174.55 38.25 174.565 38.28 174.585C38.305 174.605 38.33 174.625 38.355 174.645C38.445 174.74 38.5 174.87 38.5 175C38.5 175.13 38.445 175.26 38.355 175.355Z" fill="#110F0F" fill-opacity="0.6"/>
<path d="M54.112 238.944V241.896H55.228C55.74 241.896 56.128 241.764 56.392 241.5C56.656 241.228 56.788 240.868 56.788 240.42C56.788 239.436 56.248 238.944 55.168 238.944H54.112ZM57.076 246L55.18 242.928H54.112V246H52.876V237.912H55.132C56.06 237.912 56.776 238.14 57.28 238.596C57.784 239.044 58.036 239.656 58.036 240.432C58.028 241 57.884 241.484 57.604 241.884C57.324 242.276 56.936 242.56 56.44 242.736L58.552 246H57.076ZM62.1923 246.108C61.2963 246.108 60.5923 245.816 60.0803 245.232C59.5683 244.648 59.3123 243.908 59.3123 243.012C59.3123 242.1 59.5763 241.344 60.1043 240.744C60.6323 240.136 61.3283 239.832 62.1923 239.832C63.1203 239.832 63.8363 240.128 64.3403 240.72C64.8443 241.304 65.0963 242.052 65.0963 242.964C65.0963 243.876 64.8363 244.628 64.3163 245.22C63.8043 245.812 63.0963 246.108 62.1923 246.108ZM62.1803 240.828C61.6603 240.828 61.2563 241.036 60.9683 241.452C60.6803 241.86 60.5363 242.368 60.5363 242.976C60.5363 243.576 60.6843 244.084 60.9803 244.5C61.2763 244.908 61.6803 245.112 62.1923 245.112C62.7363 245.112 63.1483 244.912 63.4283 244.512C63.7163 244.112 63.8603 243.604 63.8603 242.988C63.8603 242.356 63.7243 241.84 63.4523 241.44C63.1803 241.032 62.7563 240.828 62.1803 240.828ZM69.6258 243.288H68.7138C68.2658 243.288 67.9258 243.376 67.6938 243.552C67.4698 243.728 67.3577 243.952 67.3577 244.224C67.3577 244.504 67.4458 244.724 67.6218 244.884C67.7978 245.044 68.0538 245.124 68.3898 245.124C68.7738 245.124 69.0738 245.02 69.2898 244.812C69.5138 244.596 69.6258 244.316 69.6258 243.972V243.288ZM66.5658 241.368V240.228C67.0378 239.956 67.6618 239.82 68.4378 239.82C70.0298 239.82 70.8258 240.592 70.8258 242.136V246H69.6618V245.28C69.3498 245.792 68.8018 246.048 68.0178 246.048C67.4418 246.048 66.9778 245.884 66.6258 245.556C66.2818 245.22 66.1098 244.796 66.1098 244.284C66.1098 243.7 66.3298 243.248 66.7698 242.928C67.2098 242.6 67.8258 242.436 68.6178 242.436H69.6258V242.088C69.6258 241.672 69.5258 241.36 69.3258 241.152C69.1258 240.936 68.7938 240.828 68.3298 240.828C67.6818 240.828 67.0938 241.008 66.5658 241.368ZM74.87 245.052C75.334 245.052 75.726 244.876 76.046 244.524C76.366 244.172 76.526 243.636 76.526 242.916C76.526 242.22 76.358 241.704 76.022 241.368C75.694 241.032 75.322 240.864 74.906 240.864C74.434 240.864 74.046 241.052 73.742 241.428C73.438 241.796 73.286 242.324 73.286 243.012C73.286 243.62 73.434 244.112 73.73 244.488C74.034 244.864 74.414 245.052 74.87 245.052ZM76.526 237.516H77.714V246H76.526V245.076C76.102 245.748 75.482 246.084 74.666 246.084C73.866 246.084 73.234 245.784 72.77 245.184C72.306 244.576 72.074 243.844 72.074 242.988C72.074 242.036 72.318 241.272 72.806 240.696C73.294 240.12 73.922 239.832 74.69 239.832C75.482 239.832 76.094 240.168 76.526 240.84V237.516ZM83.6321 246L81.7241 239.916H82.9721L83.5361 241.932C83.7201 242.572 83.8761 243.136 84.0041 243.624C84.1321 244.112 84.2121 244.44 84.2441 244.608L84.2921 244.86C84.3961 244.356 84.6601 243.376 85.0841 241.92L85.6721 239.916H86.8121L87.4121 241.92C87.6041 242.584 87.7681 243.164 87.9041 243.66C88.0401 244.148 88.1281 244.472 88.1681 244.632L88.2161 244.872C88.3121 244.4 88.5841 243.416 89.0321 241.92L89.6321 239.916H90.8201L88.8881 246H87.5441L86.9801 244.008C86.8121 243.4 86.6641 242.864 86.5361 242.4C86.4161 241.928 86.3361 241.608 86.2961 241.44L86.2481 241.2C86.1361 241.72 85.8921 242.656 85.5161 244.008L84.9641 246H83.6321ZM95.0789 243.288H94.1669C93.7189 243.288 93.3789 243.376 93.1469 243.552C92.9229 243.728 92.8109 243.952 92.8109 244.224C92.8109 244.504 92.8989 244.724 93.0749 244.884C93.2509 245.044 93.5069 245.124 93.8429 245.124C94.2269 245.124 94.5269 245.02 94.7429 244.812C94.9669 244.596 95.0789 244.316 95.0789 243.972V243.288ZM92.0189 241.368V240.228C92.4909 239.956 93.1149 239.82 93.8909 239.82C95.4829 239.82 96.2789 240.592 96.2789 242.136V246H95.1149V245.28C94.8029 245.792 94.2549 246.048 93.4709 246.048C92.8949 246.048 92.4309 245.884 92.0789 245.556C91.7349 245.22 91.5629 244.796 91.5629 244.284C91.5629 243.7 91.7829 243.248 92.2229 242.928C92.6629 242.6 93.2789 242.436 94.0709 242.436H95.0789V242.088C95.0789 241.672 94.9789 241.36 94.7789 241.152C94.5789 240.936 94.2469 240.828 93.7829 240.828C93.1349 240.828 92.5469 241.008 92.0189 241.368ZM99.3872 240.828V244.176C99.3872 244.76 99.6672 245.052 100.227 245.052C100.555 245.052 100.831 244.964 101.055 244.788V245.844C100.791 245.988 100.467 246.06 100.083 246.06C98.8272 246.06 98.1992 245.424 98.1992 244.152V240.828H97.2512V239.916H98.1992V238.428H99.3872V239.916H100.983V240.828H99.3872ZM106.131 242.52V242.304C106.115 241.848 105.991 241.488 105.759 241.224C105.527 240.952 105.195 240.816 104.763 240.816C104.363 240.816 104.019 240.964 103.731 241.26C103.443 241.548 103.263 241.968 103.191 242.52H106.131ZM106.887 244.62V245.676C106.439 245.932 105.847 246.06 105.111 246.06C104.167 246.06 103.415 245.776 102.855 245.208C102.295 244.64 102.015 243.896 102.015 242.976C102.015 242 102.271 241.236 102.783 240.684C103.295 240.124 103.947 239.844 104.739 239.844C105.515 239.844 106.131 240.088 106.587 240.576C107.043 241.056 107.271 241.752 107.271 242.664C107.271 242.912 107.247 243.172 107.199 243.444H103.203C103.283 243.972 103.507 244.376 103.875 244.656C104.243 244.936 104.707 245.076 105.267 245.076C105.915 245.076 106.455 244.924 106.887 244.62ZM109.832 239.916V240.984C110.128 240.232 110.66 239.856 111.428 239.856C111.54 239.856 111.664 239.868 111.8 239.892V241.044C111.632 240.972 111.444 240.936 111.236 240.936C110.828 240.936 110.492 241.116 110.228 241.476C109.964 241.836 109.832 242.264 109.832 242.76V246H108.656V239.916H109.832ZM118.484 245.052C118.956 245.052 119.344 244.868 119.648 244.5C119.952 244.124 120.104 243.6 120.104 242.928C120.104 242.296 119.956 241.796 119.66 241.428C119.364 241.052 118.988 240.864 118.532 240.864C118.076 240.864 117.68 241.032 117.344 241.368C117.016 241.696 116.852 242.22 116.852 242.94C116.852 243.644 117.016 244.172 117.344 244.524C117.68 244.876 118.06 245.052 118.484 245.052ZM116.852 239.916V240.852C117.268 240.172 117.892 239.832 118.724 239.832C119.524 239.832 120.156 240.124 120.62 240.708C121.084 241.284 121.316 242.02 121.316 242.916C121.316 243.836 121.076 244.596 120.596 245.196C120.124 245.788 119.492 246.084 118.7 246.084C117.892 246.084 117.276 245.748 116.852 245.076V248.328H115.676V239.916H116.852ZM125.181 246.108C124.285 246.108 123.581 245.816 123.069 245.232C122.557 244.648 122.301 243.908 122.301 243.012C122.301 242.1 122.565 241.344 123.093 240.744C123.621 240.136 124.317 239.832 125.181 239.832C126.109 239.832 126.825 240.128 127.329 240.72C127.833 241.304 128.085 242.052 128.085 242.964C128.085 243.876 127.825 244.628 127.305 245.22C126.793 245.812 126.085 246.108 125.181 246.108ZM125.169 240.828C124.649 240.828 124.245 241.036 123.957 241.452C123.669 241.86 123.525 242.368 123.525 242.976C123.525 243.576 123.673 244.084 123.969 244.5C124.265 244.908 124.669 245.112 125.181 245.112C125.725 245.112 126.137 244.912 126.417 244.512C126.705 244.112 126.849 243.604 126.849 242.988C126.849 242.356 126.713 241.84 126.441 241.44C126.169 241.032 125.745 240.828 125.169 240.828ZM131.954 246.108C131.058 246.108 130.354 245.816 129.842 245.232C129.33 244.648 129.074 243.908 129.074 243.012C129.074 242.1 129.338 241.344 129.866 240.744C130.394 240.136 131.09 239.832 131.954 239.832C132.882 239.832 133.598 240.128 134.102 240.72C134.606 241.304 134.858 242.052 134.858 242.964C134.858 243.876 134.598 244.628 134.078 245.22C133.566 245.812 132.858 246.108 131.954 246.108ZM131.942 240.828C131.422 240.828 131.018 241.036 130.73 241.452C130.442 241.86 130.298 242.368 130.298 242.976C130.298 243.576 130.446 244.084 130.742 244.5C131.038 244.908 131.442 245.112 131.954 245.112C132.498 245.112 132.91 244.912 133.19 244.512C133.478 244.112 133.622 243.604 133.622 242.988C133.622 242.356 133.486 241.84 133.214 241.44C132.942 241.032 132.518 240.828 131.942 240.828ZM136.231 246V237.516H137.419V246H136.231Z" fill="#110F0F"/>
<path d="M42.88 244.46L39.68 238.7C39.25 237.925 38.655 237.5 38 237.5C37.345 237.5 36.75 237.925 36.32 238.7L33.12 244.46C32.715 245.195 32.67 245.9 32.995 246.455C33.32 247.01 33.96 247.315 34.8 247.315H41.2C42.04 247.315 42.68 247.01 43.005 246.455C43.33 245.9 43.285 245.19 42.88 244.46ZM37.625 241C37.625 240.795 37.795 240.625 38 240.625C38.205 240.625 38.375 240.795 38.375 241V243.5C38.375 243.705 38.205 243.875 38 243.875C37.795 243.875 37.625 243.705 37.625 243.5V241ZM38.355 245.355C38.33 245.375 38.305 245.395 38.28 245.415C38.25 245.435 38.22 245.45 38.19 245.46C38.16 245.475 38.13 245.485 38.095 245.49C38.065 245.495 38.03 245.5 38 245.5C37.97 245.5 37.935 245.495 37.9 245.49C37.87 245.485 37.84 245.475 37.81 245.46C37.78 245.45 37.75 245.435 37.72 245.415C37.695 245.395 37.67 245.375 37.645 245.355C37.555 245.26 37.5 245.13 37.5 245C37.5 244.87 37.555 244.74 37.645 244.645C37.67 244.625 37.695 244.605 37.72 244.585C37.75 244.565 37.78 244.55 37.81 244.54C37.84 244.525 37.87 244.515 37.9 244.51C37.965 244.495 38.035 244.495 38.095 244.51C38.13 244.515 38.16 244.525 38.19 244.54C38.22 244.55 38.25 244.565 38.28 244.585C38.305 244.605 38.33 244.625 38.355 244.645C38.445 244.74 38.5 244.87 38.5 245C38.5 245.13 38.445 245.26 38.355 245.355Z" fill="#110F0F" fill-opacity="0.6"/>
<rect x="32" y="353" width="195" height="34" rx="17" fill="#EFF6FF" fill-opacity="0.6"/>
<path d="M49.314 372.869H50.692C51.6887 372.869 52.447 372.557 52.967 371.933C53.487 371.309 53.747 370.507 53.747 369.528C53.747 368.627 53.4653 367.877 52.902 367.279C52.3387 366.681 51.589 366.382 50.653 366.382H49.314V372.869ZM47.949 365.238H50.679C51.979 365.238 53.045 365.641 53.877 366.447C54.709 367.253 55.125 368.28 55.125 369.528C55.125 370.828 54.7307 371.898 53.942 372.739C53.162 373.58 52.083 374 50.705 374H47.949V365.238ZM60.6629 370.23V369.996C60.6456 369.502 60.5112 369.112 60.2599 368.826C60.0086 368.531 59.6489 368.384 59.1809 368.384C58.7476 368.384 58.3749 368.544 58.0629 368.865C57.7509 369.177 57.5559 369.632 57.4779 370.23H60.6629ZM61.4819 372.505V373.649C60.9966 373.926 60.3552 374.065 59.5579 374.065C58.5352 374.065 57.7206 373.757 57.1139 373.142C56.5072 372.527 56.2039 371.721 56.2039 370.724C56.2039 369.667 56.4812 368.839 57.0359 368.241C57.5906 367.634 58.2969 367.331 59.1549 367.331C59.9956 367.331 60.6629 367.595 61.1569 368.124C61.6509 368.644 61.8979 369.398 61.8979 370.386C61.8979 370.655 61.8719 370.936 61.8199 371.231H57.4909C57.5776 371.803 57.8202 372.241 58.2189 372.544C58.6176 372.847 59.1202 372.999 59.7269 372.999C60.4289 372.999 61.0139 372.834 61.4819 372.505ZM67.155 367.63V368.787C66.7303 368.536 66.1843 368.41 65.517 368.41C65.2136 368.41 64.971 368.479 64.789 368.618C64.6156 368.757 64.529 368.939 64.529 369.164C64.529 369.225 64.5333 369.285 64.542 369.346C64.5593 369.398 64.5853 369.454 64.62 369.515C64.6546 369.567 64.685 369.615 64.711 369.658C64.7456 369.693 64.7976 369.732 64.867 369.775C64.9363 369.818 64.9883 369.857 65.023 369.892C65.0663 369.918 65.1313 369.953 65.218 369.996C65.3133 370.039 65.3826 370.074 65.426 370.1C65.4693 370.117 65.543 370.152 65.647 370.204C65.7596 370.247 65.8376 370.278 65.881 370.295C66.3923 370.52 66.791 370.776 67.077 371.062C67.3716 371.339 67.519 371.712 67.519 372.18C67.519 372.769 67.311 373.233 66.895 373.571C66.479 373.9 65.9156 374.065 65.205 374.065C64.425 374.065 63.775 373.935 63.255 373.675V372.466C63.8616 372.839 64.49 373.025 65.14 373.025C65.478 373.025 65.738 372.956 65.92 372.817C66.1106 372.678 66.206 372.496 66.206 372.271C66.206 372.08 66.1323 371.911 65.985 371.764C65.8376 371.608 65.686 371.495 65.53 371.426C65.3826 371.348 65.127 371.231 64.763 371.075C63.7316 370.65 63.216 370.026 63.216 369.203C63.216 368.622 63.4326 368.167 63.866 367.838C64.2993 367.509 64.841 367.344 65.491 367.344C66.2016 367.344 66.7563 367.439 67.155 367.63ZM70.4953 368.397V372.024C70.4953 372.657 70.7986 372.973 71.4053 372.973C71.7606 372.973 72.0596 372.878 72.3023 372.687V373.831C72.0163 373.987 71.6653 374.065 71.2493 374.065C69.8886 374.065 69.2083 373.376 69.2083 371.998V368.397H68.1813V367.409H69.2083V365.797H70.4953V367.409H72.2243V368.397H70.4953ZM73.7586 374V367.409H75.0456V374H73.7586ZM73.8236 365.966C73.6762 365.81 73.6026 365.619 73.6026 365.394C73.6026 365.169 73.6762 364.978 73.8236 364.822C73.9796 364.666 74.1702 364.588 74.3956 364.588C74.6209 364.588 74.8116 364.666 74.9676 364.822C75.1236 364.978 75.2016 365.169 75.2016 365.394C75.2016 365.611 75.1236 365.797 74.9676 365.953C74.8116 366.109 74.6209 366.187 74.3956 366.187C74.1702 366.187 73.9796 366.113 73.8236 365.966ZM78.1671 367.409V368.54C78.5571 367.725 79.2418 367.318 80.2211 367.318C80.8711 367.318 81.3868 367.517 81.7681 367.916C82.1494 368.315 82.3401 368.856 82.3401 369.541V374H81.0661V369.84C81.0661 369.381 80.9491 369.03 80.7151 368.787C80.4898 368.544 80.1864 368.423 79.8051 368.423C79.3544 368.423 78.9688 368.601 78.6481 368.956C78.3274 369.303 78.1671 369.792 78.1671 370.425V374H76.8931V367.409H78.1671ZM87.5243 371.062H86.5363C86.0509 371.062 85.6826 371.157 85.4313 371.348C85.1886 371.539 85.0672 371.781 85.0672 372.076C85.0672 372.379 85.1626 372.618 85.3533 372.791C85.5439 372.964 85.8213 373.051 86.1853 373.051C86.6013 373.051 86.9263 372.938 87.1603 372.713C87.4029 372.479 87.5243 372.176 87.5243 371.803V371.062ZM84.2093 368.982V367.747C84.7206 367.452 85.3966 367.305 86.2373 367.305C87.9619 367.305 88.8243 368.141 88.8243 369.814V374H87.5633V373.22C87.2253 373.775 86.6316 374.052 85.7823 374.052C85.1583 374.052 84.6556 373.874 84.2743 373.519C83.9016 373.155 83.7153 372.696 83.7153 372.141C83.7153 371.508 83.9536 371.019 84.4303 370.672C84.9069 370.317 85.5743 370.139 86.4323 370.139H87.5243V369.762C87.5243 369.311 87.4159 368.973 87.1993 368.748C86.9826 368.514 86.6229 368.397 86.1203 368.397C85.4183 368.397 84.7812 368.592 84.2093 368.982ZM92.1916 368.397V372.024C92.1916 372.657 92.4949 372.973 93.1016 372.973C93.4569 372.973 93.7559 372.878 93.9986 372.687V373.831C93.7126 373.987 93.3616 374.065 92.9456 374.065C91.5849 374.065 90.9046 373.376 90.9046 371.998V368.397H89.8776V367.409H90.9046V365.797H92.1916V367.409H93.9206V368.397H92.1916ZM95.4549 374V367.409H96.7419V374H95.4549ZM95.5199 365.966C95.3725 365.81 95.2989 365.619 95.2989 365.394C95.2989 365.169 95.3725 364.978 95.5199 364.822C95.6759 364.666 95.8665 364.588 96.0919 364.588C96.3172 364.588 96.5079 364.666 96.6639 364.822C96.8199 364.978 96.8979 365.169 96.8979 365.394C96.8979 365.611 96.8199 365.797 96.6639 365.953C96.5079 366.109 96.3172 366.187 96.0919 366.187C95.8665 366.187 95.6759 366.113 95.5199 365.966ZM101.345 374.117C100.375 374.117 99.612 373.801 99.0574 373.168C98.5027 372.535 98.2254 371.734 98.2254 370.763C98.2254 369.775 98.5114 368.956 99.0834 368.306C99.6554 367.647 100.409 367.318 101.345 367.318C102.351 367.318 103.126 367.639 103.672 368.28C104.218 368.913 104.491 369.723 104.491 370.711C104.491 371.699 104.21 372.514 103.646 373.155C103.092 373.796 102.325 374.117 101.345 374.117ZM101.332 368.397C100.769 368.397 100.331 368.622 100.019 369.073C99.7074 369.515 99.5514 370.065 99.5514 370.724C99.5514 371.374 99.7117 371.924 100.032 372.375C100.353 372.817 100.791 373.038 101.345 373.038C101.935 373.038 102.381 372.821 102.684 372.388C102.996 371.955 103.152 371.404 103.152 370.737C103.152 370.052 103.005 369.493 102.71 369.06C102.416 368.618 101.956 368.397 101.332 368.397ZM107.201 367.409V368.54C107.591 367.725 108.276 367.318 109.255 367.318C109.905 367.318 110.421 367.517 110.802 367.916C111.184 368.315 111.374 368.856 111.374 369.541V374H110.1V369.84C110.1 369.381 109.983 369.03 109.749 368.787C109.524 368.544 109.221 368.423 108.839 368.423C108.389 368.423 108.003 368.601 107.682 368.956C107.362 369.303 107.201 369.792 107.201 370.425V374H105.927V367.409H107.201ZM112.944 368.917C112.944 368.674 113.027 368.471 113.191 368.306C113.365 368.133 113.573 368.046 113.815 368.046C114.058 368.046 114.262 368.133 114.426 368.306C114.6 368.471 114.686 368.674 114.686 368.917C114.686 369.16 114.6 369.368 114.426 369.541C114.262 369.706 114.058 369.788 113.815 369.788C113.564 369.788 113.356 369.706 113.191 369.541C113.027 369.376 112.944 369.168 112.944 368.917ZM113.191 373.766C113.027 373.593 112.944 373.385 112.944 373.142C112.944 372.899 113.027 372.696 113.191 372.531C113.365 372.358 113.573 372.271 113.815 372.271C114.058 372.271 114.262 372.358 114.426 372.531C114.6 372.696 114.686 372.899 114.686 373.142C114.686 373.385 114.6 373.593 114.426 373.766C114.262 373.931 114.058 374.013 113.815 374.013C113.564 374.013 113.356 373.931 113.191 373.766Z" fill="#110F0F" fill-opacity="0.6"/>
<path d="M121.772 372.635H125.912V374H120.227V363.89H121.772V372.635ZM128.979 372.71H133.269V374H127.434V363.89H133.194V365.18H128.979V368.3H132.714V369.59H128.979V372.71ZM135.139 374V363.89H136.684V374H135.139ZM138.724 368.99L142.654 374H140.704L136.879 369.005L140.554 363.89H142.429L138.724 368.99ZM144.118 374V363.89H145.663V374H144.118ZM147.703 368.99L151.633 374H149.683L145.858 369.005L149.533 363.89H151.408L147.703 368.99ZM153.218 374V363.89H154.748V374H153.218ZM162.289 369.14H163.609C164.339 369.14 164.894 368.96 165.274 368.6C165.664 368.24 165.859 367.765 165.859 367.175C165.859 366.555 165.664 366.065 165.274 365.705C164.884 365.345 164.319 365.165 163.579 365.165H162.289V369.14ZM160.744 363.89H163.639C164.799 363.89 165.719 364.2 166.399 364.82C167.079 365.43 167.419 366.215 167.419 367.175C167.419 368.135 167.074 368.915 166.384 369.515C165.704 370.115 164.819 370.415 163.729 370.415H162.289V374H160.744V363.89ZM175.081 363.89H176.626V374H175.081V369.575H170.536V374H168.991V363.89H170.536V368.24H175.081V363.89ZM181.07 370.235H184.31L184.145 369.725C183.765 368.545 183.455 367.57 183.215 366.8C182.975 366.02 182.83 365.535 182.78 365.345L182.705 365.06C182.595 365.53 182.105 367.085 181.235 369.725L181.07 370.235ZM185.525 374L184.73 371.525H180.65L179.84 374H178.205L181.7 363.89H183.725L187.175 374H185.525ZM194.198 364.295V365.825C193.528 365.405 192.768 365.195 191.918 365.195C191.368 365.195 190.933 365.32 190.613 365.57C190.303 365.81 190.148 366.13 190.148 366.53C190.148 366.93 190.303 367.25 190.613 367.49C190.923 367.73 191.398 367.99 192.038 368.27C192.458 368.45 192.783 368.605 193.013 368.735C193.253 368.865 193.523 369.05 193.823 369.29C194.133 369.52 194.358 369.8 194.498 370.13C194.648 370.45 194.723 370.82 194.723 371.24C194.723 372.13 194.408 372.83 193.778 373.34C193.148 373.85 192.333 374.105 191.333 374.105C190.223 374.105 189.303 373.89 188.573 373.46V371.855C189.363 372.445 190.278 372.74 191.318 372.74C191.868 372.74 192.303 372.615 192.623 372.365C192.943 372.105 193.103 371.75 193.103 371.3C193.103 371.03 193.008 370.785 192.818 370.565C192.628 370.335 192.423 370.165 192.203 370.055C191.983 369.935 191.653 369.775 191.213 369.575C190.953 369.455 190.768 369.37 190.658 369.32C190.558 369.27 190.388 369.18 190.148 369.05C189.908 368.92 189.728 368.81 189.608 368.72C189.498 368.63 189.358 368.505 189.188 368.345C189.018 368.185 188.893 368.025 188.813 367.865C188.743 367.705 188.673 367.52 188.603 367.31C188.543 367.09 188.513 366.855 188.513 366.605C188.513 365.745 188.823 365.065 189.443 364.565C190.073 364.065 190.883 363.815 191.873 363.815C192.783 363.815 193.558 363.975 194.198 364.295ZM198.105 372.71H202.395V374H196.56V363.89H202.32V365.18H198.105V368.3H201.84V369.59H198.105V372.71ZM207.101 367.22V365.645L209.546 364.19H210.881V374H209.426V365.795L207.101 367.22Z" fill="#110F0F"/>
<path d="M186.556 79.5609C186.851 79.5232 187.149 79.5232 187.444 79.5609L251.86 87.7993C253.607 88.0227 254.916 89.5097 254.916 91.271V101.729C254.916 103.49 253.607 104.977 251.86 105.201L187.444 113.439C187.149 113.477 186.851 113.477 186.556 113.439L122.14 105.201C120.393 104.977 119.084 103.49 119.084 101.729V91.271C119.084 89.5097 120.393 88.0227 122.14 87.7993L186.556 79.5609Z" fill="#FCFEFF" stroke="#110F0F"/>
<g clip-path="url(#clip0_554_975)">
<path d="M159.5 93.8438V97.125" stroke="#D85912" stroke-width="1.5" stroke-linecap="round" stroke-linejoin="round"/>
<path d="M165.175 94.3625V98.6375C165.175 99.3375 164.8 99.9875 164.194 100.344L160.481 102.488C159.875 102.838 159.125 102.838 158.512 102.488L154.8 100.344C154.194 99.9938 153.819 99.3438 153.819 98.6375V94.3625C153.819 93.6625 154.194 93.0125 154.8 92.6562L158.512 90.5125C159.119 90.1625 159.869 90.1625 160.481 90.5125L164.194 92.6562C164.8 93.0125 165.175 93.6563 165.175 94.3625Z" stroke="#D85912" stroke-width="1.5" stroke-linecap="round" stroke-linejoin="round"/>
<path d="M159.5 99.125V99.1875" stroke="#D85912" stroke-width="2" stroke-linecap="round" stroke-linejoin="round"/>
</g>
<path d="M177.184 92.032H178.276L179.128 94.912L180.22 98.716C180.516 97.26 180.792 95.992 181.048 94.912L181.756 91.912H183.004L181.024 100H179.548L178.78 97.444L177.736 93.832C177.552 94.592 177.216 95.796 176.728 97.444L175.984 100H174.496L172.372 91.912H173.656L174.412 94.9L175.3 98.692C175.66 97.348 176.012 96.084 176.356 94.9L177.184 92.032ZM187.399 97.288H186.487C186.039 97.288 185.699 97.376 185.467 97.552C185.243 97.728 185.131 97.952 185.131 98.224C185.131 98.504 185.219 98.724 185.395 98.884C185.571 99.044 185.827 99.124 186.163 99.124C186.547 99.124 186.847 99.02 187.063 98.812C187.287 98.596 187.399 98.316 187.399 97.972V97.288ZM184.339 95.368V94.228C184.811 93.956 185.435 93.82 186.211 93.82C187.803 93.82 188.599 94.592 188.599 96.136V100H187.435V99.28C187.123 99.792 186.575 100.048 185.791 100.048C185.215 100.048 184.751 99.884 184.399 99.556C184.055 99.22 183.883 98.796 183.883 98.284C183.883 97.7 184.103 97.248 184.543 96.928C184.983 96.6 185.599 96.436 186.391 96.436H187.399V96.088C187.399 95.672 187.299 95.36 187.099 95.152C186.899 94.936 186.567 94.828 186.103 94.828C185.455 94.828 184.867 95.008 184.339 95.368ZM191.359 93.916V94.984C191.655 94.232 192.187 93.856 192.955 93.856C193.067 93.856 193.191 93.868 193.327 93.892V95.044C193.159 94.972 192.971 94.936 192.763 94.936C192.355 94.936 192.019 95.116 191.755 95.476C191.491 95.836 191.359 96.264 191.359 96.76V100H190.183V93.916H191.359ZM195.426 93.916V94.96C195.786 94.208 196.418 93.832 197.322 93.832C197.922 93.832 198.398 94.016 198.75 94.384C199.102 94.752 199.278 95.252 199.278 95.884V100H198.102V96.16C198.102 95.736 197.994 95.412 197.778 95.188C197.57 94.964 197.29 94.852 196.938 94.852C196.522 94.852 196.166 95.016 195.87 95.344C195.574 95.664 195.426 96.116 195.426 96.7V100H194.25V93.916H195.426ZM200.907 100V93.916H202.095V100H200.907ZM200.967 92.584C200.831 92.44 200.763 92.264 200.763 92.056C200.763 91.848 200.831 91.672 200.967 91.528C201.111 91.384 201.287 91.312 201.495 91.312C201.703 91.312 201.879 91.384 202.023 91.528C202.167 91.672 202.239 91.848 202.239 92.056C202.239 92.256 202.167 92.428 202.023 92.572C201.879 92.716 201.703 92.788 201.495 92.788C201.287 92.788 201.111 92.72 200.967 92.584ZM204.977 93.916V94.96C205.337 94.208 205.969 93.832 206.873 93.832C207.473 93.832 207.949 94.016 208.301 94.384C208.653 94.752 208.829 95.252 208.829 95.884V100H207.653V96.16C207.653 95.736 207.545 95.412 207.329 95.188C207.121 94.964 206.841 94.852 206.489 94.852C206.073 94.852 205.717 95.016 205.421 95.344C205.125 95.664 204.977 96.116 204.977 96.7V100H203.801V93.916H204.977ZM212.81 98.824C213.226 98.824 213.586 98.664 213.89 98.344C214.202 98.016 214.358 97.56 214.358 96.976C214.358 96.256 214.21 95.724 213.914 95.38C213.626 95.036 213.274 94.864 212.858 94.864C212.386 94.864 212.014 95.052 211.742 95.428C211.47 95.796 211.334 96.284 211.334 96.892C211.334 97.524 211.478 98.004 211.766 98.332C212.062 98.66 212.41 98.824 212.81 98.824ZM214.358 93.916H215.534V99.484C215.534 100.42 215.266 101.124 214.73 101.596C214.202 102.076 213.522 102.316 212.69 102.316C211.906 102.316 211.246 102.184 210.71 101.92V100.732C211.222 101.068 211.842 101.236 212.57 101.236C213.762 101.236 214.358 100.648 214.358 99.472V98.848C213.966 99.504 213.378 99.832 212.594 99.832C211.906 99.832 211.318 99.58 210.83 99.076C210.342 98.564 210.098 97.844 210.098 96.916C210.098 96.02 210.326 95.284 210.782 94.708C211.238 94.124 211.842 93.832 212.594 93.832C213.402 93.832 213.99 94.176 214.358 94.864V93.916ZM220.581 94.12V95.188C220.189 94.956 219.685 94.84 219.069 94.84C218.789 94.84 218.565 94.904 218.397 95.032C218.237 95.16 218.157 95.328 218.157 95.536C218.157 95.592 218.161 95.648 218.169 95.704C218.185 95.752 218.209 95.804 218.241 95.86C218.273 95.908 218.301 95.952 218.325 95.992C218.357 96.024 218.405 96.06 218.469 96.1C218.533 96.14 218.581 96.176 218.613 96.208C218.653 96.232 218.713 96.264 218.793 96.304C218.881 96.344 218.945 96.376 218.985 96.4C219.025 96.416 219.093 96.448 219.189 96.496C219.293 96.536 219.365 96.564 219.405 96.58C219.877 96.788 220.245 97.024 220.509 97.288C220.781 97.544 220.917 97.888 220.917 98.32C220.917 98.864 220.725 99.292 220.341 99.604C219.957 99.908 219.437 100.06 218.781 100.06C218.061 100.06 217.461 99.94 216.981 99.7V98.584C217.541 98.928 218.121 99.1 218.721 99.1C219.033 99.1 219.273 99.036 219.441 98.908C219.617 98.78 219.705 98.612 219.705 98.404C219.705 98.228 219.637 98.072 219.501 97.936C219.365 97.792 219.225 97.688 219.081 97.624C218.945 97.552 218.709 97.444 218.373 97.3C217.421 96.908 216.945 96.332 216.945 95.572C216.945 95.036 217.145 94.616 217.545 94.312C217.945 94.008 218.445 93.856 219.045 93.856C219.701 93.856 220.213 93.944 220.581 94.12Z" fill="#D85912"/>
<path d="M20 34H354" stroke="#110F0F" stroke-dasharray="2 2"/>
<defs>
<filter id="filter0_d_554_975" x="284" y="320" width="148" height="76" filterUnits="userSpaceOnUse" color-interpolation-filters="sRGB">
<feFlood flood-opacity="0" result="BackgroundImageFix"/>
<feColorMatrix in="SourceAlpha" type="matrix" values="0 0 0 0 0 0 0 0 0 0 0 0 0 0 0 0 0 0 127 0" result="hardAlpha"/>
<feOffset dx="4" dy="5"/>
<feGaussianBlur stdDeviation="8"/>
<feComposite in2="hardAlpha" operator="out"/>
<feColorMatrix type="matrix" values="0 0 0 0 0.0666667 0 0 0 0 0.0588235 0 0 0 0 0.0588235 0 0 0 0.25 0"/>
<feBlend mode="normal" in2="BackgroundImageFix" result="effect1_dropShadow_554_975"/>
<feBlend mode="normal" in="SourceGraphic" in2="effect1_dropShadow_554_975" result="shape"/>
</filter>
<clipPath id="clip0_554_975">
<rect width="15" height="15" fill="white" transform="translate(152 89)"/>
</clipPath>
</defs>
</svg>
