<svg width="21" height="20" viewBox="0 0 21 20" fill="none" xmlns="http://www.w3.org/2000/svg">
<g id="vuesax/bold/verify">
<g id="verify">
<path id="Vector" d="M18.6655 8.9502L17.5321 7.63353C17.3155 7.38353 17.1405 6.91686 17.1405 6.58353V5.16686C17.1405 4.28353 16.4155 3.55853 15.5321 3.55853H14.1155C13.7905 3.55853 13.3155 3.38353 13.0655 3.16686L11.7488 2.03353C11.1738 1.54186 10.2321 1.54186 9.6488 2.03353L8.34046 3.1752C8.09046 3.38353 7.61546 3.55853 7.29046 3.55853H5.8488C4.96546 3.55853 4.24046 4.28353 4.24046 5.16686V6.59186C4.24046 6.91686 4.06546 7.38353 3.85713 7.63353L2.73213 8.95853C2.2488 9.53353 2.2488 10.4669 2.73213 11.0419L3.85713 12.3669C4.06546 12.6169 4.24046 13.0835 4.24046 13.4085V14.8335C4.24046 15.7169 4.96546 16.4419 5.8488 16.4419H7.29046C7.61546 16.4419 8.09046 16.6169 8.34046 16.8335L9.65713 17.9669C10.2321 18.4585 11.1738 18.4585 11.7571 17.9669L13.0738 16.8335C13.3238 16.6169 13.7905 16.4419 14.1238 16.4419H15.5405C16.4238 16.4419 17.1488 15.7169 17.1488 14.8335V13.4169C17.1488 13.0919 17.3238 12.6169 17.5405 12.3669L18.6738 11.0502C19.1571 10.4752 19.1571 9.5252 18.6655 8.9502ZM14.1655 8.4252L10.1405 12.4502C10.0238 12.5669 9.86546 12.6335 9.6988 12.6335C9.53213 12.6335 9.3738 12.5669 9.25713 12.4502L7.24046 10.4335C6.9988 10.1919 6.9988 9.79186 7.24046 9.5502C7.48213 9.30853 7.88213 9.30853 8.1238 9.5502L9.6988 11.1252L13.2821 7.54186C13.5238 7.3002 13.9238 7.3002 14.1655 7.54186C14.4071 7.78353 14.4071 8.18353 14.1655 8.4252Z" fill="white"/>
</g>
</g>
</svg>
